<?xml version="1.0" encoding="UTF-8" standalone="no"?>
<svg
   xmlns:dc="http://purl.org/dc/elements/1.1/"
   xmlns:cc="http://creativecommons.org/ns#"
   xmlns:rdf="http://www.w3.org/1999/02/22-rdf-syntax-ns#"
   xmlns:svg="http://www.w3.org/2000/svg"
   xmlns="http://www.w3.org/2000/svg"
   viewBox="0 0 1066.6667 1066.6667"
   height="1066.6667"
   width="1066.6667"
   xml:space="preserve"
   id="svg2"
   version="1.1"><metadata
     id="metadata8"><rdf:RDF><cc:Work
         rdf:about=""><dc:format>image/svg+xml</dc:format><dc:type
           rdf:resource="http://purl.org/dc/dcmitype/StillImage" /></cc:Work></rdf:RDF></metadata><defs
     id="defs6"><radialGradient
       id="radialGradient18"
       spreadMethod="pad"
       gradientTransform="matrix(5070.25,0,0,5070.25,3921.18,3921.32)"
       gradientUnits="userSpaceOnUse"
       r="1"
       cy="0"
       cx="0"
       fy="0"
       fx="0"><stop
         id="stop14"
         offset="0"
         style="stop-opacity:1;stop-color:#f2f8e2" /><stop
         id="stop16"
         offset="1"
         style="stop-opacity:1;stop-color:#cdd4ba" /></radialGradient></defs><g
     transform="matrix(1.3333333,0,0,-1.3333333,0,1066.6667)"
     id="g10"><g
       transform="scale(0.1)"
       id="g12"><path
         id="path20"
         style="fill:url(#radialGradient18);fill-opacity:1;fill-rule:nonzero;stroke:none"
         d="M 0,0 H 8000 V 8000 H 0 Z" /><path
         id="path22"
         style="fill:#97a925;fill-opacity:1;fill-rule:evenodd;stroke:none"
         d="m 2908.09,333.461 c 0,-5.859 0.89,-10.902 2.73,-15.082 1.84,-4.137 4.38,-7.231 7.53,-9.34 3.2,-2.129 6.68,-3.18 10.48,-3.18 h 0.06 v -16.25 c -2.15,-0.347 -4.41,-0.55 -6.77,-0.55 -5.21,0 -10.05,1.101 -14.48,3.281 -4.41,2.211 -8.28,5.359 -11.55,9.48 -3.23,4.039 -5.7,8.879 -7.37,14.43 -1.7,5.512 -2.52,11.5 -2.52,17.969 0,13.59 3.34,24.203 9.98,31.82 6.66,7.59 15.41,11.383 26.27,11.383 2.28,0 4.41,-0.121 6.44,-0.41 v -15.703 h -0.23 c -3.99,0 -7.57,-1.098 -10.72,-3.34 -3.1,-2.289 -5.53,-5.547 -7.26,-9.789 -1.75,-4.2 -2.59,-9.141 -2.59,-14.719 m 20.8,-27.602 c 3.81,0 7.27,1.032 10.41,3.012 3.18,1.988 5.7,5.02 7.59,9.16 1.87,4.16 2.82,9.27 2.82,15.43 0,5.84 -0.95,10.82 -2.82,14.98 -1.89,4.2 -4.42,7.399 -7.7,9.551 -3.14,2.219 -6.55,3.278 -10.3,3.317 v 15.703 c 3.54,-0.512 6.68,-1.422 9.43,-2.77 4.3,-2.152 8.5,-5.492 12.6,-9.941 v 32.148 c 0,4.492 0.88,7.852 2.67,10.121 1.79,2.34 4.33,3.43 7.61,3.43 3.32,0 5.85,-1.051 7.6,-3.18 1.83,-2.09 2.72,-5.16 2.72,-9.261 V 301.48 c 0,-4.14 -0.95,-7.261 -2.86,-9.308 -1.97,-2.09 -4.42,-3.113 -7.46,-3.113 -2.97,0 -5.41,1.023 -7.37,3.211 -1.94,2.121 -2.91,5.25 -2.91,9.21 v 2.192 c -2.93,-3.402 -5.82,-6.09 -8.65,-8.203 -2.86,-2.129 -5.92,-3.688 -9.26,-4.809 -1.34,-0.43 -2.69,-0.781 -4.12,-1.051 v 16.25" /><path
         id="path24"
         style="fill:#97a925;fill-opacity:1;fill-rule:evenodd;stroke:none"
         d="m 3011.58,340.352 h 19.73 v -12.383 h -19.73 c 0.02,-4.938 1.04,-9.297 2.97,-13.047 1.95,-3.813 4.53,-6.641 7.77,-8.551 2.76,-1.652 5.74,-2.601 8.99,-2.832 v -14.457 c -12.89,0.43 -23.03,4.41 -30.37,11.957 -7.78,7.961 -11.65,18.762 -11.65,32.43 0,6.453 0.94,12.41 2.88,17.961 1.93,5.461 4.72,10.211 8.39,14.14 3.66,3.918 8.17,6.95 13.54,9.039 5.21,2.051 10.94,3.09 17.21,3.141 v -15.148 h -0.04 c -5.43,0 -9.9,-1.864 -13.36,-5.571 -3.48,-3.793 -5.63,-9.332 -6.33,-16.679 m 19.73,-51.27 v 14.457 l 1.64,-0.039 c 2.58,0 4.98,0.289 7.17,0.891 2.12,0.589 4.19,1.578 6.21,2.879 2.05,1.32 3.9,2.71 5.62,4.191 1.68,1.488 3.89,3.5 6.6,6.039 1.12,0.98 2.72,1.48 4.79,1.48 2.22,0 4.02,-0.621 5.43,-1.851 1.36,-1.207 2.07,-2.969 2.07,-5.18 0,-1.969 -0.76,-4.25 -2.29,-6.91 -1.56,-2.641 -3.88,-5.18 -7.01,-7.578 -3.09,-2.422 -7.01,-4.399 -11.72,-6.059 -4.72,-1.562 -10.11,-2.343 -16.25,-2.343 l -2.26,0.023 m 0,51.27 h 19.76 c -0.53,7.418 -2.56,13.007 -6.05,16.679 -3.48,3.688 -8.05,5.571 -13.71,5.571 v 15.148 h 0.68 c 8.52,0 15.82,-1.75 21.88,-5.41 6.13,-3.57 10.68,-8.199 13.75,-13.871 3,-5.68 4.49,-11.5 4.49,-17.418 0,-5.442 -1.58,-9.039 -4.69,-10.641 -3.18,-1.64 -7.56,-2.441 -13.24,-2.441 h -22.87 v 12.383" /><path
         id="path26"
         style="fill:#97a925;fill-opacity:1;fill-rule:evenodd;stroke:none"
         d="m 3160.61,317.5 c 0,-5.98 -1.45,-11.129 -4.37,-15.391 -2.95,-4.32 -7.26,-7.558 -12.97,-9.769 -5.72,-2.18 -12.7,-3.281 -20.87,-3.281 -7.8,0 -14.52,1.152 -20.11,3.562 -5.63,2.379 -9.72,5.43 -12.39,8.981 -2.63,3.578 -3.99,7.187 -3.99,10.82 0,2.398 0.84,4.457 2.57,6.129 1.72,1.719 3.86,2.578 6.47,2.578 2.28,0 4.01,-0.578 5.26,-1.699 1.22,-1.071 2.41,-2.668 3.54,-4.68 2.21,-3.891 4.88,-6.801 7.96,-8.68 3.13,-1.949 7.4,-2.89 12.74,-2.89 4.35,0 7.93,0.98 10.76,2.89 2.79,1.942 4.18,4.16 4.18,6.66 0,3.829 -1.48,6.641 -4.34,8.399 -2.91,1.723 -7.69,3.441 -14.35,5.019 -7.5,1.864 -13.6,3.774 -18.3,5.864 -4.69,2.047 -8.44,4.73 -11.27,8.09 -2.82,3.378 -4.24,7.437 -4.24,12.378 0,4.379 1.29,8.481 3.92,12.399 2.58,3.871 6.46,6.922 11.51,9.262 5.08,2.32 11.23,3.461 18.38,3.461 5.64,0 10.73,-0.571 15.21,-1.723 4.5,-1.188 8.25,-2.758 11.25,-4.75 3.02,-1.949 5.31,-4.141 6.84,-6.539 1.59,-2.379 2.39,-4.731 2.39,-6.988 0,-2.5 -0.84,-4.571 -2.5,-6.141 -1.68,-1.582 -4.07,-2.422 -7.16,-2.422 -2.24,0 -4.14,0.652 -5.71,1.902 -1.57,1.27 -3.36,3.18 -5.38,5.758 -1.64,2.133 -3.58,3.852 -5.82,5.141 -2.25,1.25 -5.26,1.91 -9.12,1.91 -3.93,0 -7.18,-0.898 -9.79,-2.559 -2.6,-1.66 -3.92,-3.75 -3.92,-6.211 0,-2.32 0.95,-4.199 2.89,-5.64 1.92,-1.469 4.46,-2.699 7.74,-3.68 3.21,-0.91 7.72,-2.07 13.38,-3.488 6.77,-1.66 12.29,-3.563 16.57,-5.883 4.29,-2.309 7.55,-4.98 9.73,-8.129 2.22,-3.101 3.31,-6.68 3.31,-10.66" /><path
         id="path28"
         style="fill:#97a925;fill-opacity:1;fill-rule:evenodd;stroke:none"
         d="m 3190.06,387.73 c -3.05,0 -5.62,0.961 -7.77,2.801 -2.17,1.867 -3.23,4.5 -3.23,7.891 0,3.098 1.1,5.66 3.3,7.648 2.21,2.02 4.77,2.969 7.7,2.969 2.81,0 5.31,-0.879 7.52,-2.687 2.17,-1.84 3.26,-4.481 3.26,-7.93 0,-3.34 -1.07,-5.942 -3.18,-7.852 -2.15,-1.859 -4.67,-2.84 -7.6,-2.84 m 10.78,-22.46 v -62.981 c 0,-4.379 -1.03,-7.668 -3.12,-9.91 -2.05,-2.219 -4.71,-3.32 -7.87,-3.32 -3.23,0 -5.83,1.121 -7.8,3.402 -2.01,2.309 -2.99,5.59 -2.99,9.828 v 62.301 c 0,4.301 0.98,7.582 2.99,9.73 1.97,2.18 4.57,3.282 7.8,3.282 3.16,0 5.82,-1.102 7.87,-3.282 2.09,-2.148 3.12,-5.179 3.12,-9.05" /><path
         id="path30"
         style="fill:#97a925;fill-opacity:1;fill-rule:evenodd;stroke:none"
         d="m 3261.29,271.891 v -15.129 l -1.46,-0.02 c -7.5,0 -14.24,1.028 -20.12,3.156 -5.92,2.071 -10.47,4.793 -13.67,8.114 -3.17,3.359 -4.75,6.758 -4.75,10.269 0,2.66 0.88,4.809 2.7,6.449 1.79,1.75 3.96,2.571 6.52,2.571 3.2,0 5.99,-1.399 8.4,-4.211 1.15,-1.449 2.34,-2.93 3.61,-4.379 1.27,-1.441 2.64,-2.711 4.18,-3.77 1.48,-1.011 3.32,-1.781 5.45,-2.281 2.11,-0.508 4.57,-0.789 7.34,-0.789 l 1.8,0.02 m -20.96,62.129 c 0,-8.809 1.94,-15.5 5.78,-20.02 3.87,-4.469 8.85,-6.77 14.98,-6.77 h 0.2 v -15.628 c -2.13,-0.372 -4.37,-0.551 -6.76,-0.551 -7.28,0 -13.65,1.859 -19.12,5.59 -5.43,3.691 -9.63,8.91 -12.54,15.648 -2.95,6.691 -4.41,14.43 -4.41,23.242 0,6.481 0.92,12.41 2.67,17.649 1.8,5.281 4.32,9.73 7.62,13.34 3.3,3.66 7.11,6.332 11.43,8.191 4.29,1.789 9.04,2.73 14.2,2.73 2.42,0 4.74,-0.171 6.91,-0.55 v -15.582 h -0.37 c -6.23,0 -11.21,-2.329 -14.96,-7.09 -3.75,-4.707 -5.63,-11.41 -5.63,-20.199 m 20.96,-26.79 c 3.54,0.04 6.89,1.008 10.04,2.891 3.22,1.988 5.84,4.899 7.87,8.809 2.05,3.922 3.03,8.672 3.03,14.211 0,8.929 -1.96,15.808 -5.86,20.789 -3.85,4.859 -8.87,7.3 -15.08,7.379 v 15.582 c 3.34,-0.559 6.39,-1.559 9.12,-2.961 4.51,-2.371 8.71,-6.121 12.64,-11.16 v 2.949 c 0,3.769 0.9,6.722 2.77,8.769 1.86,2.094 4.26,3.114 7.15,3.114 4.24,0 7.01,-1.391 8.4,-4.102 1.38,-2.699 2.07,-6.66 2.07,-11.859 v -63.282 c 0,-7.211 -0.74,-13.461 -2.31,-18.668 -1.52,-5.222 -3.98,-9.511 -7.42,-12.929 -3.4,-3.36 -7.85,-5.942 -13.36,-7.571 -5.19,-1.511 -11.52,-2.351 -19.06,-2.429 v 15.129 c 4.77,0.179 8.54,0.941 11.33,2.351 3.12,1.559 5.25,3.75 6.54,6.559 1.27,2.871 1.95,5.89 2.17,9.058 0.21,3.231 0.41,8.379 0.51,15.532 -3.38,-4.653 -7.25,-8.262 -11.64,-10.68 -2.66,-1.492 -5.65,-2.52 -8.91,-3.109 v 15.628" /><path
         id="path32"
         style="fill:#97a925;fill-opacity:1;fill-rule:evenodd;stroke:none"
         d="m 3345.27,365.57 v -2.66 c 3.83,5.082 8.03,8.77 12.56,11.129 4.53,2.391 9.78,3.563 15.68,3.563 5.76,0 10.88,-1.231 15.39,-3.711 4.51,-2.52 7.89,-6.082 10.14,-10.629 1.43,-2.692 2.36,-5.582 2.79,-8.59 0.43,-3.133 0.63,-7.051 0.63,-11.813 v -40.57 c 0,-4.379 -0.98,-7.66 -2.95,-9.91 -2.01,-2.219 -4.63,-3.32 -7.81,-3.32 -3.25,0 -5.87,1.121 -7.89,3.39 -2.02,2.321 -3.03,5.602 -3.03,9.84 v 36.32 c 0,7.153 -0.99,12.661 -2.99,16.493 -1.99,3.789 -5.98,5.668 -11.95,5.668 -3.87,0 -7.41,-1.161 -10.61,-3.469 -3.2,-2.262 -5.53,-5.461 -7.01,-9.531 -1.06,-3.258 -1.62,-9.329 -1.62,-18.2 v -27.281 c 0,-4.398 -1.02,-7.738 -3.05,-9.949 -2.07,-2.18 -4.69,-3.281 -7.94,-3.281 -3.13,0 -5.73,1.121 -7.74,3.39 -2.03,2.321 -3.03,5.602 -3.03,9.84 v 62.981 c 0,4.121 0.9,7.25 2.73,9.25 1.81,2.062 4.24,3.082 7.39,3.082 1.92,0 3.65,-0.43 5.17,-1.332 1.55,-0.911 2.8,-2.27 3.73,-4.098 0.94,-1.781 1.41,-3.992 1.41,-6.602" /><path
         id="path34"
         style="fill:#97a925;fill-opacity:1;fill-rule:evenodd;stroke:none"
         d="m 3442.36,340.352 h 19.77 v -12.383 h -19.77 c 0.06,-4.938 1.05,-9.297 2.99,-13.047 1.94,-3.813 4.53,-6.641 7.71,-8.551 2.8,-1.652 5.8,-2.601 9.07,-2.832 v -14.457 c -12.91,0.43 -23.03,4.41 -30.38,11.957 -7.75,7.961 -11.66,18.762 -11.66,32.43 0,6.453 1,12.41 2.88,17.961 1.91,5.461 4.7,10.211 8.39,14.14 3.7,3.918 8.17,6.95 13.56,9.039 5.17,2.051 10.9,3.071 17.21,3.141 v -15.148 h -0.06 c -5.43,0 -9.89,-1.864 -13.38,-5.571 -3.46,-3.793 -5.56,-9.332 -6.33,-16.679 m 19.77,-51.27 v 14.457 l 1.64,-0.039 c 2.59,0 4.96,0.289 7.13,0.891 2.16,0.589 4.21,1.578 6.26,2.879 2.04,1.32 3.89,2.71 5.57,4.191 1.72,1.488 3.94,3.5 6.62,6.039 1.13,0.98 2.74,1.48 4.79,1.48 2.24,0 4.04,-0.621 5.43,-1.851 1.38,-1.207 2.11,-2.969 2.11,-5.18 0,-1.969 -0.78,-4.25 -2.35,-6.91 -1.54,-2.641 -3.86,-5.18 -6.99,-7.578 -3.07,-2.422 -6.99,-4.399 -11.71,-6.059 -4.7,-1.562 -10.13,-2.343 -16.24,-2.343 l -2.26,0.023 m 0,51.27 h 19.75 c -0.56,7.418 -2.57,13.007 -6.06,16.679 -3.44,3.688 -8.05,5.571 -13.69,5.571 v 15.148 h 0.68 c 8.5,0 15.78,-1.75 21.87,-5.41 6.1,-3.57 10.67,-8.199 13.72,-13.871 3,-5.68 4.53,-11.5 4.53,-17.418 0,-5.442 -1.59,-9.039 -4.71,-10.641 -3.13,-1.64 -7.54,-2.441 -13.24,-2.441 h -22.85 v 12.383" /><path
         id="path36"
         style="fill:#97a925;fill-opacity:1;fill-rule:evenodd;stroke:none"
         d="m 3538.13,333.461 c 0,-5.859 0.91,-10.902 2.74,-15.082 1.86,-4.137 4.36,-7.231 7.52,-9.34 3.22,-2.129 6.7,-3.18 10.45,-3.18 h 0.12 v -16.25 c -2.16,-0.347 -4.42,-0.55 -6.8,-0.55 -5.19,0 -10.06,1.101 -14.48,3.281 -4.43,2.211 -8.29,5.359 -11.5,9.48 -3.28,4.039 -5.74,8.879 -7.4,14.43 -1.7,5.512 -2.53,11.5 -2.53,17.969 0,13.59 3.33,24.203 9.99,31.82 6.66,7.59 15.41,11.383 26.26,11.383 2.27,0 4.43,-0.121 6.46,-0.41 v -15.703 h -0.26 c -3.99,0 -7.55,-1.098 -10.7,-3.34 -3.14,-2.289 -5.55,-5.547 -7.3,-9.789 -1.74,-4.2 -2.57,-9.141 -2.57,-14.719 m 20.83,-27.602 c 3.79,0.02 7.26,1.032 10.42,3.012 3.12,1.988 5.67,5.02 7.57,9.16 1.89,4.16 2.85,9.27 2.85,15.43 0,5.84 -0.96,10.82 -2.85,14.98 -1.9,4.2 -4.45,7.399 -7.67,9.551 -3.13,2.219 -6.57,3.278 -10.32,3.317 v 15.703 c 3.54,-0.512 6.67,-1.422 9.37,-2.77 4.33,-2.152 8.56,-5.492 12.65,-9.941 v 32.148 c 0,4.492 0.91,7.852 2.7,10.121 1.74,2.34 4.26,3.43 7.58,3.43 3.32,0 5.82,-1.051 7.65,-3.18 1.77,-2.09 2.68,-5.16 2.68,-9.261 V 301.48 c 0,-4.14 -0.96,-7.261 -2.87,-9.308 -1.92,-2.09 -4.42,-3.113 -7.46,-3.113 -2.95,0 -5.43,1.023 -7.35,3.211 -1.96,2.121 -2.93,5.25 -2.93,9.21 v 2.192 c -2.93,-3.402 -5.82,-6.09 -8.68,-8.203 -2.85,-2.129 -5.93,-3.688 -9.23,-4.809 -1.34,-0.43 -2.67,-0.781 -4.11,-1.051 v 16.25" /><path
         id="path38"
         style="fill:#97a925;fill-opacity:1;fill-rule:evenodd;stroke:none"
         d="m 3685.45,332.852 c 0,-8.672 1.97,-15.352 5.92,-20 3.85,-4.493 8.79,-6.801 14.9,-6.993 v -16.328 c -1.09,0.211 -2.21,0.43 -3.22,0.68 -2.95,0.84 -5.49,1.879 -7.54,3.211 -2.07,1.269 -3.85,2.598 -5.33,4.019 -1.45,1.368 -3.38,3.438 -5.77,6.231 v -2.192 c 0,-4.082 -0.97,-7.168 -2.96,-9.308 -1.98,-2.09 -4.46,-3.113 -7.48,-3.113 -3.09,0 -5.57,1.023 -7.43,3.113 -1.81,2.14 -2.73,5.226 -2.73,9.308 v 95.161 c 0,4.359 0.92,7.718 2.68,9.961 1.77,2.3 4.23,3.398 7.48,3.398 3.34,0 5.89,-1.07 7.73,-3.238 1.8,-2.172 2.71,-5.203 2.71,-9.203 v -33.247 c 4.11,4.239 8.27,7.5 12.5,9.727 2.74,1.453 5.83,2.441 9.36,2.973 v -15.723 c -3.87,-0.098 -7.28,-1.23 -10.35,-3.32 -3.26,-2.289 -5.84,-5.547 -7.7,-9.848 -1.85,-4.312 -2.77,-9.391 -2.77,-15.269 m 20.82,-26.993 h 0.68 c 5.51,0 10.24,2.422 14.18,7.153 3.99,4.758 5.96,11.578 5.96,20.457 0,5.793 -0.8,10.691 -2.46,14.871 -1.66,4.14 -4,7.34 -7.01,9.629 -3.03,2.242 -6.6,3.34 -10.67,3.34 l -0.68,-0.02 v 15.723 c 2.03,0.289 4.18,0.429 6.47,0.429 7.22,0 13.59,-1.742 19.02,-5.14 5.47,-3.399 9.69,-8.371 12.67,-14.922 3.03,-6.477 4.52,-14.258 4.52,-23.16 0,-6.617 -0.84,-12.699 -2.48,-18.18 -1.68,-5.508 -4.15,-10.277 -7.33,-14.297 -3.2,-4.043 -7.05,-7.191 -11.6,-9.402 -4.53,-2.188 -9.55,-3.281 -15.04,-3.281 -2.17,0 -4.26,0.16 -6.23,0.472 v 16.328" /><path
         id="path40"
         style="fill:#97a925;fill-opacity:1;fill-rule:evenodd;stroke:none"
         d="m 3784.39,286.309 2,4.863 -26.81,67.519 c -1.65,3.911 -2.49,6.739 -2.49,8.461 0,1.828 0.44,3.649 1.46,5.2 0.95,1.609 2.26,2.859 3.94,3.796 1.68,0.981 3.4,1.454 5.21,1.454 3.14,0 5.5,-1 7.1,-2.993 1.61,-1.968 3.04,-4.82 4.26,-8.57 l 18.44,-53.617 17.47,49.879 c 1.33,4.051 2.6,7.187 3.73,9.5 1.12,2.281 2.3,3.808 3.57,4.609 1.23,0.801 3,1.192 5.26,1.192 1.65,0 3.26,-0.43 4.77,-1.332 1.5,-0.879 2.69,-2.028 3.51,-3.54 0.84,-1.48 1.23,-3.039 1.23,-4.679 -0.18,-0.981 -0.56,-2.442 -1.02,-4.301 -0.47,-1.891 -1.07,-3.789 -1.81,-5.68 l -28.37,-74.359 c -2.47,-6.582 -4.82,-11.68 -7.18,-15.391 -2.34,-3.75 -5.39,-6.601 -9.28,-8.59 -3.88,-2 -9.07,-2.988 -15.61,-2.988 -6.36,0 -11.18,0.719 -14.36,2.067 -3.17,1.351 -4.79,3.89 -4.79,7.562 0,2.52 0.78,4.41 2.27,5.82 1.52,1.379 3.77,2.008 6.77,2.008 1.13,0 2.28,-0.16 3.43,-0.488 1.35,-0.289 2.53,-0.449 3.57,-0.449 2.5,0 4.48,0.386 5.88,1.109 1.44,0.711 2.76,2.039 3.89,3.867 1.16,1.821 2.5,4.532 3.96,8.071" /><path
         id="path42"
         style="fill:#97a925;fill-opacity:1;fill-rule:evenodd;stroke:none"
         d="m 4187.52,375.68 h 5.21 v 6.57 c 0,6.809 0.86,12.199 2.58,16.23 1.7,3.981 4.67,6.95 8.77,8.77 4.16,1.852 9.79,2.75 16.98,2.75 12.67,0 19.1,-3.109 19.1,-9.34 0,-1.988 -0.71,-3.711 -2.03,-5.18 -1.33,-1.441 -2.88,-2.179 -4.71,-2.179 -0.86,0 -2.35,0.179 -4.4,0.508 -2.07,0.312 -3.8,0.472 -5.25,0.472 -3.95,0 -6.46,-1.16 -7.6,-3.48 -1.09,-2.281 -1.7,-5.621 -1.7,-9.879 v -5.242 h 5.37 c 8.3,0 12.47,-2.5 12.47,-7.481 0,-3.547 -1.12,-5.84 -3.29,-6.769 -2.22,-0.981 -5.29,-1.469 -9.18,-1.469 h -5.37 v -57.672 c 0,-4.297 -1.01,-7.598 -3.02,-9.891 -2.05,-2.238 -4.69,-3.339 -7.95,-3.339 -3.09,0 -5.67,1.101 -7.72,3.339 -2.05,2.293 -3.05,5.594 -3.05,9.891 v 57.672 h -6.01 c -3.24,0 -5.72,0.738 -7.46,2.25 -1.78,1.437 -2.68,3.32 -2.68,5.66 0,5.219 3.65,7.809 10.94,7.809" /><path
         id="path44"
         style="fill:#97a925;fill-opacity:1;fill-rule:evenodd;stroke:none"
         d="m 4265.35,320.492 v -18.203 c 0,-4.398 -1.03,-7.738 -3.11,-9.949 -2.08,-2.18 -4.68,-3.281 -7.94,-3.281 -3.07,0 -5.69,1.101 -7.68,3.32 -2.05,2.25 -3.08,5.531 -3.08,9.91 v 60.621 c 0,9.82 3.57,14.692 10.62,14.692 3.59,0 6.25,-1.153 7.81,-3.422 1.64,-2.27 2.48,-5.66 2.68,-10.121 2.58,4.461 5.25,7.851 7.99,10.121 2.77,2.269 6.4,3.422 10.97,3.422 4.57,0 9.01,-1.153 13.32,-3.422 4.36,-2.27 6.47,-5.309 6.47,-9.078 0,-2.68 -0.88,-4.872 -2.74,-6.602 -1.85,-1.719 -3.8,-2.578 -5.95,-2.578 -0.8,0 -2.76,0.488 -5.8,1.457 -3.03,1 -5.75,1.512 -8.11,1.512 -3.18,0 -5.78,-0.899 -7.77,-2.559 -2.05,-1.641 -3.64,-4.141 -4.73,-7.422 -1.13,-3.34 -1.89,-7.25 -2.34,-11.82 -0.41,-4.531 -0.61,-10.059 -0.61,-16.598" /><path
         id="path46"
         style="fill:#97a925;fill-opacity:1;fill-rule:evenodd;stroke:none"
         d="m 4329.41,340.352 h 19.77 v -12.383 h -19.77 c 0.08,-4.938 1.06,-9.297 2.99,-13.047 1.94,-3.813 4.49,-6.641 7.76,-8.551 2.77,-1.652 5.74,-2.582 9.02,-2.832 v -14.457 c -12.93,0.43 -23.05,4.41 -30.37,11.957 -7.76,7.961 -11.66,18.762 -11.66,32.43 0,6.453 0.94,12.41 2.89,17.961 1.91,5.461 4.69,10.211 8.36,14.14 3.67,3.918 8.18,6.95 13.59,9.039 5.14,2.051 10.86,3.071 17.19,3.141 v -15.148 h -0.06 c -5.43,0 -9.9,-1.864 -13.38,-5.571 -3.47,-3.793 -5.58,-9.332 -6.33,-16.679 m 19.77,-51.27 v 14.457 l 1.64,-0.039 c 2.6,0 5,0.289 7.15,0.891 2.11,0.589 4.22,1.578 6.23,2.879 2.03,1.32 3.89,2.71 5.6,4.191 1.68,1.488 3.95,3.5 6.57,6.039 1.16,0.98 2.81,1.48 4.86,1.48 2.19,0 4,-0.621 5.41,-1.851 1.35,-1.207 2.05,-2.969 2.05,-5.18 0,-1.969 -0.74,-4.25 -2.3,-6.91 -1.57,-2.641 -3.87,-5.18 -6.98,-7.578 -3.13,-2.422 -7.01,-4.399 -11.73,-6.059 -4.71,-1.562 -10.12,-2.343 -16.23,-2.343 l -2.27,0.023 m 0,51.27 h 19.73 c -0.57,7.418 -2.54,13.007 -6,16.679 -3.5,3.688 -8.09,5.571 -13.73,5.571 v 15.148 h 0.68 c 8.48,0 15.77,-1.75 21.86,-5.41 6.07,-3.57 10.68,-8.199 13.71,-13.871 3.01,-5.68 4.57,-11.5 4.57,-17.418 0,-5.442 -1.56,-9.039 -4.71,-10.641 -3.14,-1.64 -7.58,-2.441 -13.26,-2.441 h -22.85 v 12.383" /><path
         id="path48"
         style="fill:#97a925;fill-opacity:1;fill-rule:evenodd;stroke:none"
         d="m 4426.54,340.352 h 19.75 v -12.383 h -19.75 c 0.04,-4.938 1.04,-9.297 2.97,-13.047 1.92,-3.813 4.57,-6.641 7.74,-8.551 2.79,-1.652 5.78,-2.582 9.04,-2.832 v -14.457 c -12.91,0.43 -22.99,4.41 -30.37,11.957 -7.79,7.961 -11.66,18.762 -11.66,32.43 0,6.453 0.97,12.41 2.85,17.961 1.95,5.461 4.73,10.211 8.38,14.14 3.65,3.918 8.22,6.95 13.61,9.039 5.18,2.051 10.92,3.09 17.19,3.141 v -15.148 h -0.08 c -5.39,0 -9.88,-1.864 -13.36,-5.571 -3.47,-3.793 -5.64,-9.332 -6.31,-16.679 m 19.75,-51.27 v 14.457 l 1.64,-0.039 c 2.56,0 4.94,0.289 7.09,0.891 2.15,0.589 4.28,1.578 6.27,2.879 2.05,1.32 3.89,2.71 5.62,4.191 1.72,1.488 3.93,3.5 6.63,6.039 1.11,0.98 2.67,1.48 4.76,1.48 2.21,0 4.04,-0.621 5.49,-1.851 1.29,-1.207 2.01,-2.969 2.01,-5.18 0,-1.969 -0.72,-4.25 -2.3,-6.91 -1.53,-2.641 -3.87,-5.18 -7.02,-7.578 -3.08,-2.422 -6.97,-4.399 -11.71,-6.059 -4.71,-1.562 -10.12,-2.343 -16.23,-2.343 l -2.25,0.023 m 0,51.27 H 4466 c -0.53,7.418 -2.56,13.007 -5.98,16.679 -3.52,3.688 -8.05,5.571 -13.73,5.571 v 15.148 h 0.62 c 8.58,0 15.84,-1.75 21.94,-5.41 6.09,-3.57 10.68,-8.199 13.73,-13.871 3.01,-5.68 4.51,-11.5 4.51,-17.418 0,-5.442 -1.6,-9.039 -4.75,-10.641 -3.1,-1.64 -7.5,-2.441 -13.18,-2.441 h -22.87 v 12.383" /><path
         id="path50"
         style="fill:#97a925;fill-opacity:1;fill-rule:evenodd;stroke:none"
         d="m 4545.23,361.309 c -5.74,-0.137 -10.6,-2.477 -14.6,-7.09 -4.15,-4.707 -6.24,-11.699 -6.24,-20.918 0,-8.629 2.09,-15.371 6.2,-20.18 3.94,-4.699 8.86,-7.082 14.64,-7.262 v -16.39 c -3.69,0.57 -6.95,1.64 -9.74,3.34 -4.24,2.461 -8.26,6.121 -12.14,10.98 V 271.07 c 0,-9.59 -3.45,-14.328 -10.38,-14.328 -4.12,0 -6.82,1.227 -8.18,3.707 -1.35,2.442 -1.96,6.071 -1.96,10.801 v 94.012 c 0,4.129 0.92,7.258 2.68,9.269 1.79,2.051 4.26,3.071 7.46,3.071 3.05,0 5.58,-1.02 7.47,-3.133 2,-2.117 2.91,-5.129 2.91,-9.039 v -2.66 c 4.18,5.039 8.41,8.789 12.82,11.16 2.78,1.461 5.82,2.5 9.06,3.019 z m 20.82,-27.598 c 0,5.758 -0.84,10.711 -2.63,14.809 -1.74,4.14 -4.16,7.32 -7.25,9.472 -3.12,2.238 -6.57,3.317 -10.33,3.317 h -0.61 v 15.64 c 1.87,0.34 3.89,0.492 5.96,0.492 6.68,0 12.81,-1.742 18.5,-5.191 5.64,-3.48 10.08,-8.5 13.34,-15.16 3.25,-6.641 4.9,-14.488 4.9,-23.629 0,-6.68 -0.96,-12.82 -2.83,-18.441 -1.86,-5.598 -4.46,-10.348 -7.78,-14.118 -3.34,-3.793 -7.2,-6.761 -11.66,-8.812 -4.51,-2.031 -9.35,-3.031 -14.47,-3.031 -2.11,0 -4.09,0.121 -5.96,0.41 v 16.39 h 0.61 c 3.63,0 6.91,1.063 10.01,3.18 3.1,2.109 5.6,5.203 7.45,9.441 1.82,4.219 2.75,9.282 2.75,15.231" /><path
         id="path52"
         style="fill:#97a925;fill-opacity:1;fill-rule:evenodd;stroke:none"
         d="m 4616.45,387.73 c -3.07,0 -5.69,0.961 -7.8,2.801 -2.11,1.867 -3.22,4.5 -3.22,7.891 0,3.098 1.11,5.66 3.31,7.648 2.18,2.02 4.76,2.969 7.71,2.969 2.79,0 5.31,-0.879 7.53,-2.687 2.13,-1.84 3.25,-4.481 3.25,-7.93 0,-3.34 -1.08,-5.942 -3.23,-7.852 -2.11,-1.859 -4.64,-2.84 -7.55,-2.84 m 10.78,-22.46 v -62.981 c 0,-4.379 -1.06,-7.668 -3.15,-9.91 -2.07,-2.219 -4.69,-3.32 -7.89,-3.32 -3.22,0 -5.76,1.121 -7.79,3.402 -1.99,2.309 -2.97,5.59 -2.97,9.828 v 62.301 c 0,4.301 0.98,7.582 2.97,9.73 2.03,2.18 4.57,3.282 7.79,3.282 3.2,0 5.82,-1.102 7.89,-3.282 2.09,-2.148 3.15,-5.179 3.15,-9.05" /><path
         id="path54"
         style="fill:#97a925;fill-opacity:1;fill-rule:evenodd;stroke:none"
         d="m 4703.98,299.02 -19.25,31.601 -11.82,-11.191 v -17.321 c 0,-4.199 -1.09,-7.418 -3.26,-9.711 -2.25,-2.238 -4.77,-3.339 -7.62,-3.339 -3.38,0 -6.01,1.101 -7.91,3.32 -1.95,2.25 -2.89,5.531 -2.89,9.91 v 92.871 c 0,4.84 0.88,8.512 2.77,11.051 1.9,2.539 4.52,3.789 8.03,3.789 3.34,0 6,-1.09 7.95,-3.418 1.97,-2.281 2.93,-5.641 2.93,-10.133 V 343.59 l 24.51,25.75 c 3.02,3.18 5.35,5.351 6.9,6.539 1.64,1.152 3.61,1.723 5.88,1.723 2.71,0 4.92,-0.821 6.79,-2.602 1.78,-1.719 2.68,-3.871 2.68,-6.48 0,-3.188 -2.93,-7.481 -8.85,-12.801 l -11.54,-10.578 22.3,-35.121 c 1.72,-2.622 2.89,-4.61 3.56,-5.938 0.74,-1.371 1.09,-2.672 1.09,-3.852 0,-3.468 -0.92,-6.191 -2.85,-8.242 -1.88,-1.929 -4.38,-2.929 -7.44,-2.929 -2.66,0 -4.71,0.691 -6.17,2.113 -1.42,1.449 -3.34,4.098 -5.79,7.848" /><path
         id="path56"
         style="fill:#97a925;fill-opacity:1;fill-rule:evenodd;stroke:none"
         d="m 4757.81,289.059 c -3.26,0 -6.09,1.023 -8.52,3.171 -2.4,2.11 -3.63,5.11 -3.63,8.961 0,3.239 1.2,6.039 3.46,8.379 2.31,2.321 5.14,3.481 8.48,3.481 3.32,0 6.21,-1.16 8.57,-3.461 2.35,-2.32 3.53,-5.078 3.53,-8.399 0,-3.793 -1.18,-6.8 -3.53,-8.921 -2.36,-2.188 -5.15,-3.211 -8.36,-3.211" /><path
         id="path58"
         style="fill:#97a925;fill-opacity:1;fill-rule:evenodd;stroke:none"
         d="m 4872.7,316.02 c 0,-2.739 -0.88,-5.61 -2.49,-8.719 -1.6,-3.102 -4.08,-6.012 -7.38,-8.821 -3.3,-2.8 -7.56,-5.039 -12.56,-6.699 -5.04,-1.722 -10.78,-2.562 -17.11,-2.562 -13.49,0 -23.94,3.922 -31.52,11.761 -7.52,7.809 -11.33,18.34 -11.33,31.52 0,9 1.74,16.871 5.2,23.75 3.4,6.84 8.47,12.152 15,15.879 6.54,3.773 14.35,5.621 23.47,5.621 5.61,0 10.77,-0.801 15.51,-2.461 4.71,-1.66 8.69,-3.73 11.97,-6.398 3.25,-2.559 5.77,-5.371 7.5,-8.321 1.72,-2.968 2.6,-5.711 2.6,-8.269 0,-2.61 -1.01,-4.821 -2.95,-6.641 -1.93,-1.828 -4.27,-2.668 -7.01,-2.668 -1.87,0 -3.38,0.469 -4.55,1.379 -1.19,0.918 -2.54,2.41 -4.02,4.539 -2.66,4 -5.45,7.051 -8.34,9.059 -2.89,2.031 -6.6,3.031 -11.04,3.031 -6.44,0 -11.58,-2.5 -15.56,-7.52 -3.95,-5.039 -5.94,-11.878 -5.94,-20.628 0,-4.102 0.47,-7.872 1.54,-11.332 0.98,-3.379 2.48,-6.309 4.4,-8.75 1.89,-2.372 4.23,-4.25 6.93,-5.5 2.69,-1.231 5.74,-1.86 8.96,-1.86 4.3,0 8.07,1.02 11.18,3.012 3.14,2.047 5.84,5.078 8.28,9.277 1.29,2.442 2.79,4.36 4.35,5.742 1.49,1.36 3.36,2.051 5.61,2.051 2.71,0 4.88,-1.004 6.62,-3.023 1.74,-2.039 2.68,-4.207 2.68,-6.449" /><path
         id="path60"
         style="fill:#97a925;fill-opacity:1;fill-rule:evenodd;stroke:none"
         d="m 4929.82,361.5 -0.13,0.02 c -4.22,0 -7.99,-1.11 -11.25,-3.321 -3.21,-2.238 -5.73,-5.488 -7.52,-9.758 -1.73,-4.359 -2.6,-9.402 -2.6,-15.14 0,-5.68 0.86,-10.66 2.6,-14.91 1.72,-4.25 4.2,-7.489 7.42,-9.762 3.22,-2.258 7.01,-3.359 11.35,-3.359 h 0.13 v -16.211 h -0.13 c -6.55,0 -12.5,1.023 -17.81,3.171 -5.22,2.11 -9.76,5.168 -13.66,9.141 -3.84,3.961 -6.79,8.649 -8.71,14.059 -2.05,5.39 -3.06,11.351 -3.06,17.871 0,6.621 1.01,12.66 3.12,18.16 1.95,5.449 4.82,10.16 8.63,14.008 3.77,3.89 8.36,6.871 13.68,9 5.42,2.113 11.32,3.133 17.81,3.133 h 0.13 z m 21.53,-28.199 c 0,8.89 -1.99,15.82 -5.88,20.758 -3.85,4.921 -9.06,7.402 -15.65,7.441 v 16.102 c 6.61,-0.02 12.5,-1.122 17.84,-3.172 5.37,-2.129 9.98,-5.149 13.82,-9.098 3.85,-3.961 6.72,-8.633 8.72,-14.062 2.01,-5.43 3,-11.411 3,-17.969 0,-6.442 -0.99,-12.461 -3,-17.871 -2.07,-5.551 -5.04,-10.25 -8.83,-14.16 -3.79,-3.93 -8.4,-6.969 -13.71,-9.098 -5.28,-2.09 -11.23,-3.113 -17.84,-3.113 v 16.211 c 6.59,0.039 11.8,2.48 15.65,7.46 3.89,4.969 5.88,11.84 5.88,20.571" /><path
         id="path62"
         style="fill:#97a925;fill-opacity:1;fill-rule:evenodd;stroke:none"
         d="m 5062.83,331.719 v -28.93 c 0,-4.57 -1.05,-8.019 -3.14,-10.328 -2.05,-2.281 -4.85,-3.402 -8.24,-3.402 -3.29,0 -5.92,1.121 -7.99,3.402 -2.05,2.309 -3.07,5.758 -3.07,10.328 V 337.5 c 0,5.492 -0.21,9.672 -0.59,12.73 -0.35,3.051 -1.36,5.532 -3.02,7.45 -1.64,1.992 -4.24,2.89 -7.83,2.89 -7.09,0 -11.78,-2.398 -14.01,-7.289 -2.28,-4.902 -3.42,-11.91 -3.42,-21.07 v -29.422 c 0,-4.551 -1.05,-7.949 -3.08,-10.269 -2.03,-2.321 -4.75,-3.461 -8.11,-3.461 -3.28,0 -5.99,1.14 -8.12,3.461 -2.09,2.32 -3.13,5.718 -3.13,10.269 v 62.313 c 0,4.078 0.94,7.199 2.83,9.328 1.92,2.082 4.38,3.172 7.43,3.172 3,0 5.5,-1 7.48,-2.993 2.03,-1.968 3,-4.75 3,-8.257 v -2.051 c 3.77,4.469 7.8,7.828 12.11,9.961 4.36,2.109 9.11,3.179 14.4,3.179 5.45,0 10.17,-1.07 14.1,-3.261 3.93,-2.168 7.21,-5.489 9.73,-9.879 3.71,4.449 7.63,7.789 11.85,9.941 4.18,2.129 8.85,3.199 13.97,3.199 5.93,0 11.07,-1.171 15.39,-3.48 4.29,-2.402 7.5,-5.723 9.58,-10.031 1.92,-3.969 2.86,-10.2 2.86,-18.641 v -42.5 c 0,-4.57 -1.11,-8.019 -3.17,-10.328 -2.03,-2.281 -4.72,-3.402 -8.18,-3.402 -3.26,0 -5.98,1.14 -8.08,3.461 -2.11,2.32 -3.15,5.718 -3.15,10.269 v 36.633 c 0,4.617 -0.21,8.387 -0.62,11.258 -0.41,2.8 -1.45,5.16 -3.25,7.05 -1.73,1.942 -4.39,2.84 -7.98,2.84 -2.86,0 -5.53,-0.82 -8.13,-2.5 -2.56,-1.699 -4.57,-4.011 -6.07,-6.898 -1.59,-3.652 -2.35,-10.121 -2.35,-19.453" /><path
         id="path64"
         style="fill:#97a925;fill-opacity:1;fill-rule:evenodd;stroke:none"
         d="m 4015.9,433.77 c -0.47,1.429 -0.94,2.789 -1.39,4.179 7.31,0.68 12.23,9.449 8.65,15.942 -1.71,3.879 -5.76,5.968 -9.74,6.05 h -0.47 c -3.42,-0.062 -6.74,-1.519 -8.69,-4.57 -4.65,-5.883 -1.04,-15.289 6.11,-17.211 0.43,-1.461 0.86,-2.961 1.31,-4.531 -10.99,-0.719 -22.17,-3.137 -31.37,-9.41 0.96,-2.617 1.92,-5.309 2.86,-8.028 18.57,8.188 39.37,6.43 58.94,4.457 0.66,2.571 1.31,5.172 1.97,7.754 -8.85,3.977 -18.55,5.45 -28.18,5.368" /><path
         id="path66"
         style="fill:#97a925;fill-opacity:1;fill-rule:evenodd;stroke:none"
         d="m 4126.27,403.809 c -2.89,-1.489 -3.48,-5.039 -3.26,-7.969 -3.3,-3.199 -1.74,-7.988 -2.09,-11.969 -0.76,-2.23 -3.44,-2.48 -5.27,-3.301 -2.56,3.871 -5.32,7.629 -8.75,10.821 v 0.191 c -3.72,3.5 -7.76,6.719 -12.06,9.469 -3.39,-3.692 -7.03,-7.321 -10.31,-11.129 6.53,-7.16 12.58,-14.902 17.91,-23 3.69,-6.203 6.66,-12.801 9.18,-19.524 5.55,2.832 11,5.801 16.52,8.711 -2.91,6.723 -6.24,13.282 -9.76,19.77 2.42,1.293 5.7,2.562 6.09,5.762 0.28,3.519 -0.5,7.339 1.59,10.429 4.27,-2.789 10.76,0.328 10.82,5.551 0.56,5.371 -6.2,9.199 -10.61,6.188" /><path
         id="path68"
         style="fill:#97a925;fill-opacity:1;fill-rule:evenodd;stroke:none"
         d="m 3976.95,407.641 v -19.77 c -5.02,0.02 -10,-1.152 -14.45,-3.512 -9.2,-4.949 -15.71,-14.73 -16.14,-25.218 -0.6,-8.403 2.74,-16.743 8.32,-22.961 5.65,-6.2 13.97,-9.461 22.27,-9.461 v -26.66 c -19.47,0.98 -38.65,5.191 -57.54,9.921 -3.48,17.481 -3.57,36.411 4.13,52.86 7.94,18.25 23.62,32.43 41.73,40.379 3.83,1.66 7.72,3.133 11.68,4.422 m 87.03,-64.52 h -0.07 c -5.28,-0.422 -10.39,2.09 -13.99,5.828 -2.63,3.223 -4.76,6.93 -5.12,11.133 -1.25,9.117 5.2,18.527 14.11,20.656 1.66,0.512 3.36,0.692 5.07,0.653 v 20.781 c -11.01,7.687 -24.18,12.578 -37.67,12.5 -16.66,0.187 -33.5,-1.922 -49.36,-7.031 v -19.77 c 2.95,0 5.88,-0.41 8.71,-1.211 3.18,-0.82 6.13,-2.301 8.89,-4.14 5.65,-4 9.94,-9.938 11.8,-16.661 2.63,-8.589 0.95,-18.238 -4.05,-25.66 -3.61,-5.238 -8.76,-9.32 -14.73,-11.609 -3.35,-1.27 -7.01,-1.871 -10.62,-1.871 v -26.66 l 0.86,-0.059 c 19.43,-0.59 39.07,-1.07 58.44,1.66 9.32,1.211 18.63,3.07 27.73,5.512 z m 19.01,16.02 c -1.27,-8.961 -9.85,-16.559 -19.01,-16.02 v -35.949 c 16.84,4.508 33.11,11.168 48.15,19.98 0,0 -3.2,17.5 -15.68,36.598 -7.21,11.93 -14.97,23.809 -25.55,33.012 -2.17,1.918 -4.53,3.707 -6.92,5.41 v -20.781 c 2.33,-0.082 4.63,-0.489 6.86,-1.02 8.4,-2.992 13.89,-12.5 12.15,-21.23" /><path
         id="path70"
         style="fill:#97a925;fill-opacity:1;fill-rule:evenodd;stroke:none"
         d="m 3923.75,390.41 c -7.77,-4.711 -14.16,-11.328 -19.51,-18.609 -1.56,2.89 -2.03,6.34 -4.04,8.918 -1.2,1.57 -3.27,0.922 -4.87,0.941 -2.07,-0.211 -4.08,0.352 -6.01,0.942 2.28,3.218 1.66,8.097 -1.84,10.187 -3.71,2.703 -9.47,0.352 -10.45,-4.078 -1.58,-4.84 3.6,-9.711 8.36,-8.441 2.52,-3.77 7.09,-3.141 11,-3.258 1.72,-3.051 3.04,-6.391 5.31,-9.141 -4.18,-8.199 -6.52,-17.422 -6.7,-26.66 5.33,-2.231 10.66,-4.531 16.07,-6.762 0.26,5.86 0.94,11.621 1.82,17.332 1.8,12.52 9,23.379 17.62,32.34 -2.15,2.231 -4.51,4.16 -6.76,6.289" /><path
         id="path72"
         style="fill:#97a925;fill-opacity:1;fill-rule:evenodd;stroke:none"
         d="m 4048.95,296.172 c -19.73,-4.313 -40.1,-5.563 -60.25,-4.692 -13.67,0.711 -27.29,1.961 -40.61,4.911 -9.46,1.929 -18.71,4.66 -28.04,7.32 1.49,-11.871 6.29,-23.219 13.17,-32.992 8.06,-11.418 18.88,-21.828 32.39,-26.028 9.8,-2.64 21.47,-6.019 40.63,-6.101 h 1.96 l 1.98,0.039 c 17.83,0.301 35.39,2.582 51.03,9.242 10.08,4.32 19.59,10.25 27.7,17.66 7.03,6.621 12.52,14.86 16.36,23.781 3.66,8.329 6.96,23.418 6.62,31.098 -19.33,-11 -40.93,-20.551 -62.94,-24.238" /><path
         id="path74"
         style="fill:#361b16;fill-opacity:1;fill-rule:nonzero;stroke:none"
         d="m 2026.82,5119.92 h 151.891 v 421.07 H 2026.82 Z" /><path
         id="path76"
         style="fill:#4c2227;fill-opacity:1;fill-rule:nonzero;stroke:none"
         d="m 2026.82,5119.92 h 77.668 v 421.07 h -77.668 z" /><path
         id="path78"
         style="fill:#b3d133;fill-opacity:1;fill-rule:nonzero;stroke:none"
         d="m 1445.6,6185.6 c 0,-381.1 292.73,-658.13 646.04,-658.13 353.37,0 633.43,277.03 633.43,658.13 0,381.04 -292.65,1018.92 -646.03,1018.92 -353.41,0 -633.44,-637.88 -633.44,-1018.92" /><path
         id="path80"
         style="fill:#8ab526;fill-opacity:1;fill-rule:nonzero;stroke:none"
         d="m 2079.03,7204.52 c 8.59,0 16.94,-0.68 25.38,-1.43 V 5528.11 c -4.43,-0.21 -8.44,-0.64 -12.77,-0.64 -353.31,0 -646.05,277.03 -646.05,658.13 0,381.03 280.05,1018.92 633.44,1018.92" /><path
         id="path82"
         style="fill:#b3d133;fill-opacity:1;fill-rule:nonzero;stroke:none"
         d="m 2839.41,3955.36 c 0,-364.55 -295.53,-660.09 -660.09,-660.09 -364.55,0 -660.09,295.54 -660.09,660.09 0,364.56 295.54,660.09 660.09,660.09 364.56,0 660.09,-295.53 660.09,-660.09" /><path
         id="path84"
         style="fill:#a2bf2a;fill-opacity:1;fill-rule:nonzero;stroke:none"
         d="m 2567.21,4037.02 c 0,-274.36 -222.42,-496.77 -496.76,-496.77 -274.36,0 -496.77,222.41 -496.77,496.77 0,274.36 222.41,496.77 496.77,496.77 274.34,0 496.76,-222.41 496.76,-496.77" /><path
         id="path86"
         style="fill:#8ab526;fill-opacity:1;fill-rule:nonzero;stroke:none"
         d="m 2591.41,4091.8 c 0,-81.96 -66.44,-148.41 -148.4,-148.41 -81.97,0 -148.41,66.45 -148.41,148.41 0,81.95 66.44,148.4 148.41,148.4 81.96,0 148.4,-66.45 148.4,-148.4" /><path
         id="path88"
         style="fill:#8ab526;fill-opacity:1;fill-rule:nonzero;stroke:none"
         d="m 2672.49,3843.78 c 0,-60.9 -49.36,-110.25 -110.24,-110.25 -60.89,0 -110.25,49.35 -110.25,110.25 0,60.88 49.36,110.24 110.25,110.24 60.88,0 110.24,-49.36 110.24,-110.24" /><path
         id="path90"
         style="fill:#8ab526;fill-opacity:1;fill-rule:nonzero;stroke:none"
         d="m 2600.95,3595.76 c 0,-60.89 -49.36,-110.24 -110.24,-110.24 -60.89,0 -110.25,49.35 -110.25,110.24 0,60.89 49.36,110.26 110.25,110.26 60.88,0 110.24,-49.37 110.24,-110.26" /><path
         id="path92"
         style="fill:#8ab526;fill-opacity:1;fill-rule:nonzero;stroke:none"
         d="m 1980.92,3753.15 c 0,-60.88 -49.36,-110.24 -110.24,-110.24 -60.89,0 -110.25,49.36 -110.25,110.24 0,60.89 49.36,110.25 110.25,110.25 60.88,0 110.24,-49.36 110.24,-110.25" /><path
         id="path94"
         style="fill:#8ab526;fill-opacity:1;fill-rule:nonzero;stroke:none"
         d="m 1995.23,3996.4 c 0,-60.88 -49.36,-110.24 -110.23,-110.24 -60.9,0 -110.25,49.36 -110.25,110.24 0,60.89 49.35,110.25 110.25,110.25 60.87,0 110.23,-49.36 110.23,-110.25" /><path
         id="path96"
         style="fill:#8ab526;fill-opacity:1;fill-rule:nonzero;stroke:none"
         d="m 2252.78,4249.17 c 0,-60.88 -49.36,-110.23 -110.24,-110.23 -60.88,0 -110.25,49.35 -110.25,110.23 0,60.9 49.37,110.25 110.25,110.25 60.88,0 110.24,-49.35 110.24,-110.25" /><path
         id="path98"
         style="fill:#361b16;fill-opacity:1;fill-rule:nonzero;stroke:none"
         d="m 2444.52,3802.14 129.79,-21.4 -101.26,39.92 152.59,88.44 -451.47,-155.98 -9.59,142.04 338.42,163.7 -149.76,-39.95 -2.85,74.17 -12.83,-78.44 -176.68,-64.6 -20.14,298.5 -31.78,-371.09 -167.89,77.29 -9.98,71.31 -4.29,-67.03 -115.52,44.21 293.13,-178.91 -18.86,-220.3 -163.02,88.29 -34.24,132.64 v -115.52 l -106.96,38.5 299.15,-203.12 -64.41,-692.84 218.8,1.73 -38.06,563.89 354.68,189.15 -89.85,-24.61 -4.28,88.8 -17.12,-94.14 -248.17,-88.9 -11.44,169.45 263.89,144.8" /><path
         id="path100"
         style="fill:#8ab526;fill-opacity:1;fill-rule:nonzero;stroke:none"
         d="m 5581.67,7026.36 c 0,0 -42.07,-84.88 -21.31,-140.69 20.74,-55.84 87.92,-75.47 87.92,-75.47 0,0 24.3,80.35 8.99,124.83 -15.32,44.49 -75.6,91.33 -75.6,91.33" /><path
         id="path102"
         style="fill:#b3d133;fill-opacity:1;fill-rule:nonzero;stroke:none"
         d="m 5601.46,6947.29 c 0,0 -23.38,-47.18 -11.85,-78.25 11.53,-31.04 48.88,-41.95 48.88,-41.95 0,0 13.51,44.7 5.01,69.41 -8.52,24.74 -42.04,50.79 -42.04,50.79" /><path
         id="path104"
         style="fill:#8ab526;fill-opacity:1;fill-rule:nonzero;stroke:none"
         d="m 5381.49,6832.57 c 0,0 55.78,-76.58 114.87,-84.03 59.08,-7.45 107.59,43.01 107.59,43.01 0,0 -59.98,58.73 -106.49,65.76 -46.54,7.01 -115.97,-24.74 -115.97,-24.74" /><path
         id="path106"
         style="fill:#b3d133;fill-opacity:1;fill-rule:nonzero;stroke:none"
         d="m 5460.75,6813.51 c 0,0 31.01,-42.57 63.86,-46.73 32.86,-4.14 59.83,23.9 59.83,23.9 0,0 -33.35,32.66 -59.21,36.58 -25.86,3.9 -64.48,-13.75 -64.48,-13.75" /><path
         id="path108"
         style="fill:#8ab526;fill-opacity:1;fill-rule:nonzero;stroke:none"
         d="m 5705.21,6656.95 c 0,0 -66.82,-11.84 -90.19,-47.53 -23.36,-35.69 -6.12,-82.76 -6.12,-82.76 0,0 56.64,20.14 75.79,47.89 19.13,27.73 20.52,82.4 20.52,82.4" /><path
         id="path110"
         style="fill:#b3d133;fill-opacity:1;fill-rule:nonzero;stroke:none"
         d="m 5668.02,6611.92 c 0,0 -37.15,-6.57 -50.14,-26.41 -12.98,-19.85 -3.4,-46.01 -3.4,-46.01 0,0 31.51,11.18 42.12,26.6 10.65,15.43 11.42,45.82 11.42,45.82" /><path
         id="path112"
         style="fill:#8ab526;fill-opacity:1;fill-rule:nonzero;stroke:none"
         d="m 5479.61,6696.05 c 0,0 -17.88,-65.44 4.37,-101.83 22.27,-36.39 72.2,-40.94 72.2,-40.94 0,0 6.02,59.81 -10.87,88.98 -16.86,29.16 -65.7,53.79 -65.7,53.79" /><path
         id="path114"
         style="fill:#b3d133;fill-opacity:1;fill-rule:nonzero;stroke:none"
         d="m 5504.41,6643.2 c 0,0 -9.96,-36.4 2.43,-56.63 12.36,-20.24 40.12,-22.75 40.12,-22.75 0,0 3.36,33.25 -6.02,49.45 -9.39,16.22 -36.53,29.93 -36.53,29.93" /><path
         id="path116"
         style="fill:#8ab526;fill-opacity:1;fill-rule:nonzero;stroke:none"
         d="m 5275.56,6616.85 c 0,0 23.37,-80.21 70.15,-104.09 46.81,-23.86 102.15,3.5 102.15,3.5 0,0 -32.18,66.66 -68.69,86.42 -36.48,19.75 -103.61,14.17 -103.61,14.17" /><path
         id="path118"
         style="fill:#b3d133;fill-opacity:1;fill-rule:nonzero;stroke:none"
         d="m 5335.63,6577.32 c 0,0 12.97,-44.61 38.98,-57.89 26.03,-13.26 56.8,1.99 56.8,1.99 0,0 -17.89,37.06 -38.19,48 -20.3,11 -57.59,7.9 -57.59,7.9" /><path
         id="path120"
         style="fill:#8ab526;fill-opacity:1;fill-rule:nonzero;stroke:none"
         d="m 5233.86,6417.76 c 0,0 78.2,-46.61 133.25,-30.89 55.07,15.73 78.87,78.66 78.87,78.66 0,0 -75.18,29.26 -118.97,17.9 -43.78,-11.36 -93.15,-65.67 -93.15,-65.67" /><path
         id="path122"
         style="fill:#b3d133;fill-opacity:1;fill-rule:nonzero;stroke:none"
         d="m 5311.12,6430.86 c 0,0 43.48,-25.95 74.09,-17.21 30.62,8.76 43.82,43.76 43.82,43.76 0,0 -41.79,16.28 -66.1,9.94 -24.36,-6.31 -51.81,-36.49 -51.81,-36.49" /><path
         id="path124"
         style="fill:#8ab526;fill-opacity:1;fill-rule:nonzero;stroke:none"
         d="m 6005.1,7072.5 c 0,0 -92.33,14.83 -138.88,-21.06 -46.56,-35.88 -45.41,-104.96 -45.41,-104.96 0,0 82.85,0.61 120.32,28.03 37.43,27.48 63.97,97.99 63.97,97.99" /><path
         id="path126"
         style="fill:#b3d133;fill-opacity:1;fill-rule:nonzero;stroke:none"
         d="m 5936.36,7030.72 c 0,0 -51.35,8.26 -77.24,-11.7 -25.9,-19.98 -25.25,-58.36 -25.25,-58.36 0,0 46.07,0.31 66.89,15.56 20.82,15.3 35.6,54.5 35.6,54.5" /><path
         id="path128"
         style="fill:#8ab526;fill-opacity:1;fill-rule:nonzero;stroke:none"
         d="m 5763.84,7204.52 c 0,0 -55.87,-74.97 -45.62,-132.86 10.28,-57.88 72.03,-88.85 72.03,-88.85 0,0 37.81,73.73 30.82,119.63 -6.97,45.92 -57.23,102.08 -57.23,102.08" /><path
         id="path130"
         style="fill:#b3d133;fill-opacity:1;fill-rule:nonzero;stroke:none"
         d="m 5769.05,7124.23 c 0,0 -31.07,-41.68 -25.36,-73.87 5.71,-32.18 40.05,-49.41 40.05,-49.41 0,0 21.05,41 17.15,66.51 -3.88,25.52 -31.84,56.77 -31.84,56.77" /><path
         id="path132"
         style="fill:#8ab526;fill-opacity:1;fill-rule:nonzero;stroke:none"
         d="m 6220.45,6558.39 c 0,0 -65.17,18.92 -101.9,-2.77 -36.73,-21.68 -42.09,-71.54 -42.09,-71.54 0,0 59.71,-6.96 89.16,9.46 29.42,16.42 54.83,64.85 54.83,64.85" /><path
         id="path134"
         style="fill:#b3d133;fill-opacity:1;fill-rule:nonzero;stroke:none"
         d="m 6167.2,6534.42 c 0,0 -36.22,10.54 -56.66,-1.52 -20.42,-12.07 -23.38,-39.76 -23.38,-39.76 0,0 33.2,-3.9 49.55,5.24 16.36,9.13 30.49,36.04 30.49,36.04" /><path
         id="path136"
         style="fill:#8ab526;fill-opacity:1;fill-rule:nonzero;stroke:none"
         d="m 6258.95,6386.81 c 0,0 -33.56,58.96 -75.03,69 -41.46,10.04 -80.03,-22 -80.03,-22 0,0 37.99,-46.59 70.54,-55.33 32.54,-8.71 84.52,8.33 84.52,8.33" /><path
         id="path138"
         style="fill:#b3d133;fill-opacity:1;fill-rule:nonzero;stroke:none"
         d="m 6204.05,6406.71 c 0,0 -18.63,32.8 -41.7,38.37 -23.07,5.59 -44.48,-12.23 -44.48,-12.23 0,0 21.1,-25.92 39.21,-30.75 18.09,-4.86 46.97,4.61 46.97,4.61" /><path
         id="path140"
         style="fill:#8ab526;fill-opacity:1;fill-rule:nonzero;stroke:none"
         d="m 6343.33,6727.19 c 0,0 -95.88,33.54 -152.52,4.09 -56.68,-29.46 -68.67,-103.55 -68.67,-103.55 0,0 88.7,-15.23 134.02,6.94 45.29,22.15 87.17,92.52 87.17,92.52" /><path
         id="path142"
         style="fill:#b3d133;fill-opacity:1;fill-rule:nonzero;stroke:none"
         d="m 6261.81,6695.66 c 0,0 -53.29,18.68 -84.82,2.29 -31.51,-16.38 -38.16,-57.56 -38.16,-57.56 0,0 49.31,-8.49 74.49,3.84 25.21,12.35 48.49,51.43 48.49,51.43" /><path
         id="path144"
         style="fill:#8ab526;fill-opacity:1;fill-rule:nonzero;stroke:none"
         d="m 6146.69,6889.35 c 0,0 -81.64,-17.72 -108.69,-62.73 -27.07,-45.03 -3.62,-102.14 -3.62,-102.14 0,0 68.74,27.46 90.97,62.51 22.24,35.02 21.34,102.36 21.34,102.36" /><path
         id="path146"
         style="fill:#b3d133;fill-opacity:1;fill-rule:nonzero;stroke:none"
         d="m 6103.1,6832.18 c 0,0 -45.41,-9.83 -60.46,-34.88 -15.05,-25.02 -2,-56.77 -2,-56.77 0,0 38.23,15.28 50.57,34.74 12.36,19.49 11.89,56.91 11.89,56.91" /><path
         id="path148"
         style="fill:#8ab526;fill-opacity:1;fill-rule:nonzero;stroke:none"
         d="m 5951.01,6944.8 c 0,0 -51.96,-74.76 -40.09,-130.78 11.86,-56.03 72.98,-84.15 72.98,-84.15 0,0 34.39,72.96 26.12,117.43 -8.29,44.46 -59.01,97.5 -59.01,97.5" /><path
         id="path150"
         style="fill:#b3d133;fill-opacity:1;fill-rule:nonzero;stroke:none"
         d="m 5958.7,6866.82 c 0,0 -28.91,-41.56 -22.33,-72.71 6.61,-31.16 40.6,-46.78 40.6,-46.78 0,0 19.15,40.58 14.52,65.29 -4.61,24.7 -32.79,54.2 -32.79,54.2" /><path
         id="path152"
         style="fill:#361b16;fill-opacity:1;fill-rule:nonzero;stroke:none"
         d="m 6293.34,6107 c -4.94,8.14 -7.72,17.6 -8.33,27.24 l -177.25,-51.67 63.09,164.65 h -17.05 l -71.81,-164.96 -248.18,-84.1 -10.78,365.82 74.62,69 179.55,2.47 8.34,16.67 h -167.2 l 169.34,156.59 -5.69,25.62 -114.62,-100.63 45.93,176.82 -13.91,-5.56 -60.58,-196.33 -112.93,-99.13 -25.62,549.23 h -25.6 l -2.84,-281.73 -136.61,125.23 -25.61,-2.84 156.51,-153.68 -10.78,-360.52 -154.26,127.16 -14.23,122.39 -11.39,19.9 v -125.21 l -105.28,68.3 -28.46,2.85 313.62,-252.57 -2.06,-169.34 -311.56,145.87 -42.7,102.44 -22.75,5.69 39.84,-99.59 -165.05,51.21 2.84,-11.38 293.1,-139.43 -162.19,-11.39 19.92,-17.07 176.41,8.53 169.5,-93.43 -4.75,-757.37 106.51,0.23 -11.36,689 452.31,155.02" /><path
         id="path154"
         style="fill:#8ab526;fill-opacity:1;fill-rule:nonzero;stroke:none"
         d="m 5170.32,6169.21 c 0,0 49.5,-67.3 101.64,-73.65 52.14,-6.34 94.73,38.38 94.73,38.38 0,0 -53.12,51.54 -94.19,57.55 -41.04,6.02 -102.18,-22.28 -102.18,-22.28" /><path
         id="path156"
         style="fill:#b3d133;fill-opacity:1;fill-rule:nonzero;stroke:none"
         d="m 5240.3,6152.72 c 0,0 27.52,-37.44 56.52,-40.95 29,-3.54 52.65,21.34 52.65,21.34 0,0 -29.54,28.67 -52.34,31.99 -22.85,3.35 -56.83,-12.38 -56.83,-12.38" /><path
         id="path158"
         style="fill:#8ab526;fill-opacity:1;fill-rule:nonzero;stroke:none"
         d="m 5199.54,5967.93 c 0,0 89.46,-16.93 135.76,16.74 46.3,33.69 47.05,100.97 47.05,100.97 0,0 -80.65,1.65 -117.87,-24.05 -37.21,-25.7 -64.94,-93.66 -64.94,-93.66" /><path
         id="path160"
         style="fill:#b3d133;fill-opacity:1;fill-rule:nonzero;stroke:none"
         d="m 5267.59,6006.76 c 0,0 49.75,-9.44 75.5,9.29 25.75,18.73 26.13,56.14 26.13,56.14 0,0 -44.83,0.94 -65.5,-13.36 -20.68,-14.31 -36.13,-52.07 -36.13,-52.07" /><path
         id="path162"
         style="fill:#8ab526;fill-opacity:1;fill-rule:nonzero;stroke:none"
         d="m 5047.74,6395.48 c 0,0 23.35,-88 73.72,-115.22 50.38,-27.24 111.39,1.14 111.39,1.14 0,0 -33.34,73.47 -72.59,95.94 -39.26,22.46 -112.52,18.14 -112.52,18.14" /><path
         id="path164"
         style="fill:#b3d133;fill-opacity:1;fill-rule:nonzero;stroke:none"
         d="m 5112.15,6350.85 c 0,0 12.98,-48.94 40.98,-64.08 28,-15.14 61.91,0.67 61.91,0.67 0,0 -18.52,40.85 -40.32,53.32 -21.84,12.48 -62.57,10.09 -62.57,10.09" /><path
         id="path166"
         style="fill:#8ab526;fill-opacity:1;fill-rule:nonzero;stroke:none"
         d="m 6055.65,6391.95 c 0,0 -18.09,-65.39 4.05,-101.84 22.13,-36.48 72.03,-41.22 72.03,-41.22 0,0 6.25,59.81 -10.54,89.04 -16.79,29.22 -65.54,54.02 -65.54,54.02" /><path
         id="path168"
         style="fill:#b3d133;fill-opacity:1;fill-rule:nonzero;stroke:none"
         d="m 6080.29,6339 c 0,0 -10.08,-36.35 2.22,-56.63 12.3,-20.28 40.05,-22.9 40.05,-22.9 0,0 3.48,33.25 -5.85,49.5 -9.33,16.22 -36.42,30.03 -36.42,30.03" /><path
         id="path170"
         style="fill:#8ab526;fill-opacity:1;fill-rule:nonzero;stroke:none"
         d="m 6613.65,6148.03 c 0,0 -79.01,77.88 -148.71,75.25 -69.7,-2.62 -116.16,-70.18 -116.16,-70.18 0,0 80.5,-56.47 135.59,-55.74 55.05,0.73 129.28,50.67 129.28,50.67" /><path
         id="path172"
         style="fill:#b3d133;fill-opacity:1;fill-rule:nonzero;stroke:none"
         d="m 6518.42,6154.97 c 0,0 -43.9,43.33 -82.67,41.85 -38.8,-1.45 -64.57,-39.03 -64.57,-39.03 0,0 44.74,-31.39 75.33,-30.99 30.68,0.44 71.91,28.17 71.91,28.17" /><path
         id="path174"
         style="fill:#8ab526;fill-opacity:1;fill-rule:nonzero;stroke:none"
         d="m 6385.1,6337.52 c 0,0 -81.78,-33.62 -101.61,-85.54 -19.86,-51.93 15.14,-107.07 15.14,-107.07 0,0 66.56,41.35 83.22,81.99 16.67,40.63 3.25,110.62 3.25,110.62" /><path
         id="path176"
         style="fill:#b3d133;fill-opacity:1;fill-rule:nonzero;stroke:none"
         d="m 6350.26,6269.86 c 0,0 -45.47,-18.67 -56.5,-47.54 -11.03,-28.9 8.42,-59.54 8.42,-59.54 0,0 37.04,23.01 46.28,45.6 9.26,22.55 1.8,61.48 1.8,61.48" /><path
         id="path178"
         style="fill:#8ab526;fill-opacity:1;fill-rule:nonzero;stroke:none"
         d="m 5903.53,6183.77 c 0,0 72.26,-42.92 123.04,-28.32 50.8,14.61 72.69,72.75 72.69,72.75 0,0 -69.47,26.88 -109.86,16.32 -40.39,-10.55 -85.87,-60.75 -85.87,-60.75" /><path
         id="path180"
         style="fill:#b3d133;fill-opacity:1;fill-rule:nonzero;stroke:none"
         d="m 5974.8,6195.99 c 0,0 40.2,-23.89 68.43,-15.76 28.25,8.12 40.38,40.45 40.38,40.45 0,0 -38.59,14.96 -61.04,9.07 -22.45,-5.88 -47.77,-33.76 -47.77,-33.76" /><path
         id="path182"
         style="fill:#8ab526;fill-opacity:1;fill-rule:nonzero;stroke:none"
         d="m 5487.44,6418.54 c 0,0 -50.52,-67.15 -41.54,-119.22 9,-52.09 64.41,-80.17 64.41,-80.17 0,0 34.27,66.11 28.17,107.42 -6.1,41.3 -51.04,91.97 -51.04,91.97" /><path
         id="path184"
         style="fill:#b3d133;fill-opacity:1;fill-rule:nonzero;stroke:none"
         d="m 5491.83,6346.36 c 0,0 -28.14,-37.35 -23.12,-66.31 5,-28.95 35.82,-44.54 35.82,-44.54 0,0 19.07,36.75 15.67,59.69 -3.41,22.96 -28.37,51.16 -28.37,51.16" /><path
         id="path186"
         style="fill:#8ab526;fill-opacity:1;fill-rule:nonzero;stroke:none"
         d="m 5578.51,5944.84 c 0,0 -15.23,82.66 -59.63,111.3 -44.44,28.65 -102.61,6.89 -102.61,6.89 0,0 25.46,-69.99 59.98,-93.46 34.51,-23.48 102.26,-24.73 102.26,-24.73" /><path
         id="path188"
         style="fill:#b3d133;fill-opacity:1;fill-rule:nonzero;stroke:none"
         d="m 5522.41,5990.5 c 0,0 -8.44,45.97 -33.15,61.9 -24.69,15.93 -57.02,3.8 -57.02,3.8 0,0 14.12,-38.91 33.31,-51.95 19.21,-13.04 56.86,-13.75 56.86,-13.75" /><path
         id="path190"
         style="fill:#8ab526;fill-opacity:1;fill-rule:nonzero;stroke:none"
         d="m 6483.02,5972.9 c 0,0 -15.21,82.66 -59.62,111.31 -44.44,28.65 -102.61,6.88 -102.61,6.88 0,0 25.46,-69.99 59.98,-93.47 34.52,-23.47 102.25,-24.72 102.25,-24.72" /><path
         id="path192"
         style="fill:#b3d133;fill-opacity:1;fill-rule:nonzero;stroke:none"
         d="m 6426.92,6018.56 c 0,0 -8.43,45.97 -33.14,61.89 -24.7,15.93 -57.04,3.8 -57.04,3.8 0,0 14.14,-38.91 33.32,-51.94 19.23,-13.04 56.86,-13.75 56.86,-13.75" /><path
         id="path194"
         style="fill:#b3d133;fill-opacity:1;fill-rule:nonzero;stroke:none"
         d="m 4073.82,5027.31 c 0,0 -541.7,-1007.15 -554.6,-1371.2 -12.9,-364.02 233.89,-623.06 846.33,-424.69 636.9,206.29 -291.73,1795.89 -291.73,1795.89" /><path
         id="path196"
         style="fill:#8ab526;fill-opacity:1;fill-rule:nonzero;stroke:none"
         d="m 4295.75,4678.15 c 0,0 -649.56,-746.97 -731.64,-1048.69 -82.06,-301.69 73.24,-560.74 623.43,-501.32 572.17,61.82 108.21,1550.01 108.21,1550.01" /><path
         id="path198"
         style="fill:#361b16;fill-opacity:1;fill-rule:nonzero;stroke:none"
         d="m 4265.54,3556.97 -195.62,-131.42 v 297.96 l 62.74,47.58 143.2,-55.13 11.99,31.11 -123.94,47.72 98.69,74.88 -20.14,26.58 -172.54,-130.88 v 335.79 h -46.54 v -163.45 l -105.78,82.92 -20.6,-26.25 126.38,-99.05 v -333.36 l -101.79,53.58 -14.9,148.21 -33.2,-3.35 12.71,-126.25 -107.67,56.65 -15.54,-29.52 260.39,-137 v -240.14 l -173.59,91.33 -15.52,-29.53 189.11,-99.49 v -394.49 h 46.54 v 533.39 l 214.22,143.94 -18.6,27.67" /><path
         id="path200"
         style="fill:#b3d133;fill-opacity:1;fill-rule:nonzero;stroke:none"
         d="m 5915.08,3866.08 c -96.2,-295.13 -489.67,-409.03 -758.88,-295.13 -196.75,82.83 -362.41,352.05 -258.87,548.79 103.55,196.72 310.63,331.34 528.08,352.04 279.57,10.35 548.79,-238.14 510.53,-514.32 -3.31,-30.11 -10.03,-60.31 -20.86,-91.38" /><path
         id="path202"
         style="fill:#361b16;fill-opacity:1;fill-rule:nonzero;stroke:none"
         d="m 5734.8,3682.56 c -1.42,-3.52 -36.15,-85.8 -142.45,-61.04 -21.85,5.1 -39.08,13.47 -52.7,23.73 31.11,20.13 55.57,43.59 71.11,64.96 43.97,60.43 55.25,115 55.7,117.28 l -20.31,4.06 c -0.1,-0.51 -10.81,-52.34 -52.14,-109.18 -15.06,-20.72 -39.18,-43.6 -70.04,-62.8 -41.88,45.94 -33.77,112.27 -33.26,116.05 l -20.5,2.82 c -0.15,-1.06 -9.58,-75.69 35.53,-129.37 -51.58,-27.19 -118.38,-42.85 -192.12,-25.15 -37.13,8.9 -64.68,26.33 -85.19,46.58 17.41,5.29 31.8,14.6 42.85,28.05 30.13,36.69 24.26,89.89 23.98,92.15 l -20.55,-2.41 c 0.05,-0.46 5.03,-46.9 -19.5,-76.68 -10.24,-12.41 -24.49,-20.29 -42.38,-23.62 -35.33,45.25 -41.91,96.21 -42.31,99.6 l -20.57,-2.38 c 0.1,-0.86 6.45,-50.82 39.36,-99.04 -75.99,0.7 -103.98,64.6 -105.18,67.46 l -19.11,-7.95 c 0.33,-0.84 34.44,-80.35 125.68,-80.35 4.19,0 8.5,0.18 12.92,0.53 l 1.27,0.15 c 23.54,-26.94 56.84,-50.94 103.9,-62.24 20.37,-4.9 25.01,-7.02 44.26,-7.56 l 13.99,-732.58 31.3,-4.15 -9.4,736.68 c 49.77,2.23 94.74,17.18 131.9,37.75 16.56,-14.23 38.25,-25.9 66.83,-32.55 15.32,-3.57 29.39,-5.13 42.31,-5.13 90.91,0 123.65,77.65 124.01,78.55 l -19.19,7.78" /><path
         id="path204"
         style="fill:#8ab526;fill-opacity:1;fill-rule:nonzero;stroke:none"
         d="m 6517.76,3833.48 c -96.2,-295.15 -489.67,-409.05 -758.89,-295.15 -196.74,82.84 -362.41,352.06 -258.86,548.79 103.53,196.74 310.63,331.35 528.08,352.05 279.57,10.36 548.79,-238.14 510.52,-514.33 -3.31,-30.09 -10.03,-60.31 -20.85,-91.36" /><path
         id="path206"
         style="fill:#361b16;fill-opacity:1;fill-rule:nonzero;stroke:none"
         d="m 6301.04,3673.48 c -1.43,-3.54 -36.15,-85.81 -142.45,-61.04 -21.85,5.09 -39.09,13.45 -52.71,23.72 31.11,20.13 55.58,43.6 71.11,64.95 43.98,60.45 55.25,115 55.71,117.3 l -20.32,4.06 c -0.09,-0.52 -10.8,-52.35 -52.13,-109.18 -15.07,-20.73 -39.18,-43.62 -70.04,-62.81 -41.89,45.94 -33.78,112.26 -33.26,116.06 l -20.52,2.81 c -0.14,-1.05 -9.57,-75.69 35.54,-129.36 -51.58,-27.21 -118.38,-42.87 -192.12,-25.17 -37.13,8.91 -64.68,26.34 -85.18,46.6 17.38,5.27 31.8,14.59 42.85,28.04 30.12,36.69 24.25,89.9 23.98,92.15 l -20.56,-2.41 c 0.05,-0.47 5.04,-46.9 -19.5,-76.68 -10.24,-12.4 -24.49,-20.29 -42.38,-23.62 -35.34,45.25 -41.91,96.22 -42.32,99.61 l -20.56,-2.4 c 0.1,-0.86 6.46,-50.81 39.36,-99.03 -75.99,0.7 -103.98,64.61 -105.18,67.47 l -19.13,-7.98 c 0.36,-0.84 34.47,-80.32 125.7,-80.32 4.19,0 8.5,0.18 12.92,0.52 l 1.27,0.14 c 23.55,-26.94 56.85,-50.94 103.91,-62.23 20.36,-4.89 40.18,-7.29 59.43,-7.83 l 1.85,-734.88 39.66,2.34 -7.01,734.9 c 49.79,2.24 80.95,15.05 118.11,35.59 16.56,-14.21 38.25,-25.87 66.83,-32.52 15.33,-3.58 29.4,-5.15 42.31,-5.15 90.92,0 123.65,77.65 124.01,78.55 l -19.18,7.8" /><path
         id="path208"
         style="fill:#8ab526;fill-opacity:1;fill-rule:nonzero;stroke:none"
         d="m 2433.45,1200.93 -222.86,396.16 104.47,8.08 -167.15,258.72 104.47,8.08 -222.86,291.04 97.5,8.09 -215.89,371.91 -2.38,-9.29 -0.07,12.03 -215.9,-371.88 97.5,-8.09 -222.86,-291.05 104.46,-8.09 -167.14,-258.71 104.48,-8.09 -222.87,-396.14 183.1,2.39 -0.18,-0.74 864.18,-4.42" /><path
         id="path210"
         style="fill:#361b16;fill-opacity:1;fill-rule:nonzero;stroke:none"
         d="m 1869.97,895.48 h 79.8633 V 1294.8 H 1869.97 Z" /><path
         id="path212"
         style="fill:#b3d133;fill-opacity:1;fill-rule:nonzero;stroke:none"
         d="m 2785.67,1093.49 -222.87,396.15 104.49,8.09 -167.16,258.71 104.47,8.09 -222.86,291.05 97.5,8.08 -215.9,371.9 -2.35,-9.28 -0.1,12.04 -215.89,-371.89 97.5,-8.09 -222.86,-291.05 104.48,-8.08 -167.16,-258.73 104.48,-8.07 -222.87,-396.16 183.1,2.39 -0.18,-0.73 864.18,-4.42" /><path
         id="path214"
         style="fill:#361b16;fill-opacity:1;fill-rule:nonzero;stroke:none"
         d="m 2222.2,898.27 h 79.8594 v 292.852 H 2222.2 Z" /><path
         id="path216"
         style="fill:#b3d133;fill-opacity:1;fill-rule:nonzero;stroke:none"
         d="m 4635.07,1506.04 c -41.68,-127.87 -212.15,-177.19 -328.77,-127.87 -85.22,35.89 -156.99,152.52 -112.13,237.75 44.84,85.24 134.55,143.55 228.75,152.52 121.12,4.49 237.75,-103.18 221.17,-222.82 -1.42,-13.04 -4.35,-26.12 -9.02,-39.58" /><path
         id="path218"
         style="fill:#8ab526;fill-opacity:1;fill-rule:nonzero;stroke:none"
         d="m 4534.17,1474.1 c -28.16,-86.39 -143.34,-119.72 -222.17,-86.39 -57.58,24.25 -106.07,103.05 -75.76,160.66 30.29,57.59 90.92,96.98 154.59,103.06 81.82,3.02 160.63,-69.72 149.43,-150.57 -0.95,-8.83 -2.93,-17.66 -6.09,-26.76" /><path
         id="path220"
         style="fill:#b3d133;fill-opacity:1;fill-rule:nonzero;stroke:none"
         d="m 4072.59,2090.2 c 76.58,146.26 293.01,171.14 424.08,87.58 95.84,-60.87 158.87,-216.7 87.15,-310.71 -71.72,-93.98 -192.23,-146.26 -308.07,-137.85 -147.55,19.32 -266.72,173.48 -222.21,314.91 4.44,15.49 10.63,30.73 19.05,46.07" /><path
         id="path222"
         style="fill:#8ab526;fill-opacity:1;fill-rule:nonzero;stroke:none"
         d="m 4302.24,2065.88 c 34.02,64.97 130.15,76.01 188.38,38.9 42.57,-27.05 70.57,-96.27 38.73,-138.04 -31.86,-41.75 -85.41,-64.95 -136.86,-61.24 -65.55,8.59 -118.5,77.07 -98.71,139.92 1.97,6.87 4.71,13.64 8.46,20.46" /><path
         id="path224"
         style="fill:#b3d133;fill-opacity:1;fill-rule:nonzero;stroke:none"
         d="m 3857.89,2033.85 c -41.67,127.85 -212.13,177.19 -328.75,127.85 -85.23,-35.89 -157.01,-152.51 -112.15,-237.74 44.86,-85.23 134.56,-143.54 228.77,-152.51 121.11,-4.48 237.75,103.16 221.16,222.8 -1.42,13.04 -4.34,26.13 -9.03,39.6" /><path
         id="path226"
         style="fill:#8ab526;fill-opacity:1;fill-rule:nonzero;stroke:none"
         d="m 3818.9,2016.23 c -24.81,76.13 -126.31,105.5 -195.76,76.13 -50.75,-21.35 -93.48,-90.82 -66.77,-141.57 26.7,-50.73 80.12,-85.47 136.22,-90.81 72.12,-2.67 141.56,61.44 131.7,132.69 -0.87,7.76 -2.59,15.54 -5.39,23.56" /><path
         id="path228"
         style="fill:#b3d133;fill-opacity:1;fill-rule:nonzero;stroke:none"
         d="m 3295.42,1449.69 c 76.58,-146.26 292.99,-171.14 424.08,-87.6 95.84,60.88 158.86,216.72 87.16,310.71 -71.72,94.01 -192.23,146.25 -308.1,137.86 -147.52,-19.32 -266.68,-173.47 -222.17,-314.93 4.42,-15.48 10.61,-30.71 19.03,-46.04" /><path
         id="path230"
         style="fill:#8ab526;fill-opacity:1;fill-rule:nonzero;stroke:none"
         d="m 3377.57,1463.29 c 41.45,-79.17 158.59,-92.62 229.55,-47.39 51.87,32.94 86.01,117.29 47.17,168.19 -38.81,50.86 -104.05,79.13 -166.75,74.63 -79.84,-10.49 -144.36,-93.93 -120.27,-170.5 2.4,-8.37 5.73,-16.61 10.3,-24.93" /><path
         id="path232"
         style="fill:#b3d133;fill-opacity:1;fill-rule:nonzero;stroke:none"
         d="m 3718.74,2441.44 c 74.36,154.82 276.75,185.2 397.35,100.27 88.2,-61.87 143.89,-223.92 75.1,-323.87 -68.77,-99.92 -182.25,-157.12 -290.16,-150.62 -137.25,17.3 -245.35,176.46 -200.99,325.58 4.44,16.32 10.53,32.41 18.7,48.64" /><path
         id="path234"
         style="fill:#8ab526;fill-opacity:1;fill-rule:nonzero;stroke:none"
         d="m 3949.86,2372.08 c 33.03,68.78 122.94,82.28 176.53,44.55 39.17,-27.5 63.93,-99.49 33.36,-143.89 -30.54,-44.39 -80.97,-69.78 -128.91,-66.93 -60.97,7.7 -108.99,78.41 -89.28,144.67 1.98,7.23 4.67,14.37 8.3,21.6" /><path
         id="path236"
         style="fill:#361b16;fill-opacity:1;fill-rule:nonzero;stroke:none"
         d="m 3448.87,1653.97 287.68,-136.85 -159.19,-11.18 19.55,-16.75 173.15,8.37 166.35,-91.7 -3.2,-510.38 c 33.07,1.36 66.13,2.559 99.2,3.411 l -7.26,440.079 443.94,152.15 c -4.84,8 -7.58,17.28 -8.16,26.74 l -173.99,-50.71 61.93,161.62 h -16.73 l -70.49,-161.91 -243.57,-82.56 -10.61,359.06 73.24,67.72 176.23,2.43 8.18,16.35 h -164.09 l 166.21,153.7 -5.59,25.14 -112.48,-98.75 45.06,173.53 -13.63,-5.45 -59.48,-192.7 -110.84,-97.3 -25.14,539.09 h -25.13 l -2.8,-276.53 -134.06,122.9 -25.15,-2.78 153.61,-150.84 -10.57,-353.84 -151.41,124.81 -13.97,120.13 -11.18,19.52 V 1807.6 l -103.33,67.03 -27.93,2.8 307.82,-247.91 -2.03,-166.2 -305.79,143.17 -41.91,100.55 -22.33,5.59 39.11,-97.76 -162.01,50.27 2.79,-11.17" /><path
         id="path238"
         style="fill:#b3d133;fill-opacity:1;fill-rule:nonzero;stroke:none"
         d="m 4793.64,6331.74 c 0,123.79 -74.84,230.06 -181.75,276.13 5.15,20.58 7.91,42.12 7.91,64.29 0,146.01 -118.34,264.37 -264.36,264.37 -26.53,0 -52.16,-3.96 -76.33,-11.24 0.15,3.73 0.28,7.47 0.28,11.24 0,1.22 -0.08,2.41 -0.09,3.62 0.01,1.21 0.09,2.41 0.09,3.62 0,144.01 -116.73,260.75 -260.75,260.75 -144.01,0 -260.75,-116.74 -260.75,-260.75 0,-1.21 0.08,-2.41 0.1,-3.62 -0.02,-1.21 -0.1,-2.4 -0.1,-3.62 0,-6.26 0.3,-12.46 0.74,-18.61 -24.31,7.37 -50.09,11.37 -76.79,11.37 -146.01,0 -264.37,-118.37 -264.37,-264.38 0,-22.17 2.77,-43.7 7.92,-64.28 -106.9,-46.07 -181.75,-152.34 -181.75,-276.13 0,-116.83 66.69,-218.01 164.06,-267.76 -12.36,-31.5 -19.21,-65.76 -19.21,-101.64 0,-154 124.86,-278.85 278.87,-278.85 51.29,0 99.32,13.91 140.61,38.08 31.66,-85.66 114.02,-146.73 210.67,-146.73 98.91,0 182.81,63.98 212.76,152.78 40.82,-23.43 88.08,-36.89 138.53,-36.89 154,0 278.86,124.85 278.86,278.86 0,35.87 -6.86,70.13 -19.2,101.63 97.35,49.74 164.05,150.93 164.05,267.76" /><path
         id="path240"
         style="fill:#361b16;fill-opacity:1;fill-rule:nonzero;stroke:none"
         d="m 4559.06,5931.91 c -34.26,1.02 -64.95,21.81 -78.22,52.94 -14.99,35.2 -5.64,75.65 23.24,100.66 l 3.77,3.28 -26.18,30.24 -3.78,-3.27 c -42.07,-36.43 -55.68,-95.34 -33.86,-146.58 6.77,-15.89 16.42,-29.93 28.73,-41.79 -6.66,-14.97 -15.59,-28.78 -26.62,-41.08 -23.81,-26.54 -54.98,-43.86 -90.12,-50.05 -48.25,-8.5 -96.76,5.3 -133.09,37.88 -4.89,4.37 -9.61,9.22 -14.4,14.82 l -0.01,0.15 -0.28,2.07 -0.88,4.96 -4.18,-0.77 c -32.8,42.46 -41.68,99.44 -23.38,150.05 10.01,2.17 19.71,5.53 28.85,9.99 30.67,14.92 53.68,40.91 64.8,73.17 6.09,17.69 8.21,36 6.34,54.41 l -0.52,4.98 -39.79,-4.04 0.5,-4.98 c 1.3,-12.65 -0.17,-25.21 -4.35,-37.35 -7.65,-22.15 -23.45,-40 -44.5,-50.25 -20.85,-10.13 -45.09,-11.61 -67,-4.05 -36.16,12.46 -59.91,46.5 -59.11,84.72 l 0.12,5 -40,0.85 -0.11,-5 c -1.18,-55.66 33.41,-105.24 86.07,-123.4 8.49,-2.92 17.28,-4.95 26.19,-6.05 -15.95,-58.78 -3.77,-122.09 33.04,-170.74 2.14,-19.23 0.86,-38.23 -3.8,-56.5 -15.37,-60.01 -64.81,-105.75 -125.98,-116.53 -22.12,-3.89 -44.44,-3.03 -66.33,2.57 -64.64,16.53 -107.74,88.86 -116.61,150.29 l 1.23,0.36 c 104.32,32.34 162.88,143.51 130.55,247.83 -5.28,17.04 -12.99,33.45 -22.94,48.81 30.94,20.32 51.41,52.56 56.44,89.19 2.55,18.49 1.09,36.89 -4.33,54.64 l -1.45,4.78 -38.27,-11.66 1.46,-4.79 c 3.73,-12.21 4.73,-24.82 2.97,-37.5 -5.21,-37.89 -34.01,-67.81 -71.71,-74.43 -8.93,-1.58 -18.05,-1.75 -27.1,-0.51 -37.9,5.23 -67.82,34.02 -74.45,71.66 l -0.87,4.94 -39.39,-6.95 0.86,-4.92 c 9.66,-54.81 53.22,-96.75 108.39,-104.35 13.18,-1.81 26.46,-1.57 39.46,0.72 3.51,0.62 7.1,1.44 11.1,2.57 9.46,-13.47 16.73,-28.27 21.62,-44.04 12.48,-40.26 8.5,-83.03 -11.19,-120.43 -19.71,-37.39 -52.74,-64.86 -93.01,-77.35 -6.45,-2 -13.08,-3.6 -19.69,-4.78 -56.31,-9.92 -113.32,11.44 -149.46,55.81 3.33,9.87 5.45,19.89 6.3,29.81 2.94,33.98 -7.54,67.07 -29.5,93.18 -12.05,14.3 -26.67,25.53 -43.45,33.4 l -4.52,2.12 -16.98,-36.23 4.53,-2.11 c 11.51,-5.4 21.54,-13.11 29.81,-22.93 15.08,-17.92 22.27,-40.65 20.26,-63.99 -2.01,-23.34 -12.99,-44.49 -30.91,-59.58 -11.88,-9.97 -26.17,-16.67 -41.32,-19.34 -21.34,-3.76 -43.27,0.55 -61.74,12.14 l -4.24,2.67 -21.26,-33.89 4.23,-2.66 c 26.9,-16.88 58.84,-23.17 89.94,-17.69 22.08,3.9 42.87,13.64 60.13,28.18 6.72,5.64 12.94,12.14 18.55,19.39 41.6,-43.24 100.89,-65.32 160.63,-59.74 11.72,-75.33 64.84,-160.62 146.01,-181.38 4.78,-1.21 9.58,-2.01 14.39,-2.88 v -485.75 h 79.9 v 487.82 c 71.43,16.85 128.37,72.12 146.68,143.62 2.17,8.52 3.75,17.36 4.77,26.85 43.62,-32.59 98.82,-45.78 152.94,-36.25 44.05,7.76 83.1,29.45 112.94,62.74 11.89,13.26 21.98,28.28 30.06,44.69 15.59,-7.5 32.91,-11.8 50.41,-12.52 l 4.71,-0.19 0.47,4.69 c 1.03,10.25 1.82,20.47 2.32,30.39 l 0.27,5.09 -5.1,0.15" /><path
         id="path242"
         style="fill:#8ab526;fill-opacity:1;fill-rule:nonzero;stroke:none"
         d="m 3557.13,6591.77 c 0,115.98 94.01,210 209.99,210 17.6,0 34.6,-2.41 50.96,-6.49 -33.33,28.89 -76.71,46.49 -124.28,46.49 -104.94,0 -190,-85.07 -190,-190 0,-61.16 29.01,-115.42 73.9,-150.17 -13.06,27.35 -20.57,57.85 -20.57,90.17" /><path
         id="path244"
         style="fill:#8ab526;fill-opacity:1;fill-rule:nonzero;stroke:none"
         d="m 3891.03,6981.92 c 82.01,82.01 214.98,82 296.98,0 12.44,-12.45 22.77,-26.17 31.44,-40.62 -3.14,44 -21.37,87.12 -55,120.75 -74.21,74.2 -194.49,74.2 -268.69,0 -43.26,-43.25 -61.12,-102.12 -53.94,-158.44 10.1,28.57 26.35,55.45 49.21,78.31" /><path
         id="path246"
         style="fill:#8ab526;fill-opacity:1;fill-rule:nonzero;stroke:none"
         d="m 4294.37,6792.17 c 115.97,0 210,-94.03 209.99,-210 0,-17.6 -2.4,-34.6 -6.48,-50.95 28.89,33.33 46.49,76.71 46.49,124.27 0,104.94 -85.07,190 -190,190 -61.17,0 -115.42,-29.01 -150.17,-73.9 27.34,13.06 57.84,20.58 90.17,20.58" /><path
         id="path248"
         style="fill:#8ab526;fill-opacity:1;fill-rule:nonzero;stroke:none"
         d="m 5989.12,2317.58 c 0,0 111.58,27.85 163.74,35.19 52.14,7.34 86.82,-1.46 86.82,-1.46 l -59.83,-114.79 c 0,0 90.82,-19.13 136.77,-32.43 45.95,-13.29 81.84,-41.68 81.84,-41.68 l -91.73,-104.07 c 0,0 71.25,-20.38 144.31,-96.72 73.04,-76.35 80.67,-87.42 80.67,-87.42 0,0 -56.64,-18.61 -101.35,-24.9 -44.71,-6.29 -108.13,-9.12 -108.13,-9.12 0,0 36.1,-40.53 60.91,-76.55 24.84,-36.01 -64.58,-48.6 -166.11,-61.36 -101.54,-12.76 -140.03,1.58 -140.03,1.58 0,0 42.18,-73.09 54.77,-162.5 12.57,-89.41 -10.26,-121.49 -10.26,-121.49 0,0 -76.79,16.55 -145.64,63.08 -68.86,46.54 -102.37,101.09 -102.37,101.09 0,0 -21.9,-92.74 -54.59,-152.04 -32.68,-59.31 -93.45,-113.45 -93.45,-113.45 l -90.12,154.48 -102.69,-58.53 c 0,0 -18.99,80.92 -32.36,100.31 -13.37,19.4 7.37,66.38 7.37,66.38 0,0 -4.48,-11.27 -65.82,-29.01 -61.32,-17.75 -142.42,-24.59 -142.42,-24.59 0,0 31.26,91.02 62.42,128.83 31.15,37.82 71.84,61.77 71.84,61.77 0,0 -73.46,-17.94 -125.98,-1.01 -52.54,16.92 -145.16,92.03 -145.16,92.03 0,0 80.35,55.38 108.91,79.16 28.56,23.77 107.57,45.53 107.57,45.53 0,0 -84.06,3.36 -154.32,81.61 -70.29,78.25 -92.23,169.39 -92.23,169.39 0,0 149.02,20.96 220.65,-23.67 71.62,-44.63 113.93,-64.5 113.93,-64.5 0,0 -56.06,63.52 -81.44,135.94 -25.39,72.41 -17.64,114.53 -17.64,114.53 0,0 123.12,-54.1 159.02,-82.49 35.9,-28.37 66.46,-72.7 66.46,-72.7 0,0 -21.08,95.81 -7.68,194.94 13.41,99.15 49.53,177.18 49.53,177.18 0,0 85.19,-76.15 129.1,-139.88 43.92,-63.71 56.31,-141.01 56.31,-141.01 0,0 19.51,66.57 44.08,108.03 24.57,41.45 90.86,99.41 90.86,99.41 0,0 33.02,-83.49 33.39,-107.76 0.38,-24.26 0.08,-65.33 0.08,-65.33" /><path
         id="path250"
         style="fill:#b3d133;fill-opacity:1;fill-rule:nonzero;stroke:none"
         d="m 5799.81,2210.15 c 0,0 65.3,41.81 97.04,57.74 31.71,15.91 55.77,17.75 55.77,17.75 l -13.51,-86.21 c 0,0 62.15,7.34 94.37,8.73 32.21,1.41 61.25,-9 61.25,-9 l -36.19,-86.23 c 0,0 49.91,2.32 113.01,-30.71 63.1,-33.05 70.37,-38.48 70.37,-38.48 0,0 -32.18,-24.09 -59.39,-37.73 -27.19,-13.65 -67.1,-29.12 -67.1,-29.12 0,0 31.78,-18.1 55.39,-35.78 23.62,-17.65 -30.79,-44.96 -92.9,-74.98 -62.13,-30 -89.8,-29.13 -89.8,-29.13 0,0 42.68,-37.62 69.98,-92.02 27.28,-54.4 19.61,-79.81 19.61,-79.81 0,0 -52.62,-5.97 -106.63,8.93 -54.01,14.9 -87.16,42.54 -87.16,42.54 0,0 5.98,-63.95 -2.14,-108.89 -8.1,-44.93 -35.27,-92.59 -35.27,-92.59 l -90.84,79.27 -52.98,-59.5 c 0,0 -29.56,47.61 -42.28,57.12 -12.72,9.5 -9.59,43.99 -9.59,43.99 0,0 -0.43,-8.18 -35.8,-32.72 -35.35,-24.52 -85.68,-46.37 -85.68,-46.37 0,0 0.37,64.89 12.12,95.75 11.76,30.86 32.6,54.94 32.6,54.94 0,0 -43.06,-27.29 -80.28,-27.79 -37.19,-0.49 -112.53,27.54 -112.53,27.54 0,0 39.4,52.68 52.52,74.02 13.13,21.33 58.92,52.25 58.92,52.25 0,0 -54.42,-15.96 -116.16,18.9 -61.74,34.86 -95.39,88.36 -95.39,88.36 0,0 90.7,45.48 146.05,32.38 55.37,-13.09 86.68,-16.68 86.68,-16.68 0,0 -49.49,28.53 -81.31,69.31 -31.81,40.81 -35.93,69.38 -35.93,69.38 0,0 90.31,-8.05 119.36,-18.46 29.03,-10.39 58.1,-32.13 58.1,-32.13 0,0 -34.09,56.68 -46.87,122.89 -12.8,66.23 -6.52,123.85 -6.52,123.85 0,0 70.81,-30.31 112.6,-61.57 41.78,-31.24 66.32,-77.95 66.32,-77.95 0,0 -1.86,46.73 4.9,78.5 6.77,31.77 36.65,83.08 36.65,83.08 0,0 39.07,-46.23 44.53,-61.65 5.47,-15.41 14.11,-41.72 14.11,-41.72" /><path
         id="path252"
         style="fill:#361b16;fill-opacity:1;fill-rule:nonzero;stroke:none"
         d="m 5818.8,1906.47 c -34.47,5.02 -122.11,-964.31 -75.13,-994.509 91.23,-58.621 109.61,36.391 100.21,329.849 -9.41,293.45 -25.08,664.66 -25.08,664.66" /></g></g></svg>