<?xml version="1.0" ?><!DOCTYPE svg  PUBLIC '-//W3C//DTD SVG 1.1//EN'  'http://www.w3.org/Graphics/SVG/1.1/DTD/svg11.dtd'><svg enable-background="new 0 0 128 128" id="Слой_1" version="1.1" viewBox="0 0 128 128" xml:space="preserve" xmlns="http://www.w3.org/2000/svg" xmlns:xlink="http://www.w3.org/1999/xlink"><path d="M99,49c-3.4,0-6.6,0.7-9.5,1.9C84.3,38.1,71.7,29,57,29c-19.3,0-35,15.7-35,35c0,0,0,0,0,0  c-0.2,0-0.3,0-0.5,0C11.8,64,4,71.8,4,81.5S11.8,99,21.5,99c0.9,0,77.5,0,77.5,0c13.8,0,25-11.2,25-25S112.8,49,99,49z" fill="#A7DCEC"/><g><g><path d="M14,81.5c0-7.9,5.3-14.6,12.5-16.8c-1.6-0.5-3.3-0.7-5-0.7C11.8,64,4,71.8,4,81.5S11.8,99,21.5,99    c1.7,0,3.4-0.3,5-0.7C19.3,96.1,14,89.4,14,81.5z" fill="#FFFFFF"/></g><g><path d="M32,64c0-17.6,13-32.2,30-34.6c-1.6-0.2-3.3-0.4-5-0.4c-19.3,0-35,15.7-35,35c0,0,0,0,0,0    c3.8,0.1,7.4,1.4,10.2,3.6C32.1,66.5,32,65.2,32,64z" fill="#FFFFFF"/></g><path d="M99,47.5c-0.7,0-1.4,0-2,0.1c-0.1,0-0.2,0-0.3,0c-0.7,0.1-1.3,0.1-2,0.2c-0.1,0-0.2,0-0.2,0   c-1.4,0.2-2.8,0.6-4.2,1.1C84.4,35.9,71.5,27.5,57,27.5c-19.6,0-35.7,15.6-36.5,35c-0.2,0-0.3,0-0.5,0.1c-0.3,0-0.6,0.1-0.9,0.1   c-0.3,0-0.7,0.1-1,0.1c-0.3,0.1-0.6,0.1-0.9,0.2c-0.3,0.1-0.6,0.2-0.9,0.2c-0.3,0.1-0.6,0.2-0.8,0.3c-0.3,0.1-0.6,0.2-0.9,0.3   c-0.3,0.1-0.5,0.2-0.8,0.3c-0.3,0.1-0.6,0.3-0.9,0.4c-0.3,0.1-0.5,0.3-0.7,0.4c-0.3,0.2-0.6,0.3-0.8,0.5c-0.2,0.1-0.5,0.3-0.7,0.5   c-0.3,0.2-0.5,0.4-0.8,0.6c-0.2,0.2-0.4,0.3-0.7,0.5c-0.2,0.2-0.5,0.4-0.7,0.7c-0.2,0.2-0.4,0.4-0.6,0.6c-0.2,0.2-0.4,0.5-0.7,0.7   c-0.2,0.2-0.4,0.4-0.5,0.6c-0.2,0.3-0.4,0.5-0.6,0.8C6,70.6,5.8,70.8,5.7,71c-0.2,0.3-0.3,0.6-0.5,0.9c-0.1,0.2-0.3,0.5-0.4,0.7   c-0.2,0.3-0.3,0.6-0.4,0.9C4.2,73.7,4.1,74,4,74.2c-0.1,0.3-0.2,0.7-0.4,1c-0.1,0.2-0.2,0.5-0.3,0.7c-0.1,0.4-0.2,0.7-0.3,1.1   c-0.1,0.2-0.1,0.5-0.2,0.7c-0.1,0.4-0.1,0.8-0.2,1.2c0,0.2-0.1,0.4-0.1,0.6c-0.1,0.6-0.1,1.3-0.1,1.9c0,10.5,8.5,19,19,19H99   c14.6,0,26.5-11.9,26.5-26.5S113.6,47.5,99,47.5z M99,97.5H21.5c-8.8,0-16-7.2-16-16s7.2-16,16-16c0.1,0,0.1,0,0.2,0   c0.1,0,0.2,0,0.3,0c0,0,0,0,0,0c4.1,0.1,7.9,1.8,10.8,4.7c0.6,0.6,1.5,0.6,2.1,0c0.6-0.6,0.6-1.5,0-2.1c-3.1-3.1-7.1-5-11.4-5.5   C24.3,44.8,39,30.5,57,30.5c13.2,0,25,7.7,30.5,19.6c-2.6,1.3-5.1,3-7.2,5.1c-0.6,0.6-0.6,1.5,0,2.1c0.6,0.6,1.5,0.6,2.1,0   c2.2-2.2,4.8-3.9,7.6-5.1c0,0,0.1,0,0.1,0c2.1-0.9,4.4-1.4,6.7-1.7c0,0,0,0,0,0c0.8-0.1,1.5-0.1,2.3-0.1c13,0,23.5,10.5,23.5,23.5   S112,97.5,99,97.5z" fill="#4A374F"/></g></svg>