<svg width="330.47946" height="325.95135" xmlns="http://www.w3.org/2000/svg" xmlns:svg="http://www.w3.org/2000/svg">
 <g>
  <title>Layer 1</title>
  <path d="m208.64868,152.46242c0,56.98933 -53.43494,161.78703 -89.24154,161.78703c-36.81015,0 -89.24154,-104.7977 -89.24154,-161.78703c0,-56.98933 39.98022,-103.24155 89.24154,-103.24155c49.26134,0 89.24154,46.25221 89.24154,103.24155z" id="path2383" stroke-miterlimit="4" stroke-linecap="round" stroke-width="4" fill-rule="nonzero" fill="#cccccc" stroke="#000000"/>
  <path d="m206.45416,135.60725c0.21338,2.91879 0.32224,5.86105 0.32224,8.84375c0,56.98932 -53.10088,161.81252 -88.69674,161.81252c-33.37548,-0.00003 -79.68489,-87.17963 -87.56892,-145.75002c4.39196,58.24704 53.499,153.74998 88.42823,153.75002c35.59586,0 88.69675,-104.82318 88.69675,-161.81252c0,-5.73889 -0.40663,-11.35889 -1.18156,-16.84375z" id="path3397" stroke-miterlimit="4" stroke-linecap="round" stroke-width="4" fill-rule="nonzero" fill-opacity="0.31372" fill="#000000"/>
  <path d="m134.27499,298.94009c0,7.08365 -8.17078,15.56311 -12.3656,15.56311c-4.721,0 -12.36559,-8.47946 -12.36559,-15.56311c0,-7.08371 5.53979,-6.27988 12.36559,-6.27988c6.82581,0 12.3656,-0.80383 12.3656,6.27988z" id="path2390" stroke-miterlimit="4" stroke-linecap="round" stroke-width="2" fill-rule="nonzero" fill="#000000"/>
  <path d="m109.6864,252.45583c0.00191,5.73842 -3.52173,10.39168 -7.86903,10.39168c-4.34727,0 -7.87091,-4.65326 -7.86901,-10.39168c-0.0019,-5.73842 3.52174,-10.39166 7.86901,-10.39166c4.34731,0 7.87094,4.65324 7.86903,10.39166z" id="path2397" stroke-miterlimit="4" stroke-linecap="round" stroke-width="2" stroke="#000000" fill-rule="nonzero" fill="#000000"/>
  <path d="m151.57771,251.61208c0.00191,5.73842 -3.52173,10.39168 -7.86903,10.39168c-4.34729,0 -7.87091,-4.65326 -7.86899,-10.39168c-0.00192,-5.73842 3.5217,-10.39166 7.86899,-10.39166c4.34732,0 7.87094,4.65324 7.86903,10.39166z" id="path2399" stroke-miterlimit="4" stroke-linecap="round" stroke-width="2" stroke="#000000" fill-rule="nonzero" fill="#000000"/>
  <path d="m104.965,250.04045c0.00082,1.96986 -0.98589,3.56746 -2.20332,3.56746c-1.21745,0 -2.20414,-1.5976 -2.20335,-3.56746c-0.00079,-1.96986 0.98589,-3.56746 2.20335,-3.56746c1.21744,0 2.20414,1.5976 2.20332,3.56746l0,0z" id="path2401" stroke-miterlimit="4" stroke-linecap="round" stroke-width="2" fill-rule="nonzero" fill="#ffffff"/>
  <path d="m145.2825,250.14098c0.00081,1.96986 -0.98589,3.56746 -2.20332,3.56746c-1.21744,0 -2.20415,-1.5976 -2.20334,-3.56746c-0.00081,-1.96985 0.9859,-3.56746 2.20334,-3.56746c1.21745,0 2.20413,1.59761 2.20332,3.56746l0,0z" id="path2403" stroke-miterlimit="4" stroke-linecap="round" stroke-width="2" fill-rule="nonzero" fill="#ffffff"/>
  <g transform="matrix(1.3917402,0,0,1.4058212,-239.24654,-659.88464) " id="g3221" stroke-miterlimit="4" stroke-linecap="round" stroke-width="2.85967" stroke="#000000">
   <path d="m274.5452,673.77209c32.73511,-15.10852 47.84363,-1.25903 47.84363,-1.25903" id="path2445" stroke-miterlimit="4" stroke-linecap="round" stroke-width="2.85967" stroke="#000000" fill-rule="evenodd" fill-opacity="0.75" fill="none"/>
   <path d="m271.39758,679.43781c23.92181,-15.10852 44.69601,9.44281 44.69601,9.44281" id="path2447" stroke-miterlimit="4" stroke-linecap="round" stroke-width="2.85967" stroke="#000000" fill-rule="evenodd" fill-opacity="0.75" fill="none"/>
   <path d="m271.39758,682.58539c25.18088,-12.59045 29.58752,18.25616 29.58752,18.25616" id="path2449" stroke-miterlimit="4" stroke-linecap="round" stroke-width="2.85967" stroke="#000000" fill-rule="evenodd" fill-opacity="0.75" fill="none"/>
  </g>
  <g transform="matrix(-1.3917402,0,0,1.4058212,667.06082,-659.88464) " id="g3384" stroke-miterlimit="4" stroke-linecap="round" stroke-width="2.85967" stroke="#000000">
   <path d="m406.59714,673.77209c32.73511,-15.10852 47.84363,-1.25903 47.84363,-1.25903" id="path3386" stroke-miterlimit="4" stroke-linecap="round" stroke-width="2.85967" stroke="#000000" fill-rule="evenodd" fill-opacity="0.75" fill="none"/>
   <path d="m403.44952,679.43781c23.92181,-15.10852 44.69601,9.44281 44.69601,9.44281" id="path3388" stroke-miterlimit="4" stroke-linecap="round" stroke-width="2.85967" stroke="#000000" fill-rule="evenodd" fill-opacity="0.75" fill="none"/>
   <path d="m403.44952,682.58539c25.18088,-12.59045 29.58752,18.25616 29.58752,18.25616" id="path3390" stroke-miterlimit="4" stroke-linecap="round" stroke-width="2.85967" stroke="#000000" fill-rule="evenodd" fill-opacity="0.75" fill="none"/>
  </g>
  <g id="svg_2" stroke="null">
   <path d="m111.62711,52.99802c1.80185,-23.2923 74.47628,-85.61493 138.14153,-22.66277c63.66522,62.95215 69.0708,33.36464 75.07693,34.62368c6.00616,1.25903 -5.97809,14.89337 -22.82336,12.59042c-41.44247,-5.66568 -69.07077,-59.80454 -107.51016,-59.17502c-38.73384,0.63434 -59.46094,35.88273 -59.46094,35.88273l-23.424,-1.25904z" id="path3264" stroke-miterlimit="4" stroke-width="4" fill-rule="evenodd" fill="#cccccc" stroke="#000000"/>
   <path d="m194.57465,12.1875c17.22531,0.20866 35.86372,7.31967 53.69696,26.0625c16.41943,17.25694 28.50769,27.16801 37.53717,32.625l0,1.9375c-32.94243,-14.64816 -58.09003,-54.98128 -91.29375,-54.4375c-38.73381,0.63434 -59.45123,35.875 -59.45123,35.875l-9.00417,-0.46875c6.94898,-16.4904 35.09603,-41.99858 68.51505,-41.59375l-0.00003,0z" id="path2407" stroke-miterlimit="4" stroke-width="4" fill-rule="evenodd" fill-opacity="0.31372" fill="#cccccc"/>
  </g>
  <path d="m188.85446,230.10725c24.03021,-2.36464 42.81253,-22.63283 42.8125,-47.28125c0,-26.23593 -21.29529,-47.53128 -47.53125,-47.53125c-26.23593,0 -47.53125,21.2953 -47.53123,47.53125c0,1.84401 0.10779,3.67926 0.3125,5.46875" id="path2386" stroke-miterlimit="4" stroke-linecap="round" stroke-width="4" stroke="#000000" fill-rule="nonzero" fill="#cccccc"/>
  <path d="m184.26071,142.04475c-17.82959,0.25116 -34.35757,14.09506 -38.62498,31.25c8.38071,-5.51318 18.89809,-8.8125 30.31248,-8.8125c22.94049,-0.00003 42.24106,13.27118 47.875,31.25c8.97223,-23.95691 -11.56161,-53.86142 -37.5,-53.65625c-0.69022,-0.03128 -1.37546,-0.04092 -2.0625,-0.03125z" id="path2427" stroke-miterlimit="4" stroke-linecap="round" stroke-width="2" fill-rule="nonzero" fill-opacity="0.31372" fill="#000000"/>
  <path d="m100.79198,192.201c0.24701,-1.96181 0.375,-3.97153 0.375,-6c0,-26.23593 -21.26408,-47.53128 -47.5,-47.53125c-26.23595,0 -47.53127,21.2953 -47.53126,47.53125c0,25.2565 19.71447,45.92896 44.59376,47.4375" id="path2388" stroke-miterlimit="4" stroke-linecap="round" stroke-width="4" stroke="#000000" fill-rule="nonzero" fill="#cccccc"/>
  <path d="m55.49525,145.41975c17.82959,0.25116 34.35759,14.09506 38.625,31.25c-8.38071,-5.51318 -18.89809,-8.8125 -30.3125,-8.8125c-22.94049,-0.00003 -42.24104,13.27118 -47.875,31.25c-8.97223,-23.95691 11.56161,-53.86142 37.5,-53.65625c0.69024,-0.03128 1.37548,-0.04092 2.0625,-0.03125z" id="path3405" stroke-miterlimit="4" stroke-linecap="round" stroke-width="2" fill-rule="nonzero" fill-opacity="0.31372" fill="#000000"/>
 </g>
</svg>