<svg width="271.25" height="203.75" xmlns="http://www.w3.org/2000/svg" xmlns:svg="http://www.w3.org/2000/svg">
 <g>
  <title>Layer 1</title>
  <g transform="matrix(1.25,0,0,-1.25,0,203.75) " id="g19193">
   <path d="m52.38,163.02c-2.6381,-1.56842 -5.7919,-2.94 -8.88,-4.56c-2.6719,-2.49481 -6.2371,-3.72842 -8.88,-6.96002c6.4829,1.03679 12.928,1.58522 19.68,2.15999c8.4694,3.40321 17.108,7.10519 26.64,8.16l0,-0.72c-8.8452,-1.7052 -16.662,-5.13481 -24.72,-8.15999c2.4355,-3.00842 5.7262,0.69478 8.64,0.71999c7.92,2.71681 16.559,5.45999 24.72,6.72c0.20448,-0.29999 1.0274,-0.5748 0.72,-0.96001l-0.72,-0.48c0.88968,-0.5052 3.0845,0.31679 3.12,-1.44c0.37585,-1.3968 -1.8187,-1.1232 -0.96,-2.39999c7.5065,0.45479 15.32401,0.17999 22.32,-2.40001c5.2078,0.7968 10.145,2.8548 15.60001,1.44c0.98999,-1.46519 -0.2448,-3.1116 -0.96001,-4.31999c-1.89,-0.8484 -2.85,-1.53481 -4.8,-2.40001c4.28159,1.41478 8.94379,1.8252 13.92001,1.2l1.92,0.72c0.78383,-1.6032 -2.09621,-4.89479 0.72,-5.28c0.47447,0.38521 1.02379,1.75681 1.67999,1.44c-1.4794,-4.3452 -3.53619,-9.00841 -4.31999,-13.67999c7.09129,3.5748 11.20599,11.93999 11.51999,20.39999c-0.45192,2.64838 -1.6855,5.5284 -4.8,6c-2.91939,0.48839 -6.34778,1.17479 -9.12,-0.72l0.48,1.2c2.29222,0.42 5.0345,0.9684 7.20001,0.48001c2.36061,-0.19679 4.1429,-1.29482 6,-2.88c4.31349,-9.52321 -2.81711,-19.39699 -8.40001,-27.12c-0.0394,-2.0148 -2.371,-4.07159 -0.23999,-5.75999c3.49129,2.78519 5.82289,5.25481 8.39999,8.87999l0.48,0c0.37128,-2.11681 -2.5087,-2.93999 -2.16,-5.03999c-2.131,-1.3284 -1.99419,-3.52319 -3.35999,-5.28c2.59969,2.1684 4.65739,4.7748 7.2,7.43999c0.61128,-2.8032 -2.6803,-3.89999 -3.84001,-6.48c-2.6794,-3.59161 -7.20479,-6.06001 -8.64,-10.32c4.17741,2.34 9.93742,6.4548 15.12001,4.56c0.30287,-0.0252 0.57649,-0.8484 0,-0.72c-5.8687,0.42001 -12.17601,-3.0084 -16.32001,-6.96c0.02901,-1.25999 -2.43939,-2.3568 -0.95999,-4.07999c0.98903,0.07681 0.85223,-0.8832 1.44,-1.2c-0.72481,-1.1916 0.92064,-0.78 0.48,-1.68c-3.3994,-1.8432 -2.98781,-6.3684 -6.71999,-7.68c-4.08381,-2.6652 -9.02061,-4.44839 -12.48,-8.4c-1.2038,-0.02615 -1.0658,1.0716 -2.16,1.2c-1.2374,-0.95161 -2.47131,-2.1852 -4.32,-2.16c-1.5797,-1.5348 -2.67741,-3.3168 -4.32,-4.07999l-2.64,2.64c-1.7513,-0.5052 -2.1619,-2.1516 -3.12,-3.36c0.0364,-1.86729 -2.4445,-4.7418 -4.08,-3.84c-3.6019,0.52319 -7.44099,-1.3968 -10.07999,1.43999c-0.37775,0.72839 0.30743,1.55161 0.96,2.16c-8.60619,2.1338 -12.85699,-5.5452 -18.48,-9.6c-0.6852,0.07681 -1.6452,0.07681 -1.92,0.96c0.13776,3.23161 3.0168,5.8368 4.8,8.16c-3.0168,-0.8148 -5.759,-3.42001 -8.88,-4.08c-0.03384,0.5232 -0.85583,1.0716 -0.48,1.92001c0.30936,0.1116 0.9948,0.5232 0.96,0.96001c-4.3538,1.8948 -6.959,-2.22 -10.56,-2.16c-1.0613,0.3516 -0.78648,1.3116 -0.72,1.92c0.48192,0.7632 1.1671,1.0368 1.92,1.92c-0.47808,1.0368 -2.3981,0.3516 -3.12,1.44c-2.2949,-0.1284 -4.4897,0.5568 -6.48,1.68c-1.8487,-0.98616 -4.8665,-1.26 -5.28,-3.84c0.13968,-0.3 1.2365,-0.3 0.72,-0.96c-0.71712,-0.3 -2.0887,-0.0252 -1.92,0.96c0.10584,2.4432 2.5745,3.54 4.08,4.8c-2.7403,1.2084 -3.2887,6.1452 -6.96,3.84c-0.58032,0.3852 -1.8142,0.66 -1.92,0.96c1.2029,0.5232 3.8081,0.24841 3.36,1.92001c-1.0603,0.24841 -1.6087,1.07159 -2.4,1.68c-4.831,-0.88319 -9.4932,-2.39159 -13.68,0.72l0,1.43999c2.2668,-2.08321 7.3406,-2.4948 10.56,-1.2c-1.5742,2.95679 -5.8248,3.6432 -8.16,6.24c-1.9163,2.0652 -4.3847,3.3 -5.76,6c-3.0131,1.0032 -5.4816,-1.74 -7.92,-2.39999c-1.1269,-1.1232 -2.6353,-1.94521 -3.12,-3.36c-0.06374,-0.78 1.5825,-1.3284 0.72,-1.92001c-1.3322,-0.0948 -2.2922,0.59161 -2.16,1.92001c1.3763,4.8432 6.5878,6.21481 10.8,7.92001c0.45,0.7632 -0.51,1.58521 -0.96,1.92001l-6.72,-1.68c1.6847,1.62 4.1531,2.03159 6.24,2.88l-2.64,5.52c-1.9153,1.3116 -4.3837,2.1348 -5.76,4.07999c1.6509,0.93481 3.2963,-1.3968 5.28,-1.92c-1.1606,2.03159 -4.4522,3.9516 -6.72,5.28l-6,4.56001c0.45187,0.1452 0.04031,0.8316 0.48,0.72l11.52,-7.2c-1.4006,2.92319 3.2616,5.3916 0,8.16c-3.4575,2.71681 -5.7891,7.10521 -5.04,12c1.1709,0.0432 2.1309,-1.73999 2.88,-2.64c-2.2575,-0.74519 -0.06374,-3.07681 0,-4.56001l3.12,-3.84l6,0.48001c-2.6016,4.1568 -6.3037,9.64319 -5.76,15.84c-0.68062,0.38521 0.0047,0.9348 0,1.20001c1.9247,0.9684 2.61,-1.91162 4.56,-2.16l0.72,-1.92c2.6784,1.89479 5.6952,3.1284 8.64,4.31999c-0.75096,1.6884 -2.3962,3.74521 -4.32,4.07999c-0.27,0.62521 -0.27,1.44839 0.72,1.20001c2.849,-0.29999 3.809,-4.41478 6.24,-4.79999c6.6197,5.73479 14.574,10.94498 22.56,13.2" id="path19197"/>
   <g id="svg_1" fill="#844409">
    <path d="m88.14,157.02c-1.4062,-0.4032 -3.0526,-1.08841 -4.08,-2.16c0.2052,-3.0432 3.22221,0.38519 4.08,-2.39999c7.6445,0.72839 15.735,2.37479 23.52,0c-2.0258,-1.3284 -5.45351,-1.8768 -7.44,-3.84001c0.20352,-0.50519 0.34032,-1.05478 0.72,-0.95999c6.7519,3.4716 15.116,4.7052 22.32,6l1.68,-0.24001l-0.72,-0.95999c-5.4206,-1.3284 -10.084,-3.79681 -15.12,-5.76001c-0.44904,-0.91679 0.37416,-1.46518 0.72,-1.92l5.04,2.16c-0.31224,-1.56841 0.7848,-2.80321 1.92,-2.88c0.9216,-3.6252 7.23,-3.35159 5.28,-8.16l-0.48,0c-0.0384,-2.45999 -0.5868,-5.2032 -1.92,-7.2c-1.1352,-0.74519 -4.4258,-0.6084 -3.12,-3.12c-0.20904,0.0432 -0.34584,0.0432 -0.24,0c-1.34061,2.7852 1.81319,4.98 0.96,8.39999c-0.6552,0.42 -0.6552,2.2032 -1.68,1.2l-0.48,-0.71999c1.6426,-0.19682 0.5448,-2.25482 0.48,-3.36c-1.4438,1.24318 -2.12901,3.16318 -2.16,5.03998c-2.9858,1.6884 -1.6145,6.6252 -5.28,7.20001c-1.2713,1.3452 -2.7797,3.12839 -4.8,3.60001c-1.9565,-0.74521 -0.99648,-2.3916 -3.12,-1.2c-1.7165,0.45479 -2.5397,-1.1916 -3.36,-2.16l0,-0.96001c-2.4703,1.6548 -4.9387,4.39679 -8.16,4.79999c-0.48096,-0.4032 -0.89256,-0.81479 -0.96,-1.43999c-4.45779,1.3116 -9.12099,3.78 -14.16,4.79999c-1.1316,-0.33478 -0.72,-1.56842 -0.48,-2.15999c2.64,-2.4252 6.8906,-3.7968 9.6,-5.75999c-9.70319,0.17999 -20.674,2.3748 -29.52,-1.44c-0.34128,0.52321 1.1671,2.30521 -0.72,2.40001c-1.9529,-0.5052 -3.3245,-2.5632 -5.28,-2.88c0.03552,1.14001 1.9555,0.8652 1.2,2.64001l-0.24,0.24001c-3.6665,-3.2484 -8.4665,-7.91161 -11.52,-11.04001c0.58512,2.0316 3.1913,3.6768 2.64,6c-2.1919,-2.45999 -4.5235,-6.71158 -6.96,-8.39998c1.7513,5.11679 2.9858,11.28798 8.16,13.92c-0.78648,1.20839 -2.0203,0.1116 -2.88,-0.24002c-4.351,-2.93999 -4.2142,-7.3284 -7.2,-11.51999c-0.85416,-1.8432 -0.85416,-4.5852 -0.96,-6.71999c-0.30552,-1.7052 -3.1855,-2.11681 -2.4,-3.84l3.12,2.64001c2.5397,-6.1284 8.7113,-8.46001 14.64,-9.12c4.2187,-1.26 7.7842,-4.0032 12.24,-4.08l0.24,0.72l-9.84,4.32c4.1842,0.9348 8.2978,-1.53481 12.72,-1.2c-0.17064,-1.02 0.92616,-1.8432 1.68,-2.16c3.7716,-0.5052 7.4748,2.1 10.08,2.4l-8.4,-4.32c-0.51384,-0.3684 -0.3768,-1.3284 -0.24,-1.92001c5.3484,0.59161 10.285,4.43159 15.84,5.75999l6.96,1.68c0.92448,-1.6368 2.9813,-0.9516 4.56001,-0.48c2.1245,-0.4716 4.0435,-1.7052 6,-2.4c-0.0365,-0.4032 0.10128,-2.0484 1.43999,-2.16c0.30648,0.1116 0.85513,0.2484 1.2,0c-2.2649,-2.63161 -6.5155,-2.22 -9.84,-2.4c-0.92712,1.27679 -2.0242,0.0432 -3.36,0.48l-15.36,-2.4c5.5884,1.9632 13.816,4.98 20.88,6.96001c0.47808,0.3516 0.61512,0.7632 0.24,1.2c-11.006,-2.3568 -21.428,-6.06001 -31.68,-10.56001c-5.1074,0.9348 -10.181,2.57999 -15.36,2.39999l0.72,-0.71999c6.2419,-0.3348 10.767,-2.8032 16.56,-3.60001c-0.8568,-0.71159 0.24096,-1.25999 0.24001,-1.92c4.1148,-0.43681 8.5032,0.1116 12.71999,0.24l0.24001,0.48l-0.96,0.96l-8.16,0c1.7832,0.4884 3.1548,0.3516 4.8,1.2l-0.48,0.96c2.5368,1.2084 5.0052,0.2484 7.68,0.72c6.6506,-0.06001 12.82101,1.85999 19.44,1.92c1.3351,0.7632 3.8035,0.9 3.84,3.12l0,0.96001c3.8035,0.2484 7.64259,0.1116 11.75999,0c0.81936,0.38519 0.54552,1.62 0.24001,1.92c-0.79224,0.9348 -2.1629,0.3852 -3.36,0.48c2.84261,1.14 6.4078,-0.23161 8.64,1.92001c-0.31224,2.5116 -3.32899,1.41479 -4.8,2.64001c2.431,0.55679 5.311,0.008 7.68,0.48c1.3332,0.6252 0.50999,1.7232 0,2.16c-0.99841,0.66 -3.0552,0.2484 -3.36,0.96c1.95,1.0716 4.9668,0.66 5.76,3.12c-0.38161,1.2432 -0.79321,2.2032 -2.4,2.4c1.6068,2.5452 2.97839,5.56321 2.64001,8.64001c0.75,-0.74521 2.25838,0.35159 2.87999,1.20001c2.39519,2.8548 4.45219,5.8716 7.2,8.64c0.54385,-4.41478 -2.61101,-7.7052 -5.28,-10.08c0.06381,-0.78 0.2016,-1.3284 0.72,-1.67999c0.5784,0.07681 0.98999,0.89999 1.43999,0.72c-0.31319,-1.19159 0.6468,-1.8768 0.96002,-2.39999l0.72,0c-0.07321,-0.71158 -1.44478,-0.84839 -0.72,-1.67998c-2.37001,-1.91162 -5.93619,-4.65482 -7.67998,-7.44001c1.19518,-2.1516 1.19518,1.27679 2.64,0.96001c1.57219,2.1 4.45218,2.6484 6.48,4.8c-1.6162,-2.42519 -2.7132,-4.62 -1.92,-7.43999c1.1268,2.1348 1.40059,5.28841 3.84,6.71999c-1.20479,-3.07679 -2.5762,-6.23159 -2.64,-9.84c-0.89615,-0.3684 -0.6216,-1.1916 -0.96001,-1.68c0.33841,-0.33479 1.02379,-0.6084 1.20001,-0.24c0.37224,0.72839 0.92064,1.0032 1.67998,1.2c1.1606,1.5852 2.12062,3.0948 3.84001,4.07999c0.20064,-0.3 1.02289,-0.5748 1.68001,-0.24001l-7.2,-6.96001c0.64679,-0.78 0.64679,-2.2884 0,-3.35999c-3.05621,-3.18 -8.2668,-4.9632 -10.08002,-9.84l0.48,-0.24c2.15519,2.5116 5.03521,3.88319 7.43998,6.24l0.23999,-4.56c-2.09618,-2.46001 -5.11319,-3.96841 -7.43997,-5.76c1.91519,-2.1852 3.69839,1.6548 6.00002,1.68c-2.85002,-4.14 -9.43221,-6.1968 -14.88,-8.4c-1.95741,1.92841 -3.46581,-2.1862 -4.08,1.44c-3.4997,0.9 -1.8545,-5.82 -6,-4.8c-0.24288,1.0368 -1.2029,1.17381 -1.92,1.68c-1.0649,-1.6032 -2.84811,-1.1916 -4.32,-0.96c-1.8187,-1.46519 -4.15031,-2.1516 -6,-3.6c0.20448,3.0948 -3.22421,1.5852 -5.04,1.2c-1.8871,-2.21999 -7.2348,2.1684 -6.48,-2.39999c-1.7148,-0.91679 -2.1262,1.55161 -4.07999,0.96001c0.4452,0.5916 0.3084,1.14 0,1.68c-1.7494,0.55679 -2.84621,-0.95161 -4.08,-1.44c-0.1368,0.4884 0.5484,1.0368 -0.24,1.68c-0.9948,-0.2316 -2.09161,-1.05479 -2.88,-0.24c3.8052,5.3568 13.542,4.5348 17.75999,10.8l-0.72,0.48c-5.5555,-4.6884 -12.548,-5.92319 -18.96,-8.88c-3.0506,-0.06001 -5.9306,-2.5284 -8.88,-3.12c3.7716,4.98 9.9432,7.86 15.6,9.84c6.8222,1.72321 14.09,1.9968 20.64,4.8c1.4035,0.6252 2.9119,2.2716 3.12,3.6l-0.72,0.72c-4.0135,-4.5168 -8.9503,-4.24319 -14.4,-5.75999c-9.7716,-1.6368 -19.919,-4.92841 -26.4,-12.24001l-4.8,1.2l0,0.24001c4.0126,2.3052 10.458,2.3052 11.76,7.43999c-0.06841,0.76321 -0.2052,1.9968 -0.96001,2.16c-0.0684,-2.3568 -1.9874,-4.41479 -4.08,-5.28c-4.2158,-0.5052 -8.6045,-5.7168 -12.72,-1.68l-4.32,1.68l3.36,3.84c-2.1919,-0.3684 -4.3865,-3.3852 -6.96,-1.92001l-0.48,1.2c3.6019,1.72321 7.7165,2.27161 10.8,4.8l-0.72,0.24001l-11.04,-3.60001c-2.7055,1.5168 -1.0603,6.18 -4.8,6.72c-0.23712,-1.91161 -3.5278,-2.0484 -1.68,-4.32c-0.61416,-0.4716 -0.61416,-1.2948 -0.72,-1.92001c-4.5562,2.5452 -8.671,6.1116 -12,10.07999c2.6438,0.2832 5.1122,-0.54 7.68,-0.71999c0.72384,0.4548 0.31224,1.27679 -0.24,1.67999c-2.8762,0.5568 -5.6184,1.51681 -8.88,1.2l-0.72,1.2c3.57,1.1748 8.0952,0.21481 11.28,-0.48c1.0658,0.55679 0.51744,1.10519 0,1.68c-3.7332,0.24841 -7.8478,1.62 -12,0.71999c-1.0584,0.21481 -0.51,1.58521 -0.96,2.16c0.58687,2.9916 5.3869,-0.1632 6.24,2.64001c-2.0878,2.1348 -7.2984,1.3116 -8.16,5.52c-0.37219,1.9632 -1.0584,3.4716 -0.48,5.28001c1.3416,-0.1632 1.4784,-2.21999 3.36,-1.43999c0.86155,1.8252 -2.7037,2.78519 -3.6,4.07999l5.52,0.71999c1.2722,-0.78 2.5069,-3.52319 4.32,-2.39998c0.1068,1.3452 -1.6763,2.0316 -2.16,3.12c0.48374,0.008 1.0322,0.8316 0.72,1.44c-2.8416,-0.4716 -3.5269,2.82001 -4.8,4.08c-0.37313,2.30519 -2.0184,3.8148 -1.92,6.24001c0.58687,-1.46521 0.72468,-3.24841 2.4,-4.08c0.93,0.28319 1.6153,-0.6768 2.64,-0.24001c2.2669,2.1684 4.8722,4.3632 8.4,4.32001l0.96,-0.96001c2.7806,3.74519 9.6365,3.33479 13.44,3.12l0.24,0c-2.2603,2.4084 -5.9635,1.0368 -9.12,1.2c3.5681,2.99162 8.3681,5.18521 13.2,4.8c0.24192,-0.3 -0.16968,-0.3 -0.24,-0.48c1.7165,-2.1516 3.3619,0.5916 5.04,0.24001c3.2587,0.7632 5.041,-2.80321 7.92,0l1.2,-0.72l12.72,4.8c3.6338,-0.98521 7.6106,0.9348 11.28001,1.43999l1.43999,-0.23999" id="path19199"/>
    <path d="m36.54,150.3c-3.2878,-1.3632 -6.031,-6.02521 -9.84,-5.28c0.51744,1.3116 2.0268,1.72319 2.64,2.64l1.2,-0.48001c-0.57936,2.99161 3.9458,2.30521 6,3.12001" id="path19201"/>
    <path d="m127.98,137.58c-0.48384,3.16319 -4.18681,4.25999 -6.48,6.48c2.8416,1.2084 6.27,1.62 8.64,3.36l6.48,-0.48l-8.63998,-9.36" id="path19203"/>
    <path d="m26.7,147.66c-2.2248,-1.8768 -2.6362,-4.89482 -6,-4.8c-0.33845,0.3168 -1.0247,0.8652 -0.72,1.67999c1.89,1.24321 4.0838,2.7516 6.72,3.12001" id="path19205"/>
    <path d="m87.42,144.78l1.2,-0.95999l-6.48,3.12c1.7474,-0.5748 3.5306,-1.26001 5.28,-2.15999" id="path19207"/>
    <path d="m111.9,139.25999c-1.5458,1.4832 -3.8765,2.58 -4.08,4.56c1.8487,-1.02 3.3571,-2.66521 4.08,-4.56" id="path19209"/>
    <path d="m105.66,141.42c-0.51649,0.69481 -2.0249,0.69481 -1.92001,1.44c0.71712,-0.4716 1.9519,-0.4716 1.92001,-1.44" id="path19211"/>
    <path d="m86.46,139.74001c3.599,-0.36839 7.5758,-0.91678 11.28,-1.67999c1.0951,-0.88321 0.82128,-2.39159 2.16,-3.12001c0.99192,0.04321 1.6781,0.8652 1.92,1.68002c-0.10488,0.69478 -1.7503,1.37999 -0.72,1.67998c1.9865,-0.71158 4.1803,-4.55159 6.72,-2.15999l0,0.95999c3.3571,0.35161 5.2771,-2.5284 7.2,-5.28c0.68256,-2.0484 0.95712,-4.5168 1.44,-6.48c-0.75744,-1.8768 -2.4029,-3.2484 -3.84,-4.56001l-5.76,0.72c-0.34488,-0.5052 -0.48288,-1.74 0.24,-1.92l2.4,-0.72c-2.8481,-0.8832 -5.8649,-0.3348 -9.12,-0.48c-5.2527,0.95951 -6.82059,-1.6619 -16.421,1.29539c-6.8893,-0.64079 -6.2829,-2.70409 -15.759,-4.46c-4.2374,1.4893 -20.601,4.8821 -21.184,2.5421c-4.9013,1.92841 -2.9626,4.74409 0.28378,7.262c0.48192,1.6884 5.3224,2.96899 4.6005,5.1206c-3.6665,-0.78 -6.4087,-2.97479 -9.12,-5.75999c0.65352,2.2368 2.7113,3.74519 4.08,5.28c3.5671,2.58 6.7219,5.8716 10.8,7.92c0.03552,0.2832 -0.23904,0.55682 -0.48,0.72l-0.96,-0.24001c1.201,1.0368 3.3955,0.21481 4.8,1.20001c7.0978,2.7168 16.422,1.75679 23.76,1.43999l1.68,-0.95999" id="path19213"/>
    <path d="m54.06,137.10001l0,0.24002l0,-0.24002z" id="path19217"/>
    <path d="m52.86,136.14c-0.23808,-0.6084 -1.0613,-0.19679 -1.44,-0.48c0.24192,0.42 0.92712,0.55679 1.44,0.48" id="path19219"/>
    <path d="m50.22,134.94c-3.7697,-2.97481 -7.3349,-6.1284 -10.32,-10.08c-0.85416,1.0716 0.24288,2.3052 0.72,3.12c3.0881,2.6148 5.8303,5.6316 9.6,6.96" id="path19221"/>
    <path d="m38.7,130.14c-0.20352,0.72839 0.48288,1.41479 0.96,1.44c0.07128,-0.5748 -0.75192,-0.8484 -0.96,-1.44" id="path19223"/>
    <path d="m36.06,124.62c-1.1287,0.89999 -0.16872,2.40839 0.48,3.36c1.6829,-1.3632 -1.1971,-1.91161 -0.48,-3.36" id="path19225"/>
    <path d="m124.62,125.34c-0.96384,-0.5052 -1.92381,-1.05479 -3.12,-0.96c0.23616,1.6884 1.8816,0.59161 3.12,0.96" id="path19231"/>
    <path d="m37.98,123.66c1.6145,-2.25481 3.3965,-4.31161 5.76,-6c-3.1855,1.0032 -6.3403,2.6484 -7.68,6.24c0.65448,-0.8484 1.3397,-0.7116 1.92,-0.24" id="path19233"/>
    <path d="m42.54,122.7c0.34512,-0.06 0.34512,-0.4716 0,-0.48l-0.24,-0.48l-1.2,1.44c0.41352,-0.2652 0.82512,-0.9516 1.44,-0.48" id="path19235"/>
    <path d="m116.22,121.5l0.24,0l-0.24,0" id="path19237"/>
    <path d="m79.5,115.26c0.27384,0.66 1.919,0.9348 1.68,2.4l3.6,-0.72l-5.28,-1.68" id="path19239"/>
    <path d="m116.46,116.46c-4.3229,0.5568 -8.1629,-3.2832 -12.24,-1.2c4.2142,-0.3 8.8771,4.08839 12.24,1.2" id="path19241"/>
    <path d="m102.3,115.74l-1.44,0.72l1.44,-0.24l0,-0.48" id="path19243"/>
   </g>
   <path d="m125.82,108.78c-4.9068,-10.003 -15.466,-17.546 -26.64,-19.2c-1.7155,-0.1284 -3.9103,0.42 -4.8,1.68c-0.61872,0.1116 -1.0303,-0.43681 -1.68,0c11.346,2.0316 24.374,6.9684 28.08,19.68c0.1332,0.4548 0.5448,0.4548 0.72,0c-0.72384,-5.1684 -4.289,-9.6948 -7.92,-13.2c2.8078,1.0368 5.4142,3.9168 7.68,6c1.8478,2.8548 3.63,5.7348 4.8,8.64c0.8868,-0.5748 0.3384,-2.4948 -0.24,-3.6" id="path19245"/>
   <g id="svg_2" fill="#844409">
    <path d="m70.62,104.22l-2.64,0l2.39999,0.96c0.48,0.0432 0.06841,-0.6432 0.24001,-0.96" id="path19247"/>
    <path d="m113.34,97.5l0.24001,0l0,0.24l-0.24001,0l0,-0.24z" id="path19249"/>
    <path d="m108.54,94.14c-3.8081,-1.5348 -7.5103,-4.0032 -12,-3.12c3.6665,0.4884 7.7803,1.86 12,3.12" id="path19251"/>
    <path d="m45.9,85.74l-4.32,3.6l0.48,0.96001l7.2,-3.12l-3.36,-1.43999" id="path19255"/>
    <path d="m59.82,83.1l-0.96,-0.96c-3.4958,0.7284 -7.1981,1.8252 -10.32,2.4c3.5335,3.2652 6.9619,-0.8484 10.56,-0.96l0.72,-0.48" id="path19257"/>
    <path d="m63.42,82.14c-0.51384,-0.3684 -1.199,-0.9168 -1.92,-0.96c0.03552,0.5916 1.2694,1.0032 1.92,0.96" id="path19261"/>
    <path d="m99.18,78.78l-5.52,0.72c1.6097,2.5452 3.6665,-0.4716 5.52,-0.72" id="path19263"/>
    <path d="m72.3,74.7c1.9884,1.9968 3.4968,5.9748 6.96,5.52l-6.96,-5.52" id="path19265"/>
   </g>
   <g id="svg_3" fill="#0f0">
    <path d="m99.9,78.78l0.24,0l-0.24,0" id="path19267"/>
    <path d="m147.17999,64.38l0.23999,-0.24l-0.23999,0.24" id="path19275"/>
    <path d="m162.53999,56.22c-1.30971,-0.50616 -2.1329,0.7284 -3.60001,0.72l3.60001,-0.72" id="path19279"/>
   </g>
  </g>
  <path fill="#000000" stroke="#000000" stroke-width="5" d="m100.527,27.2266c-6.509,-0.21617 -13.018,-0.43233 -19.527,-0.6485l-31.957,17.4024c2.10937,4.11327 4.21873,8.22654 6.3281,12.3398l27.2109,2.8477c7.172,-1.58203 14.344,-3.16407 21.516,-4.7461l26.578,2.8476c4.957,-3.375 9.914,-6.75 14.871,-10.125l-2.84799,-12.6562c-3.05867,-2.0039 -6.11734,-4.0078 -9.17601,-6.0117l-32.99599,-1.25l-0.00001,0z" id="svg_11"/>
 </g>
</svg>
