<?xml version="1.0" encoding="UTF-8" standalone="no"?>
<svg width="271.25" xmlns="http://www.w3.org/2000/svg" version="1.1" height="203.75">
 <g id="g19193" transform="matrix(1.25,0,0,-1.25,0,203.75)">
  <path id="path19197" d="m52.38 163.02c-2.6381-1.5684-5.7919-2.94-8.88-4.56-2.6719-2.4948-6.2371-3.7284-8.88-6.96 6.4829 1.0368 12.928 1.5852 19.68 2.16 8.4694 3.4032 17.108 7.1052 26.64 8.16v-0.72c-8.8452-1.7052-16.662-5.1348-24.72-8.16 2.4355-3.0084 5.7262 0.6948 8.64 0.72 7.92 2.7168 16.559 5.46 24.72 6.72 0.20448-0.3 1.0274-0.5748 0.72-0.96l-0.72-0.48c0.88968-0.5052 3.0845 0.3168 3.12-1.44 0.37584-1.3968-1.8187-1.1232-0.96-2.4 7.5065 0.4548 15.324 0.18 22.32-2.4 5.2078 0.7968 10.145 2.8548 15.6 1.44 0.99-1.4652-0.2448-3.1116-0.96-4.32-1.89-0.8484-2.85-1.5348-4.8-2.4 4.2816 1.4148 8.9438 1.8252 13.92 1.2l1.92 0.72c0.78384-1.6032-2.0962-4.8948 0.72-5.28 0.47448 0.3852 1.0238 1.7568 1.68 1.44-1.4794-4.3452-3.5362-9.0084-4.32-13.68 7.0913 3.5748 11.206 11.94 11.52 20.4-0.45192 2.6484-1.6855 5.5284-4.8 6-2.9194 0.4884-6.3478 1.1748-9.12-0.72l0.48 1.2c2.2922 0.42 5.0345 0.9684 7.2 0.48 2.3606-0.1968 4.1429-1.2948 6-2.88 4.3135-9.5232-2.8171-19.397-8.4-27.12-0.0394-2.0148-2.371-4.0716-0.24-5.76 3.4913 2.7852 5.8229 5.2548 8.4 8.88h0.48c0.37128-2.1168-2.5087-2.94-2.16-5.04-2.131-1.3284-1.9942-3.5232-3.36-5.28 2.5997 2.1684 4.6574 4.7748 7.2 7.44 0.61128-2.8032-2.6803-3.9-3.84-6.48-2.6794-3.5916-7.2048-6.06-8.64-10.32 4.1774 2.34 9.9374 6.4548 15.12 4.56 0.30288-0.0252 0.57648-0.8484 0-0.72-5.8687 0.42-12.176-3.0084-16.32-6.96 0.029-1.26-2.4394-2.3568-0.96-4.08 0.98904 0.0768 0.85224-0.8832 1.44-1.2-0.7248-1.1916 0.92064-0.78 0.48-1.68-3.3994-1.8432-2.9878-6.3684-6.72-7.68-4.0838-2.6652-9.0206-4.4484-12.48-8.4-1.2038-0.02616-1.0658 1.0716-2.16 1.2-1.2374-0.9516-2.4713-2.1852-4.32-2.16-1.5797-1.5348-2.6774-3.3168-4.32-4.08l-2.64 2.64c-1.7513-0.5052-2.1619-2.1516-3.12-3.36 0.0364-1.8673-2.4445-4.7418-4.08-3.84-3.6019 0.5232-7.441-1.3968-10.08 1.44-0.37776 0.7284 0.30744 1.5516 0.96 2.16-8.6062 2.1338-12.857-5.5452-18.48-9.6-0.6852 0.0768-1.6452 0.0768-1.92 0.96 0.13776 3.2316 3.0168 5.8368 4.8 8.16-3.0168-0.8148-5.759-3.42-8.88-4.08-0.03384 0.5232-0.85584 1.0716-0.48 1.92 0.30936 0.1116 0.9948 0.5232 0.96 0.96-4.3538 1.8948-6.959-2.22-10.56-2.16-1.0613 0.3516-0.78648 1.3116-0.72 1.92 0.48192 0.7632 1.1671 1.0368 1.92 1.92-0.47808 1.0368-2.3981 0.3516-3.12 1.44-2.2949-0.1284-4.4897 0.5568-6.48 1.68-1.8487-0.98616-4.8665-1.26-5.28-3.84 0.13968-0.3 1.2365-0.3 0.72-0.96-0.71712-0.3-2.0887-0.0252-1.92 0.96 0.10584 2.4432 2.5745 3.54 4.08 4.8-2.7403 1.2084-3.2887 6.1452-6.96 3.84-0.58032 0.3852-1.8142 0.66-1.92 0.96 1.2029 0.5232 3.8081 0.2484 3.36 1.92-1.0603 0.2484-1.6087 1.0716-2.4 1.68-4.831-0.8832-9.4932-2.3916-13.68 0.72v1.44c2.2668-2.0832 7.3406-2.4948 10.56-1.2-1.5742 2.9568-5.8248 3.6432-8.16 6.24-1.9163 2.0652-4.3847 3.3-5.76 6-3.0131 1.0032-5.4816-1.74-7.92-2.4-1.1269-1.1232-2.6353-1.9452-3.12-3.36-0.063744-0.78 1.5825-1.3284 0.72-1.92-1.3322-0.0948-2.2922 0.5916-2.16 1.92 1.3763 4.8432 6.5878 6.2148 10.8 7.92 0.45 0.7632-0.51 1.5852-0.96 1.92l-6.72-1.68c1.6847 1.62 4.1531 2.0316 6.24 2.88l-2.64 5.52c-1.9153 1.3116-4.3837 2.1348-5.76 4.08 1.6509 0.9348 3.2963-1.3968 5.28-1.92-1.1606 2.0316-4.4522 3.9516-6.72 5.28l-6 4.56c0.45187 0.1452 0.040313 0.8316 0.48 0.72l11.52-7.2c-1.4006 2.9232 3.2616 5.3916 0 8.16-3.4575 2.7168-5.7891 7.1052-5.04 12 1.1709 0.0432 2.1309-1.74 2.88-2.64-2.2575-0.7452-0.063744-3.0768 0-4.56l3.12-3.84 6 0.48c-2.6016 4.1568-6.3037 9.6432-5.76 15.84-0.68062 0.3852 0.0047 0.9348 0 1.2 1.9247 0.9684 2.61-1.9116 4.56-2.16l0.72-1.92c2.6784 1.8948 5.6952 3.1284 8.64 4.32-0.75096 1.6884-2.3962 3.7452-4.32 4.08-0.27 0.6252-0.27 1.4484 0.72 1.2 2.849-0.3 3.809-4.4148 6.24-4.8 6.6197 5.7348 14.574 10.945 22.56 13.2"/>
  <g fill="#ff9f40">
   <path id="path19199" d="m88.14 157.02c-1.4062-0.4032-3.0526-1.0884-4.08-2.16 0.2052-3.0432 3.2222 0.3852 4.08-2.4 7.6445 0.7284 15.735 2.3748 23.52 0-2.0258-1.3284-5.4535-1.8768-7.44-3.84 0.20352-0.5052 0.34032-1.0548 0.72-0.96 6.7519 3.4716 15.116 4.7052 22.32 6l1.68-0.24-0.72-0.96c-5.4206-1.3284-10.084-3.7968-15.12-5.76-0.44904-0.9168 0.37416-1.4652 0.72-1.92l5.04 2.16c-0.31224-1.5684 0.7848-2.8032 1.92-2.88 0.9216-3.6252 7.23-3.3516 5.28-8.16h-0.48c-0.0384-2.46-0.5868-5.2032-1.92-7.2-1.1352-0.7452-4.4258-0.6084-3.12-3.12-0.20904 0.0432-0.34584 0.0432-0.24 0-1.3406 2.7852 1.8132 4.98 0.96 8.4-0.6552 0.42-0.6552 2.2032-1.68 1.2l-0.48-0.72c1.6426-0.1968 0.5448-2.2548 0.48-3.36-1.4438 1.2432-2.129 3.1632-2.16 5.04-2.9858 1.6884-1.6145 6.6252-5.28 7.2-1.2713 1.3452-2.7797 3.1284-4.8 3.6-1.9565-0.7452-0.99648-2.3916-3.12-1.2-1.7165 0.4548-2.5397-1.1916-3.36-2.16v-0.96c-2.4703 1.6548-4.9387 4.3968-8.16 4.8-0.48096-0.4032-0.89256-0.8148-0.96-1.44-4.4578 1.3116-9.121 3.78-14.16 4.8-1.1316-0.3348-0.72-1.5684-0.48-2.16 2.64-2.4252 6.8906-3.7968 9.6-5.76-9.7032 0.18-20.674 2.3748-29.52-1.44-0.34128 0.5232 1.1671 2.3052-0.72 2.4-1.9529-0.5052-3.3245-2.5632-5.28-2.88 0.03552 1.14 1.9555 0.8652 1.2 2.64l-0.24 0.24c-3.6665-3.2484-8.4665-7.9116-11.52-11.04 0.58512 2.0316 3.1913 3.6768 2.64 6-2.1919-2.46-4.5235-6.7116-6.96-8.4 1.7513 5.1168 2.9858 11.288 8.16 13.92-0.78648 1.2084-2.0203 0.1116-2.88-0.24-4.351-2.94-4.2142-7.3284-7.2-11.52-0.85416-1.8432-0.85416-4.5852-0.96-6.72-0.30552-1.7052-3.1855-2.1168-2.4-3.84l3.12 2.64c2.5397-6.1284 8.7113-8.46 14.64-9.12 4.2187-1.26 7.7842-4.0032 12.24-4.08l0.24 0.72-9.84 4.32c4.1842 0.9348 8.2978-1.5348 12.72-1.2-0.17064-1.02 0.92616-1.8432 1.68-2.16 3.7716-0.5052 7.4748 2.1 10.08 2.4l-8.4-4.32c-0.51384-0.3684-0.3768-1.3284-0.24-1.92 5.3484 0.5916 10.285 4.4316 15.84 5.76l6.96 1.68c0.92448-1.6368 2.9813-0.9516 4.56-0.48 2.1245-0.4716 4.0435-1.7052 6-2.4-0.0365-0.4032 0.10128-2.0484 1.44-2.16 0.30648 0.1116 0.85512 0.2484 1.2 0-2.2649-2.6316-6.5155-2.22-9.84-2.4-0.92712 1.2768-2.0242 0.0432-3.36 0.48l-15.36-2.4c5.5884 1.9632 13.816 4.98 20.88 6.96 0.47808 0.3516 0.61512 0.7632 0.24 1.2-11.006-2.3568-21.428-6.06-31.68-10.56-5.1074 0.9348-10.181 2.58-15.36 2.4l0.72-0.72c6.2419-0.3348 10.767-2.8032 16.56-3.6-0.8568-0.7116 0.24096-1.26 0.24-1.92 4.1148-0.4368 8.5032 0.1116 12.72 0.24l0.24 0.48-0.96 0.96h-8.16c1.7832 0.4884 3.1548 0.3516 4.8 1.2l-0.48 0.96c2.5368 1.2084 5.0052 0.2484 7.68 0.72 6.6506-0.06 12.821 1.86 19.44 1.92 1.3351 0.7632 3.8035 0.9 3.84 3.12v0.96c3.8035 0.2484 7.6426 0.1116 11.76 0 0.81936 0.3852 0.54552 1.62 0.24 1.92-0.79224 0.9348-2.1629 0.3852-3.36 0.48 2.8426 1.14 6.4078-0.2316 8.64 1.92-0.31224 2.5116-3.329 1.4148-4.8 2.64 2.431 0.5568 5.311 0.008 7.68 0.48 1.3332 0.6252 0.51 1.7232 0 2.16-0.9984 0.66-3.0552 0.2484-3.36 0.96 1.95 1.0716 4.9668 0.66 5.76 3.12-0.3816 1.2432-0.7932 2.2032-2.4 2.4 1.6068 2.5452 2.9784 5.5632 2.64 8.64 0.75-0.7452 2.2584 0.3516 2.88 1.2 2.3952 2.8548 4.4522 5.8716 7.2 8.64 0.54384-4.4148-2.611-7.7052-5.28-10.08 0.0638-0.78 0.2016-1.3284 0.72-1.68 0.5784 0.0768 0.99 0.9 1.44 0.72-0.3132-1.1916 0.6468-1.8768 0.96-2.4h0.72c-0.0732-0.7116-1.4448-0.8484-0.72-1.68-2.37-1.9116-5.9362-4.6548-7.68-7.44 1.1952-2.1516 1.1952 1.2768 2.64 0.96 1.5722 2.1 4.4522 2.6484 6.48 4.8-1.6162-2.4252-2.7132-4.62-1.92-7.44 1.1268 2.1348 1.4006 5.2884 3.84 6.72-1.2048-3.0768-2.5762-6.2316-2.64-9.84-0.89616-0.3684-0.6216-1.1916-0.96-1.68 0.3384-0.3348 1.0238-0.6084 1.2-0.24 0.37224 0.7284 0.92064 1.0032 1.68 1.2 1.1606 1.5852 2.1206 3.0948 3.84 4.08 0.20064-0.3 1.0229-0.5748 1.68-0.24l-7.2-6.96c0.6468-0.78 0.6468-2.2884 0-3.36-3.0562-3.18-8.2668-4.9632-10.08-9.84l0.48-0.24c2.1552 2.5116 5.0352 3.8832 7.44 6.24l0.24-4.56c-2.0962-2.46-5.1132-3.9684-7.44-5.76 1.9152-2.1852 3.6984 1.6548 6 1.68-2.85-4.14-9.4322-6.1968-14.88-8.4-1.9574 1.9284-3.4658-2.1862-4.08 1.44-3.4997 0.9-1.8545-5.82-6-4.8-0.24288 1.0368-1.2029 1.1738-1.92 1.68-1.0649-1.6032-2.8481-1.1916-4.32-0.96-1.8187-1.4652-4.1503-2.1516-6-3.6 0.20448 3.0948-3.2242 1.5852-5.04 1.2-1.8871-2.22-7.2348 2.1684-6.48-2.4-1.7148-0.9168-2.1262 1.5516-4.08 0.96 0.4452 0.5916 0.3084 1.14 0 1.68-1.7494 0.5568-2.8462-0.9516-4.08-1.44-0.1368 0.4884 0.5484 1.0368-0.24 1.68-0.9948-0.2316-2.0916-1.0548-2.88-0.24 3.8052 5.3568 13.542 4.5348 17.76 10.8l-0.72 0.48c-5.5555-4.6884-12.548-5.9232-18.96-8.88-3.0506-0.06-5.9306-2.5284-8.88-3.12 3.7716 4.98 9.9432 7.86 15.6 9.84 6.8222 1.7232 14.09 1.9968 20.64 4.8 1.4035 0.6252 2.9119 2.2716 3.12 3.6l-0.72 0.72c-4.0135-4.5168-8.9503-4.2432-14.4-5.76-9.7716-1.6368-19.919-4.9284-26.4-12.24l-4.8 1.2v0.24c4.0126 2.3052 10.458 2.3052 11.76 7.44-0.0684 0.7632-0.2052 1.9968-0.96 2.16-0.0684-2.3568-1.9874-4.4148-4.08-5.28-4.2158-0.5052-8.6045-5.7168-12.72-1.68l-4.32 1.68 3.36 3.84c-2.1919-0.3684-4.3865-3.3852-6.96-1.92l-0.48 1.2c3.6019 1.7232 7.7165 2.2716 10.8 4.8l-0.72 0.24-11.04-3.6c-2.7055 1.5168-1.0603 6.18-4.8 6.72-0.23712-1.9116-3.5278-2.0484-1.68-4.32-0.61416-0.4716-0.61416-1.2948-0.72-1.92-4.5562 2.5452-8.671 6.1116-12 10.08 2.6438 0.2832 5.1122-0.54 7.68-0.72 0.72384 0.4548 0.31224 1.2768-0.24 1.68-2.8762 0.5568-5.6184 1.5168-8.88 1.2l-0.72 1.2c3.57 1.1748 8.0952 0.2148 11.28-0.48 1.0658 0.5568 0.51744 1.1052 0 1.68-3.7332 0.2484-7.8478 1.62-12 0.72-1.0584 0.2148-0.51 1.5852-0.96 2.16 0.58687 2.9916 5.3869-0.1632 6.24 2.64-2.0878 2.1348-7.2984 1.3116-8.16 5.52-0.37219 1.9632-1.0584 3.4716-0.48 5.28 1.3416-0.1632 1.4784-2.22 3.36-1.44 0.86155 1.8252-2.7037 2.7852-3.6 4.08l5.52 0.72c1.2722-0.78 2.5069-3.5232 4.32-2.4 0.1068 1.3452-1.6763 2.0316-2.16 3.12 0.48374 0.008 1.0322 0.8316 0.72 1.44-2.8416-0.4716-3.5269 2.82-4.8 4.08-0.37313 2.3052-2.0184 3.8148-1.92 6.24 0.58687-1.4652 0.72468-3.2484 2.4-4.08 0.93 0.2832 1.6153-0.6768 2.64-0.24 2.2669 2.1684 4.8722 4.3632 8.4 4.32l0.96-0.96c2.7806 3.7452 9.6365 3.3348 13.44 3.12h0.24c-2.2603 2.4084-5.9635 1.0368-9.12 1.2 3.5681 2.9916 8.3681 5.1852 13.2 4.8 0.24192-0.3-0.16968-0.3-0.24-0.48 1.7165-2.1516 3.3619 0.5916 5.04 0.24 3.2587 0.7632 5.041-2.8032 7.92 0l1.2-0.72 12.72 4.8c3.6338-0.9852 7.6106 0.9348 11.28 1.44l1.44-0.24"/>
   <path id="path19201" d="m36.54 150.3c-3.2878-1.3632-6.031-6.0252-9.84-5.28 0.51744 1.3116 2.0268 1.7232 2.64 2.64l1.2-0.48c-0.57936 2.9916 3.9458 2.3052 6 3.12"/>
   <path id="path19203" d="m127.98 137.58c-0.48384 3.1632-4.1868 4.26-6.48 6.48 2.8416 1.2084 6.27 1.62 8.64 3.36l6.48-0.48-8.64-9.36"/>
   <path id="path19205" d="m26.7 147.66c-2.2248-1.8768-2.6362-4.8948-6-4.8-0.33845 0.3168-1.0247 0.8652-0.72 1.68 1.89 1.2432 4.0838 2.7516 6.72 3.12"/>
   <path id="path19207" d="m87.42 144.78 1.2-0.96-6.48 3.12c1.7474-0.5748 3.5306-1.26 5.28-2.16"/>
   <path id="path19209" d="m111.9 139.26c-1.5458 1.4832-3.8765 2.58-4.08 4.56 1.8487-1.02 3.3571-2.6652 4.08-4.56"/>
   <path id="path19211" d="m105.66 141.42c-0.51648 0.6948-2.0249 0.6948-1.92 1.44 0.71712-0.4716 1.9519-0.4716 1.92-1.44"/>
   <path id="path19213" d="m86.46 139.74c3.599-0.3684 7.5758-0.9168 11.28-1.68 1.0951-0.8832 0.82128-2.3916 2.16-3.12 0.99192 0.0432 1.6781 0.8652 1.92 1.68-0.10488 0.6948-1.7503 1.38-0.72 1.68 1.9865-0.7116 4.1803-4.5516 6.72-2.16v0.96c3.3571 0.3516 5.2771-2.5284 7.2-5.28 0.68256-2.0484 0.95712-4.5168 1.44-6.48-0.75744-1.8768-2.4029-3.2484-3.84-4.56l-5.76 0.72c-0.34488-0.5052-0.48288-1.74 0.24-1.92l2.4-0.72c-2.8481-0.8832-5.8649-0.3348-9.12-0.48-5.2527 0.95951-6.8206-1.6619-16.421 1.2954-6.8893-0.64079-6.2829-2.7041-15.759-4.46-4.2374 1.4893-20.601 4.8821-21.184 2.5421-4.9013 1.9284-2.9626 4.7441 0.28378 7.262 0.48192 1.6884 5.3224 2.969 4.6005 5.1206-3.6665-0.78-6.4087-2.9748-9.12-5.76 0.65352 2.2368 2.7113 3.7452 4.08 5.28 3.5671 2.58 6.7219 5.8716 10.8 7.92 0.03552 0.2832-0.23904 0.5568-0.48 0.72l-0.96-0.24c1.201 1.0368 3.3955 0.2148 4.8 1.2 7.0978 2.7168 16.422 1.7568 23.76 1.44l1.68-0.96"/>
   <path id="path19217" d="m54.06 137.1v0.24-0.24z"/>
   <path id="path19219" d="m52.86 136.14c-0.23808-0.6084-1.0613-0.1968-1.44-0.48 0.24192 0.42 0.92712 0.5568 1.44 0.48"/>
   <path id="path19221" d="m50.22 134.94c-3.7697-2.9748-7.3349-6.1284-10.32-10.08-0.85416 1.0716 0.24288 2.3052 0.72 3.12 3.0881 2.6148 5.8303 5.6316 9.6 6.96"/>
   <path id="path19223" d="m38.7 130.14c-0.20352 0.7284 0.48288 1.4148 0.96 1.44 0.07128-0.5748-0.75192-0.8484-0.96-1.44"/>
   <path id="path19225" d="m36.06 124.62c-1.1287 0.9-0.16872 2.4084 0.48 3.36 1.6829-1.3632-1.1971-1.9116-0.48-3.36"/>
   <path id="path19231" d="m124.62 125.34c-0.96384-0.5052-1.9238-1.0548-3.12-0.96 0.23616 1.6884 1.8816 0.5916 3.12 0.96"/>
   <path id="path19233" d="m37.98 123.66c1.6145-2.2548 3.3965-4.3116 5.76-6-3.1855 1.0032-6.3403 2.6484-7.68 6.24 0.65448-0.8484 1.3397-0.7116 1.92-0.24"/>
   <path id="path19235" d="m42.54 122.7c0.34512-0.06 0.34512-0.4716 0-0.48l-0.24-0.48-1.2 1.44c0.41352-0.2652 0.82512-0.9516 1.44-0.48"/>
   <path id="path19237" d="m116.22 121.5h0.24-0.24"/>
   <path id="path19239" d="m79.5 115.26c0.27384 0.66 1.919 0.9348 1.68 2.4l3.6-0.72-5.28-1.68"/>
   <path id="path19241" d="m116.46 116.46c-4.3229 0.5568-8.1629-3.2832-12.24-1.2 4.2142-0.3 8.8771 4.0884 12.24 1.2"/>
   <path id="path19243" d="m102.3 115.74-1.44 0.72 1.44-0.24v-0.48"/>
  </g>
  <path id="path19245" d="m125.82 108.78c-4.9068-10.003-15.466-17.546-26.64-19.2-1.7155-0.1284-3.9103 0.42-4.8 1.68-0.61872 0.1116-1.0303-0.4368-1.68 0 11.346 2.0316 24.374 6.9684 28.08 19.68 0.1332 0.4548 0.5448 0.4548 0.72 0-0.72384-5.1684-4.289-9.6948-7.92-13.2 2.8078 1.0368 5.4142 3.9168 7.68 6 1.8478 2.8548 3.63 5.7348 4.8 8.64 0.8868-0.5748 0.3384-2.4948-0.24-3.6"/>
  <g fill="#ff9f40">
   <path id="path19247" d="m70.62 104.22h-2.64l2.4 0.96c0.48 0.0432 0.0684-0.6432 0.24-0.96"/>
   <path id="path19249" d="m113.34 97.5h0.24v0.24h-0.24v-0.24z"/>
   <path id="path19251" d="m108.54 94.14c-3.8081-1.5348-7.5103-4.0032-12-3.12 3.6665 0.4884 7.7803 1.86 12 3.12"/>
   <path id="path19255" d="m45.9 85.74-4.32 3.6 0.48 0.96 7.2-3.12-3.36-1.44"/>
   <path id="path19257" d="m59.82 83.1-0.96-0.96c-3.4958 0.7284-7.1981 1.8252-10.32 2.4 3.5335 3.2652 6.9619-0.8484 10.56-0.96l0.72-0.48"/>
   <path id="path19261" d="m63.42 82.14c-0.51384-0.3684-1.199-0.9168-1.92-0.96 0.03552 0.5916 1.2694 1.0032 1.92 0.96"/>
   <path id="path19263" d="m99.18 78.78-5.52 0.72c1.6097 2.5452 3.6665-0.4716 5.52-0.72"/>
   <path id="path19265" d="m72.3 74.7c1.9884 1.9968 3.4968 5.9748 6.96 5.52l-6.96-5.52"/>
  </g>
  <g fill="#0f0">
   <path id="path19267" d="m99.9 78.78h0.24-0.24"/>
   <path id="path19275" d="m147.18 64.38 0.24-0.24-0.24 0.24"/>
   <path id="path19279" d="m162.54 56.22c-1.3097-0.50616-2.1329 0.7284-3.6 0.72l3.6-0.72"/>
  </g>
 </g>
</svg>
