<svg width="450" height="220" xmlns="http://www.w3.org/2000/svg" xmlns:svg="http://www.w3.org/2000/svg">
 <g stroke="null">
  <title>Layer 1</title>
  <path stroke="#000000" transform="rotate(90 163.15715026855472,114.50160980224611) " fill="#6d4d36" fill-rule="nonzero" stroke-width="4" stroke-linecap="round" stroke-miterlimit="4" id="path2383" d="m261.38028,83.18505c1.0593,65.43931 -22.05205,182.33085 -65.9321,182.33085c-45.10985,0 -130.54903,-116.89157 -130.54903,-182.33085c0,-65.4393 64.88411,-119.69773 106.18526,-119.69773c41.30119,0 89.23657,54.25843 90.29587,119.69773z"/>
  <g id="svg_1">
   <path fill="#000000" fill-rule="nonzero" stroke-width="2" stroke-linecap="round" stroke-miterlimit="4" id="path2390" d="m29.32187,135.04152c0,6.1272 -7.33449,13.46167 -11.09997,13.46167c-4.23782,0 -11.09996,-7.33447 -11.09996,-13.46167c0,-6.12717 4.97278,-5.43188 11.09996,-5.43188c6.12718,0 11.09997,-0.69528 11.09997,5.43188z"/>
   <path stroke="#000000" fill="none" fill-opacity="0.75" fill-rule="evenodd" stroke-width="2.85967" stroke-linecap="round" stroke-miterlimit="4" id="path2445" d="m39.49004,133.08409c45.55878,-21.23987 66.58592,-1.77 66.58592,-1.77"/>
   <path stroke="#000000" fill="none" fill-opacity="0.75" fill-rule="evenodd" stroke-width="2.85967" stroke-linecap="round" stroke-miterlimit="4" id="path2447" d="m35.1094,141.04906c33.29294,-21.23988 62.20525,13.27492 62.20525,13.27492"/>
   <path stroke="#000000" fill="none" fill-opacity="0.75" fill-rule="evenodd" stroke-width="2.85967" stroke-linecap="round" stroke-miterlimit="4" id="path2449" d="m35.1094,145.47401c35.04522,-17.69991 41.17813,25.66484 41.17813,25.66484"/>
   <g id="svg_3">
    <path stroke="#000000" fill="#000000" fill-rule="nonzero" stroke-width="2" stroke-linecap="round" stroke-miterlimit="4" id="path2399" d="m58.53084,106.79958c0.00191,5.73842 -3.52173,10.39165 -7.86903,10.39165c-4.34729,0 -7.87092,-4.65324 -7.86901,-10.39165c-0.00191,-5.73843 3.52172,-10.39166 7.86901,-10.39166c4.3473,0 7.87094,4.65324 7.86903,10.39166z"/>
    <path fill="#ffffff" fill-rule="nonzero" stroke-width="2" stroke-linecap="round" stroke-miterlimit="4" id="path2403" d="m52.23562,105.32848c0.00082,1.96986 -0.98588,3.56746 -2.20332,3.56746c-1.21745,0 -2.20415,-1.5976 -2.20333,-3.56746c-0.00082,-1.96986 0.98588,-3.56747 2.20333,-3.56747c1.21744,0 2.20414,1.5976 2.20332,3.56747l0,0z"/>
   </g>
  </g>
  <g stroke="null" id="svg_7">
   <path stroke="#000000" fill="#6d4d36" fill-rule="evenodd" stroke-width="4" stroke-miterlimit="4" id="path3264" d="m279.48846,130.5334c24.3201,-13.96498 50.31601,-51.9882 100.10019,-6.63565c49.78421,45.35255 53.05597,34.17992 64.11801,29.99419c11.06207,-4.18573 -5.10547,12.90201 -19.49185,10.90697c-35.39316,-4.90813 -58.98859,-51.80814 -91.81702,-51.26279c-33.07986,0.54952 -54.49924,38.53129 -68.28928,44.78991l-2.11865,-8.56279l0.04352,-5.66188l17.45508,-13.56795z"/>
   <path stroke="null" id="svg_6" d="m279.0918,142.92778c0,0 25.27295,-34.53661 54.28345,-34.53661c29.0105,0 75.28491,47.95036 73.57544,49.44038c-1.7095,1.48999 -53.64185,-43.88983 -74.99927,-44.19821c-21.35742,-0.30836 -50.90186,28.83189 -51.00952,28.78008" fill-opacity="0.31373" stroke-linecap="null" stroke-linejoin="null" stroke-dasharray="null" stroke-width="4" fill="#6d4d36"/>
  </g>
  <g stroke="null" id="svg_2">
   <path stroke="#000000" fill="#6d4d36" fill-rule="nonzero" stroke-width="4" stroke-linecap="round" stroke-miterlimit="4" id="path2386" d="m143.2971,110.79476c28.57416,-2.639 50.90808,-25.25866 50.90808,-52.76675c0,-29.27979 -25.32213,-53.04578 -56.51912,-53.04575c-31.19698,0 -56.5191,23.76594 -56.5191,53.04575c0,2.05796 0.12819,4.10611 0.37159,6.10323"/>
   <path stroke="null" fill="#000000" fill-opacity="0.31373" fill-rule="nonzero" stroke-width="2" stroke-linecap="round" stroke-miterlimit="4" id="path2427" d="m136.64561,12.51539c-21.20106,0.2803 -40.85439,15.73034 -45.92873,34.87558c9.96545,-6.15282 22.4716,-9.83491 36.0444,-9.83491c27.27838,-0.00003 50.22853,14.81087 56.92786,34.87557c10.66882,-26.73635 -13.74785,-60.11034 -44.59102,-59.88136c-0.82076,-0.03491 -1.63556,-0.04568 -2.4525,-0.03488z"/>
  </g>
 </g>
</svg>