<svg width="220" height="280" xmlns="http://www.w3.org/2000/svg" xmlns:svg="http://www.w3.org/2000/svg">
 <metadata id="metadata8">image/svg+xml</metadata>
 <g>
  <title>Layer 1</title>
  <g id="svg_2">
   <path id="path238" d="m206.66669,116.37064c0,-16.50534 -9.9787,-30.67467 -24.23334,-36.81732c0.68665,-2.744 1.05469,-5.61601 1.05469,-8.57201c0,-19.46803 -15.77875,-35.24934 -35.24805,-35.24934c-3.53735,0 -6.95465,0.528 -10.17731,1.4987c0.02002,-0.49733 0.03729,-0.99603 0.03729,-1.4987c0,-0.16263 -0.01068,-0.32135 -0.01196,-0.48268c0.00128,-0.16133 0.01196,-0.32129 0.01196,-0.48262c0,-19.20136 -15.56396,-34.76666 -34.76666,-34.76666c-19.20129,0 -34.76666,15.5653 -34.76666,34.76666c0,0.16133 0.01068,0.32129 0.01337,0.48262c-0.00269,0.16133 -0.01337,0.32005 -0.01337,0.48268c0,0.8347 0.04001,1.66133 0.09866,2.48132c-3.24133,-0.98262 -6.67865,-1.51596 -10.23866,-1.51596c-19.46802,0 -35.24933,15.78262 -35.24933,35.25066c0,2.95599 0.36932,5.82663 1.056,8.57063c-14.25333,6.14272 -24.23334,20.31203 -24.23334,36.81738c0,15.57729 8.892,29.06798 21.87466,35.70131c-1.64801,4.19998 -2.56131,8.76804 -2.56131,13.552c0,20.53336 16.64798,37.18002 37.18265,37.18002c6.83865,0 13.24268,-1.85468 18.74802,-5.07733c4.22131,11.42126 15.20264,19.564 28.08929,19.564c13.18805,0 24.37469,-8.53067 28.36799,-20.37073c5.44269,3.12402 11.74403,4.9187 18.47069,4.9187c20.53336,0 37.18137,-16.64667 37.18137,-37.1813c0,-4.78267 -0.91467,-9.35068 -2.56001,-13.55066c12.97998,-6.63202 21.87335,-20.12402 21.87335,-35.70135" fill-rule="nonzero" fill="#b3d133"/>
   <path id="path240" d="m175.38934,169.68132c-4.56799,-0.13602 -8.66003,-2.90802 -10.42938,-7.05865c-1.99866,-4.69336 -0.75195,-10.08667 3.09869,-13.42137l0.50269,-0.43729l-3.49072,-4.03204l-0.50397,0.436c-5.60938,4.85735 -7.42401,12.71205 -4.51465,19.54402c0.90271,2.11868 2.18933,3.99066 3.83069,5.57199c-0.88806,1.99603 -2.07874,3.83731 -3.54938,5.47736c-3.17468,3.53867 -7.33063,5.84796 -12.01599,6.67331c-6.43335,1.13333 -12.90131,-0.70667 -17.7453,-5.05066c-0.65204,-0.5827 -1.28137,-1.22937 -1.91998,-1.97598l-0.0014,-0.02005l-0.03728,-0.27597l-0.11737,-0.66135l-0.55732,0.10269c-4.37334,-5.66135 -5.55737,-13.25867 -3.11731,-20.00665c1.33466,-0.2894 2.62799,-0.73737 3.84663,-1.33203c4.08928,-1.98932 7.15735,-5.45468 8.64,-9.75598c0.81201,-2.35866 1.09468,-4.79999 0.84535,-7.2547l-0.06935,-0.66399l-5.30536,0.53867l0.06671,0.664c0.17334,1.68666 -0.02271,3.36133 -0.58002,4.98001c-1.02002,2.95332 -3.12665,5.33333 -5.93335,6.7c-2.77997,1.35066 -6.01196,1.54797 -8.93335,0.53999c-4.82129,-1.66133 -7.98798,-6.20001 -7.88129,-11.29596l0.01599,-0.66667l-5.33331,-0.11334l-0.01471,0.66667c-0.1573,7.42137 4.45465,14.03198 11.47601,16.45331c1.13196,0.38931 2.30396,0.66003 3.492,0.8067c-2.12671,7.83731 -0.50269,16.27867 4.40533,22.76529c0.28534,2.56404 0.11462,5.09735 -0.50665,7.53337c-2.04932,8.00136 -8.64136,14.10002 -16.79736,15.53729c-2.94928,0.51868 -5.92529,0.40404 -8.84399,-0.34265c-8.61864,-2.20395 -14.36536,-11.84796 -15.54797,-20.03868l0.164,-0.04796c13.90929,-4.31198 21.71729,-19.13469 17.40668,-33.04402c-0.70404,-2.27199 -1.73199,-4.46005 -3.05872,-6.50801c4.12537,-2.70929 6.85468,-7.00801 7.52538,-11.892c0.33997,-2.46531 0.14526,-4.91869 -0.57738,-7.28535l-0.1933,-0.6373l-5.10266,1.55469l0.19464,0.63867c0.49731,1.62799 0.63068,3.30931 0.396,5.00001c-0.69464,5.05196 -4.53467,9.04129 -9.56134,9.92397c-1.19061,0.21069 -2.40668,0.23332 -3.61334,0.06802c-5.05328,-0.69734 -9.04263,-4.53601 -9.92664,-9.5547l-0.116,-0.65865l-5.25201,0.92664l0.11469,0.65605c1.28799,7.30794 7.09598,12.89998 14.452,13.91327c1.75732,0.24133 3.52795,0.20938 5.26129,-0.09595c0.46802,-0.0827 0.94672,-0.192 1.48004,-0.34271c1.26129,1.79605 2.23065,3.76933 2.88269,5.87201c1.664,5.36804 1.1333,11.07071 -1.49207,16.05734c-2.62799,4.98534 -7.03198,8.64798 -12.40131,10.31334c-0.85999,0.26665 -1.744,0.48001 -2.62534,0.6373c-7.508,1.32266 -15.10934,-1.52533 -19.92798,-7.44136c0.444,-1.31595 0.72665,-2.65195 0.84,-3.97461c0.392,-4.53073 -1.00534,-8.94269 -3.93332,-12.42401c-1.60669,-1.90671 -3.55603,-3.40404 -5.79337,-4.45331l-0.60263,-0.28267l-2.26404,4.83066l0.604,0.28131c1.53467,0.72 2.87201,1.74806 3.97467,3.05734c2.01068,2.38933 2.96933,5.42 2.70132,8.53197c-0.26801,3.11203 -1.73199,5.93205 -4.12131,7.944c-1.58401,1.32939 -3.48935,2.22267 -5.50934,2.5787c-2.84537,0.50131 -5.76935,-0.07336 -8.23199,-1.61868l-0.56534,-0.35599l-2.83469,4.51862l0.564,0.35472c3.58667,2.25064 7.84537,3.08931 11.992,2.35863c2.944,-0.51999 5.716,-1.81865 8.01736,-3.75728c0.896,-0.752 1.72531,-1.61867 2.47333,-2.58534c5.54663,5.7653 13.452,8.7093 21.41733,7.9653c1.56264,10.04402 8.64532,21.41603 19.46802,24.18405c0.63733,0.16133 1.27734,0.26794 1.91864,0.38397l0,64.76668l10.65332,0l0,-65.04271c9.52399,-2.24661 17.11603,-9.61597 19.5573,-19.14929c0.28937,-1.13602 0.5,-2.31473 0.63606,-3.58002c5.81598,4.34531 13.17595,6.10397 20.39197,4.83334c5.87335,-1.0347 11.08002,-3.9267 15.05864,-8.36539c1.58539,-1.76794 2.93065,-3.77063 4.00801,-5.95865c2.07866,1 4.38806,1.57335 6.72136,1.66934l0.62799,0.02533l0.06262,-0.62535c0.13739,-1.36667 0.24274,-2.72931 0.30939,-4.05194l0.03601,-0.67871l-0.67999,-0.01999" fill-rule="nonzero" fill="#361b16"/>
   <path id="path242" d="m41.79861,81.7c0,-15.46399 12.53467,-28 27.99869,-28c2.34668,0 4.61333,0.32135 6.79465,0.86537c-4.44397,-3.85202 -10.228,-6.1987 -16.57068,-6.1987c-13.99197,0 -25.33331,11.34264 -25.33331,25.33333c0,8.15469 3.86798,15.38934 9.85333,20.02266c-1.74133,-3.64668 -2.74268,-7.71335 -2.74268,-12.02266" fill-rule="nonzero" fill="#8ab526"/>
   <path id="path244" d="m86.31866,29.68001c10.93463,-10.93463 28.664,-10.93333 39.59735,0c1.65863,1.66003 3.03602,3.48933 4.19202,5.41602c-0.4187,-5.86667 -2.84937,-11.61601 -7.33337,-16.1c-9.89465,-9.89336 -25.93201,-9.89336 -35.82532,0c-5.76801,5.76667 -8.14935,13.61602 -7.19202,21.12533c1.34663,-3.80931 3.51331,-7.39336 6.56134,-10.44135" fill-rule="nonzero" fill="#8ab526"/>
   <path id="path246" d="m140.09735,54.98001c15.46265,0 28,12.53731 27.99866,28c0,2.34668 -0.32001,4.61334 -0.86407,6.79337c3.85205,-4.44402 6.19873,-10.228 6.19873,-16.56934c0,-13.992 -11.34265,-25.33334 -25.3333,-25.33334c-8.15602,0 -15.38934,3.86798 -20.02272,9.85333c3.64532,-1.74135 7.71199,-2.74402 12.02272,-2.74402" fill-rule="nonzero" fill="#8ab526"/>
  </g>
 </g>
</svg>