<svg width="410" height="510" xmlns="http://www.w3.org/2000/svg" xmlns:svg="http://www.w3.org/2000/svg">
 <metadata id="metadata8">image/svg+xml</metadata>
 <g>
  <title>Layer 1</title>
  <path fill="#68431a" fill-rule="nonzero" d="m342.59576,27.07918c-8.46375,-8.33627 -16.6062,54.18504 -143.10614,54.18504c-126.50256,0 -134.64378,-62.52129 -143.10754,-54.18504c-8.46252,8.33626 -43.52374,136.15501 -10.88129,205.22124c32.6438,69.06503 153.98883,53.19626 153.98883,53.19626c0,0 121.34375,15.86877 153.98749,-53.19626c32.64246,-69.06622 -2.41882,-196.88499 -10.88135,-205.22124" id="path242"/>
  <path fill="#934924" fill-rule="nonzero" d="m193.10083,180.24414c0,38.11624 -30.89874,69.01627 -69.0163,69.01627c-38.11621,0 -69.01624,-30.90001 -69.01624,-69.01627c0,-38.11752 30.90002,-69.01748 69.01624,-69.01748c38.11755,0 69.0163,30.89996 69.0163,69.01748" id="path244"/>
  <path fill="#fbc308" fill-rule="nonzero" d="m171.92584,180.24414c0,26.4213 -21.41876,47.83998 -47.84131,47.83998c-26.4212,0 -47.84126,-21.41869 -47.84126,-47.83998c0,-26.4225 21.42004,-47.84125 47.84126,-47.84125c26.42255,0 47.84131,21.41875 47.84131,47.84125" id="path246"/>
  <path fill="#ffff00" fill-rule="nonzero" d="m171.92584,180.24414c0,26.4213 -21.41876,47.83998 -47.84131,47.83998c-26.4212,0 -47.84126,-21.41869 -47.84126,-47.83998c0,-26.4225 21.42004,-47.84125 47.84126,-47.84125c26.42255,0 47.84131,21.41875 47.84131,47.84125" id="path248"/>
  <path fill="#e2e1e1" fill-rule="nonzero" d="m320.6933,452.21793c-1.1637,0 -2.32245,-0.04498 -3.47375,-0.13495c1.14996,0.08875 2.31006,0.13495 3.47375,0.13495c25.93872,0 48.67871,-22.40247 61.37122,-56.01126c0.00134,-0.00244 -0.00122,0.00131 0.00134,-0.00122c-12.69385,33.61502 -35.4314,56.01248 -61.37256,56.01248m-3.47876,-0.13495c-0.02374,-0.0025 -0.04626,-0.00385 -0.06879,-0.00629c0.0238,0.00244 0.04504,0.00378 0.06879,0.00629m-0.13,-0.01007c-0.005,-0.00122 -0.01001,-0.00122 -0.01379,-0.00122c0.00378,0 0.00879,0 0.01379,0.00122" id="path260"/>
  <path fill="#d8d7d8" fill-rule="nonzero" d="m382.06464,396.20667c2.78247,-7.36624 5.07996,-15.26749 6.82495,-23.59253c-1.74377,8.32254 -4.04382,16.22879 -6.82373,23.59131c-0.00244,0.00244 0,-0.00131 -0.00122,0.00122m10.69861,-61.79001c0,-0.05621 0,-0.11252 0,-0.16748c0,0.05496 0,0.11127 0,0.16626l0,0m0,-0.215c0,-0.04752 -0.00122,-0.09378 -0.00122,-0.1413c0,0.04623 0.00122,0.09378 0.00122,0.1413m-0.00122,-0.1738c0,-0.05499 0,-0.11246 0,-0.16748c0,0.05502 0,0.11249 0,0.16748m0,-0.20621c0,-0.04755 0,-0.09378 0,-0.14252c0,0.04752 0,0.09628 0,0.14252m-0.00122,-0.17624c0,-0.05634 0,-0.11749 0,-0.17252c0,0.05731 0,0.11374 0,0.17252m0,-0.19501c0,-0.05624 -0.00122,-0.10257 -0.00122,-0.15756c0,0.05127 0.00122,0.10507 0.00122,0.15756m-0.00122,-0.18756c0,-0.05997 -0.00134,-0.11746 -0.00134,-0.17624c0,0.05756 0.00134,0.11749 0.00134,0.17624m-0.00134,-0.18118c0,-0.06003 -0.00122,-0.11002 -0.00122,-0.16876c0,0.05502 0.00122,0.11374 0.00122,0.16876m-0.00122,-0.20255c-0.00122,-0.06 -0.00122,-0.11377 -0.00122,-0.17261c0,0.05762 0,0.11496 0.00122,0.17261m-0.00122,-0.1738c-0.00134,-0.06015 -0.00134,-0.11743 -0.00256,-0.17749c0.00122,0.06128 0.00122,0.11618 0.00256,0.17749m-0.00256,-0.20636c-0.00116,-0.11859 -0.00235,-0.23508 -0.00357,-0.35376c0.00122,0.11749 0.00241,0.23517 0.00357,0.35376m-0.00357,-0.38132c-0.00134,-0.05127 -0.00134,-0.10254 -0.00256,-0.15381c0.00122,0.05005 0.00122,0.10376 0.00256,0.15381m-0.00256,-0.18259c0,-0.05997 -0.00122,-0.11618 -0.00244,-0.17493c0.00122,0.05743 0.00244,0.11749 0.00244,0.17493m-0.00244,-0.19116c0,-0.05127 -0.00122,-0.10254 -0.00256,-0.15381c0.00134,0.05255 0.00256,0.10254 0.00256,0.15381m-0.00256,-0.19632c-0.00122,-0.0549 -0.00122,-0.11374 -0.00244,-0.1687c0.00122,0.05496 0.00122,0.11499 0.00244,0.1687m-0.00244,-0.18109c-0.00134,-0.0513 -0.00256,-0.10751 -0.00256,-0.15878c0,0.05249 0.00122,0.10748 0.00256,0.15878m-0.00378,-0.20126c-0.00122,-0.05127 -0.00122,-0.10126 -0.00244,-0.15253c0.00122,0.05127 0.00122,0.10126 0.00244,0.15253m-0.00244,-0.17111c-0.00134,-0.05884 -0.00256,-0.1087 -0.00378,-0.16745c0.00122,0.05731 0.00244,0.10999 0.00378,0.16745m-0.00378,-0.21249c-0.00122,-0.04248 -0.00244,-0.08374 -0.00244,-0.12747c0,0.04373 0.00122,0.08377 0.00244,0.12747m-0.00378,-0.17752c-0.00122,-0.05493 -0.00244,-0.10498 -0.00244,-0.16c0,0.05252 0.00122,0.1088 0.00244,0.16m-0.00378,-0.2037c-0.00119,-0.03998 -0.00241,-0.08627 -0.00241,-0.12503c0,0.04126 0.00122,0.08374 0.00241,0.12503m-0.0036,-0.17874c-0.00119,-0.0513 -0.00253,-0.10254 -0.00375,-0.15375c0.00122,0.05121 0.00256,0.10126 0.00375,0.15375m-0.00497,-0.22125c-0.00134,-0.03131 -0.00134,-0.05997 -0.00256,-0.09125c0.00122,0.02997 0.00122,0.06125 0.00256,0.09125m-0.00378,-0.17624c-0.00122,-0.02756 -0.00122,-0.05624 -0.00244,-0.08377c0.00122,0.02753 0.00122,0.05621 0.00244,0.08377m-0.00623,-0.23126c0,-0.01999 -0.00134,-0.04007 -0.00134,-0.05875c0,0.01868 0.00134,0.03998 0.00134,0.05875m-0.00378,-0.16626c0,-0.01126 -0.00122,-0.02875 -0.00122,-0.04004c0,0.01382 0.00122,0.02625 0.00122,0.04004m-0.01123,-0.39624c0,-0.00748 0,-0.01505 0,-0.02374c0,0.0087 0,0.01627 0,0.02374" id="path262"/>
  <path fill="#d8d7d8" fill-rule="nonzero" d="m200.12085,81.25413l0,0c118.00378,-0.19997 132.54376,-54.94003 140.86249,-54.94003c0.1001,0 0.19873,0.00755 0.29749,0.0238c-0.09875,-0.01503 -0.19739,-0.0238 -0.29749,-0.0238c-8.31628,0 -22.84247,54.75755 -140.86249,54.95004m143.69635,-52.47871c-0.00134,-0.00252 -0.00391,-0.00626 -0.00513,-0.00877c0.00122,0.00374 0.00256,0.00626 0.00513,0.00877m-0.01257,-0.02007c-0.00256,-0.00496 -0.005,-0.00999 -0.00879,-0.01495c0.00378,0.00496 0.00623,0.00999 0.00879,0.01495m-0.01245,-0.02242c-0.44006,-0.755 -0.84253,-1.315 -1.19641,-1.66383c0.35388,0.35004 0.75513,0.90881 1.19641,1.66383m-1.23755,-1.7038c-0.00256,-0.00252 -0.005,-0.00496 -0.00879,-0.00748c0.00378,0.00252 0.00623,0.00496 0.00879,0.00748" id="path270"/>
  <path fill="#934924" fill-rule="nonzero" d="m272.31329,249.26041c-38.11749,0 -69.01625,-30.89996 -69.01625,-69.01628c0,-38.11746 30.89874,-69.01748 69.01625,-69.01748c38.11621,0 69.01624,30.90003 69.01624,69.01748c0,38.11629 -30.89999,69.01628 -69.01624,69.01628m0,-116.85751c-26.4225,0 -47.84125,21.41875 -47.84125,47.84125c0,26.42131 21.41875,47.84004 47.84125,47.84004c26.42126,0 47.84125,-21.41873 47.84125,-47.84004c0,-26.4225 -21.41998,-47.84125 -47.84125,-47.84125" id="path274"/>
  <path stroke="#000000" d="m90.33331,188.58646c0,0 34.00488,-62.66978 70.18738,0" id="path3187" stroke-miterlimit="4" stroke-width="10" fill="none"/>
  <path fill="#ffff00" fill-rule="nonzero" d="m318.28571,181.22284c0,26.42131 -21.41882,47.83997 -47.84131,47.83997c-26.42125,0 -47.84131,-21.41866 -47.84131,-47.83997c0,-26.42252 21.42004,-47.84125 47.84131,-47.84125c26.42249,0 47.84131,21.41873 47.84131,47.84125" id="svg_14"/>
  <path stroke="#000000" d="m238.83331,188.59329c0,0 34.00488,-62.66982 70.18738,0" stroke-miterlimit="4" stroke-width="10" fill="none" id="svg_1"/>
  <path fill="#e2e1e1" fill-rule="nonzero" d="m1019.35999,521.55127c-1.1637,0 -2.32245,-0.04498 -3.47375,-0.13495c1.14996,0.08875 2.31006,0.13495 3.47375,0.13495c25.93872,0 48.67871,-22.40247 61.37122,-56.01126c0.00134,-0.00244 -0.00122,0.00131 0.00134,-0.00122c-12.69385,33.61502 -35.4314,56.01248 -61.37256,56.01248m-3.47876,-0.13495c-0.02374,-0.0025 -0.04626,-0.00385 -0.06879,-0.00629c0.0238,0.00244 0.04504,0.00378 0.06879,0.00629m-0.13,-0.01007c-0.005,-0.00122 -0.01001,-0.00122 -0.01379,-0.00122c0.00378,0 0.00879,0 0.01379,0.00122" id="path260"/>
  <path fill="#d8d7d8" fill-rule="nonzero" d="m1080.73132,465.54001c2.78247,-7.36624 5.07996,-15.26749 6.82495,-23.59253c-1.74377,8.32254 -4.04382,16.22879 -6.82373,23.59131c-0.00244,0.00244 0,-0.00131 -0.00122,0.00122m10.69861,-61.79001c0,-0.05621 0,-0.11252 0,-0.16748c0,0.05496 0,0.11127 0,0.16626l0,0m0,-0.215c0,-0.04752 -0.00122,-0.09378 -0.00122,-0.1413c0,0.04623 0.00122,0.09378 0.00122,0.1413m-0.00122,-0.1738c0,-0.05499 0,-0.11246 0,-0.16748c0,0.05502 0,0.11249 0,0.16748m0,-0.20621c0,-0.04755 0,-0.09378 0,-0.14252c0,0.04752 0,0.09628 0,0.14252m-0.00122,-0.17624c0,-0.05634 0,-0.11749 0,-0.17252c0,0.05731 0,0.11374 0,0.17252m0,-0.19501c0,-0.05624 -0.00122,-0.10257 -0.00122,-0.15756c0,0.05127 0.00122,0.10507 0.00122,0.15756m-0.00122,-0.18756c0,-0.05997 -0.00134,-0.11746 -0.00134,-0.17624c0,0.05756 0.00134,0.11749 0.00134,0.17624m-0.00134,-0.18118c0,-0.06003 -0.00122,-0.11002 -0.00122,-0.16876c0,0.05502 0.00122,0.11374 0.00122,0.16876m-0.00122,-0.20255c-0.00122,-0.06 -0.00122,-0.11377 -0.00122,-0.17261c0,0.05762 0,0.11499 0.00122,0.17261m-0.00122,-0.1738c-0.00134,-0.06012 -0.00134,-0.11743 -0.00256,-0.17749c0.00122,0.06128 0.00122,0.11618 0.00256,0.17749m-0.00256,-0.20633c-0.00122,-0.11862 -0.00244,-0.23505 -0.00366,-0.35376c0.00122,0.11749 0.00244,0.23514 0.00366,0.35376m-0.00366,-0.38132c-0.00134,-0.05118 -0.00134,-0.10245 -0.00256,-0.15372c0.00122,0.05005 0.00122,0.10376 0.00256,0.15372m-0.00256,-0.1825c0,-0.05997 -0.00122,-0.11618 -0.00244,-0.17493c0.00122,0.05743 0.00244,0.11749 0.00244,0.17493m-0.00244,-0.19116c0,-0.05127 -0.00122,-0.10254 -0.00256,-0.15381c0.00134,0.05255 0.00256,0.10254 0.00256,0.15381m-0.00256,-0.19632c-0.00122,-0.05499 -0.00122,-0.11374 -0.00244,-0.16876c0.00122,0.05502 0.00122,0.11505 0.00244,0.16876m-0.00244,-0.18118c-0.00134,-0.05127 -0.00256,-0.10751 -0.00256,-0.15878c0,0.05249 0.00122,0.10751 0.00256,0.15878m-0.00378,-0.20129c-0.00122,-0.05124 -0.00122,-0.10123 -0.00244,-0.1525c0.00122,0.05127 0.00122,0.10126 0.00244,0.1525m-0.00244,-0.17111c-0.00134,-0.05884 -0.00256,-0.1087 -0.00378,-0.16745c0.00122,0.05731 0.00244,0.10999 0.00378,0.16745m-0.00378,-0.21249c-0.00122,-0.04248 -0.00244,-0.08374 -0.00244,-0.12747c0,0.04373 0.00122,0.08377 0.00244,0.12747m-0.00378,-0.17752c-0.00122,-0.05493 -0.00244,-0.10498 -0.00244,-0.16c0,0.05252 0.00122,0.1088 0.00244,0.16m-0.00378,-0.2037c-0.00122,-0.03998 -0.00244,-0.08627 -0.00244,-0.12503c0,0.04126 0.00122,0.08374 0.00244,0.12503m-0.00366,-0.17874c-0.00122,-0.0513 -0.00256,-0.10254 -0.00378,-0.15375c0.00122,0.05121 0.00256,0.10126 0.00378,0.15375m-0.005,-0.22125c-0.00134,-0.03131 -0.00134,-0.05997 -0.00256,-0.09125c0.00122,0.02997 0.00122,0.06125 0.00256,0.09125m-0.00378,-0.17624c-0.00122,-0.02756 -0.00122,-0.05624 -0.00244,-0.08377c0.00122,0.02753 0.00122,0.05621 0.00244,0.08377m-0.00623,-0.23126c0,-0.01999 -0.00134,-0.04007 -0.00134,-0.05875c0,0.01868 0.00134,0.03998 0.00134,0.05875m-0.00378,-0.16626c0,-0.01126 -0.00122,-0.02875 -0.00122,-0.04004c0,0.01382 0.00122,0.02625 0.00122,0.04004m-0.01123,-0.39624c0,-0.00748 0,-0.01505 0,-0.02374c0,0.0087 0,0.01627 0,0.02374" id="path262"/>
  <path fill="#d8d7d8" fill-rule="nonzero" d="m898.78754,150.58746l0,0c118.00378,-0.19997 132.54376,-54.94003 140.86249,-54.94003c0.1001,0 0.19873,0.00755 0.29749,0.0238c-0.09875,-0.01503 -0.19739,-0.0238 -0.29749,-0.0238c-8.31628,0 -22.84247,54.75755 -140.86249,54.95004m143.69635,-52.47871c-0.00134,-0.00252 -0.00391,-0.00626 -0.00513,-0.00877c0.00122,0.00374 0.00256,0.00626 0.00513,0.00877m-0.01257,-0.02007c-0.00256,-0.00496 -0.005,-0.00999 -0.00879,-0.01495c0.00378,0.00496 0.00623,0.00999 0.00879,0.01495m-0.01245,-0.02242c-0.44006,-0.755 -0.84253,-1.315 -1.19641,-1.66383c0.35388,0.35004 0.75513,0.90881 1.19641,1.66383m-1.23755,-1.7038c-0.00256,-0.00252 -0.005,-0.00496 -0.00879,-0.00748c0.00378,0.00252 0.00623,0.00496 0.00879,0.00748" id="path270"/>
  <path fill="#5b3a16" fill-rule="nonzero" d="m229.01831,287.07065c-8.67499,0 -10.664,1.75 -21.19202,-0.776c-10.52899,-2.52698 -8.099,-67.724 -6.88196,-49.58298c1.21796,18.14099 -0.55304,0.00098 -0.82301,0.004l0,-155.46201c118.02199,-0.18201 132.54195,-54.93951 140.86201,-54.93951c0.09998,0 0.19995,0.0087 0.29993,0.0237c0.43005,0.0713 0.8501,0.29749 1.26001,0.69379c0.01001,0.0025 0.01001,0.005 0.01001,0.0075c0.01001,0.0138 0.03003,0.0275 0.04004,0.04l0,0c0.35999,0.3487 0.76001,0.9087 1.19995,1.6637c0,0.00249 0,0.005 0,0.0075c0.01001,0.0051 0.01001,0.00999 0.01001,0.015c0,0.0038 0.01001,0.0088 0.01001,0.0113c0,0.0025 0,0.0062 0,0.0087c10.01001,17.2553 40.26001,134.96429 10.54004,201.4713c0.02002,0.01299 0.03003,0.024 0.04993,0.03601c-0.29993,0.67299 -0.60999,1.34499 -0.92993,2.00798c-9.13998,19.34001 -25.22998,32.01801 -43.67004,40.25198c-26.68094,11.91302 -58.26398,14.51801 -80.78493,14.51801m43.29497,-175.84399c-38.11699,0 -69.01601,30.9 -69.01601,69.01699c0,38.117 30.89902,69.017 69.01601,69.017c38.12,0 69.02002,-30.89999 69.02002,-69.017c0,-38.11699 -30.90002,-69.01699 -69.02002,-69.01699" id="path272"/>
  <g id="svg_3">
   <polygon id="svg_10" fill="#000000" points="198,203.97489166259766 211.2515869140625,218.92731475830078 224.503173828125,233.8797378540039 198,233.8797378540039 171.49676513671875,233.8797378540039 184.74835205078125,218.92731475830078 198,203.97489166259766 211.2515869140625,218.92731475830078 " stroke-width="null"/>
   <polygon fill="#000000" points="198.66668701171875,233.71417999267578 211.91827392578125,262.66663360595703 225.16986083984375,291.61902618408203 198.66668701171875,291.61902618408203 172.16351318359375,291.61902618408203 185.41510009765625,262.66663360595703 198.66668701171875,233.71417999267578 211.91827392578125,262.66663360595703 " stroke-width="null" id="svg_13" transform="rotate(-180 198.66668701171878,262.6665954589844) "/>
  </g>
 </g>
</svg>