<svg width="410" height="510" xmlns="http://www.w3.org/2000/svg" xmlns:svg="http://www.w3.org/2000/svg">
 <metadata id="metadata8">image/svg+xml</metadata>
 <g>
  <title>Layer 1</title>
  <path fill="#444444" fill-opacity="0.4" fill-rule="nonzero" d="m10.66833,317.76666c0,65.05875 32.26624,117.80127 72.06879,117.80127c5.80121,0 11.43994,-1.12875 16.84497,-3.24503c0.67126,0.62122 1.35248,1.23499 2.03876,1.84372l0.14246,0.12628c2.80249,2.47873 5.73003,4.85748 8.77502,7.13248l0.06873,0.04999c0.9538,0.71127 1.92004,1.41125 2.89507,2.09998c0.1275,0.09003 0.25372,0.17877 0.38123,0.26758c0.90503,0.63501 1.81873,1.26123 2.74377,1.87744c0.12744,0.0863 0.25494,0.17249 0.38245,0.25751c1.00757,0.66754 2.02496,1.32629 3.05505,1.97247l0.06873,0.04382c2.17993,1.36627 4.40619,2.6825 6.67999,3.94623l0.19873,0.10876c1.01624,0.56378 2.04247,1.11499 3.07745,1.65753c0.2088,0.10999 0.41882,0.21747 0.62878,0.32623c0.91498,0.47369 1.83624,0.94 2.76501,1.39746c0.24004,0.11749 0.47876,0.23627 0.7188,0.35254c0.95868,0.46625 1.92372,0.92249 2.89746,1.37122c0.18373,0.08502 0.36499,0.1712 0.55,0.255c2.35248,1.07373 4.74376,2.09503 7.17371,3.06c0.13501,0.05377 0.2738,0.10498 0.40997,0.15875c1.03888,0.40997 2.08507,0.81 3.13884,1.19873c0.30621,0.11377 0.61499,0.22375 0.9225,0.33502c0.90125,0.32745 1.80742,0.64752 2.71869,0.95996c0.34874,0.12006 0.7,0.23877 1.05127,0.35626c0.90631,0.30493 1.81879,0.60004 2.73627,0.88867c0.32875,0.10376 0.65503,0.21002 0.98376,0.31128c1.08124,0.3338 2.16997,0.65631 3.26372,0.96875c0.15376,0.04376 0.30377,0.09134 0.45752,0.13379c1.27754,0.36127 2.56244,0.70874 3.85492,1.04004c0.18507,0.04749 0.37257,0.09003 0.55763,0.13745c1.06995,0.27124 2.14368,0.53369 3.2249,0.78369c0.39131,0.09009 0.78633,0.17627 1.18005,0.26514c0.88745,0.19873 1.77997,0.39246 2.67499,0.57861c0.4425,0.09253 0.88745,0.18127 1.33252,0.27002c0.87366,0.17383 1.75122,0.34009 2.63124,0.50122c0.43622,0.07889 0.87244,0.15881 1.31,0.23633c0.97125,0.16876 1.94873,0.32758 2.92627,0.48126c0.33875,0.05249 0.67377,0.11005 1.01251,0.15997c1.32123,0.19873 2.64867,0.38373 3.98125,0.55249c0.18115,0.02252 0.36499,0.0412 0.5462,0.06372c1.14252,0.14001 2.28876,0.2713 3.43994,0.38879c0.44385,0.04626 0.88879,0.08502 1.3338,0.12622c0.90001,0.08624 1.80255,0.16632 2.70624,0.23877c0.50122,0.03998 1.00378,0.07623 1.50623,0.11127c0.87251,0.06122 1.74635,0.11493 2.62257,0.1637c0.50243,0.02875 1.00371,0.05627 1.50615,0.08002c0.93135,0.04254 1.86633,0.07623 2.80255,0.10498c0.4375,0.01373 0.87378,0.03131 1.31256,0.04132c1.36993,0.03247 2.74365,0.05121 4.12244,0.05121c1.39374,0 2.78125,-0.02002 4.16626,-0.05252c0.43878,-0.0112 0.875,-0.02872 1.3125,-0.04123c0.95624,-0.02997 1.91125,-0.06494 2.86249,-0.10999c0.49121,-0.02252 0.98126,-0.04999 1.47125,-0.07751c0.92378,-0.05127 1.84497,-0.11005 2.76501,-0.17627c0.46129,-0.03247 0.92377,-0.06494 1.38373,-0.1012c1.03998,-0.0838 2.07501,-0.17755 3.10754,-0.27881c0.32001,-0.03119 0.64124,-0.05743 0.95874,-0.08997c1.38744,-0.1438 2.7688,-0.30127 4.14252,-0.47748l0.08997,-0.01251c1.32629,-0.16998 2.64374,-0.35754 3.95752,-0.55878c0.30499,-0.04626 0.60748,-0.09625 0.91125,-0.14374c1.06122,-0.16882 2.11743,-0.34375 3.16998,-0.53125c0.32622,-0.05756 0.65247,-0.11749 0.97748,-0.17627c1.08751,-0.19995 2.17003,-0.40997 3.24878,-0.62872c0.23871,-0.04877 0.47748,-0.09497 0.71625,-0.14624c4.1087,-0.85504 8.14624,-1.85626 12.10754,-2.99634l0.06995,-0.02118c1.32379,-0.38123 2.63626,-0.78003 3.94125,-1.19244l0.06128,-0.0188c21.25494,-6.72498 40.1062,-17.49133 55.18872,-31.17648c2.8725,0.96506 5.80756,1.64877 8.79492,2.03751l0.23126,0.03381c0.3913,0.04874 0.78632,0.08368 1.17883,0.12244c0.22498,0.02252 0.44867,0.05127 0.67377,0.07013c0.17371,0.01486 0.34741,0.02005 0.5199,0.03244c1.06006,0.0762 2.125,0.12265 3.19507,0.12265c39.80371,0 72.06995,-52.74127 72.06995,-117.80252l-0.00122,-0.12997c-0.00122,-1.20752 -0.01624,-2.40747 -0.03882,-3.6062c-0.00745,-0.38138 -0.01746,-0.76126 -0.02625,-1.14136c-0.02368,-0.95505 -0.05493,-1.90622 -0.09241,-2.85501c-0.01257,-0.31622 -0.02258,-0.63245 -0.0376,-0.94754c-0.05371,-1.21997 -0.11865,-2.43378 -0.19617,-3.64252c-0.01624,-0.27493 -0.03882,-0.5462 -0.05762,-0.81879c-0.06616,-0.97876 -0.13867,-1.95242 -0.21985,-2.92383c-0.03003,-0.35126 -0.05884,-0.70242 -0.09131,-1.05246c-0.09753,-1.10626 -0.2038,-2.20749 -0.32129,-3.30246l-0.03247,-0.32748c-0.13257,-1.21118 -0.27753,-2.41507 -0.43256,-3.61377c-0.03748,-0.29001 -0.07733,-0.57999 -0.11618,-0.86865c-0.12997,-0.98129 -0.26883,-1.95752 -0.41507,-2.93002c-0.03619,-0.2449 -0.07251,-0.4924 -0.10999,-0.73752c-0.18628,-1.20752 -0.38245,-2.40872 -0.59119,-3.60126l-0.04504,-0.24756c-0.19629,-1.11124 -0.40503,-2.21506 -0.62012,-3.31372c-0.04492,-0.22635 -0.08984,-0.45245 -0.13489,-0.67874c-0.48132,-2.39746 -1.00623,-4.7612 -1.57751,-7.08749l-0.07373,-0.29364c-0.27502,-1.11377 -0.56128,-2.21756 -0.8562,-3.31259l-0.07007,-0.26483c-0.64502,-2.37878 -1.33875,-4.71515 -2.07495,-7.0076l-0.02637,-0.08127c-6.76111,-20.9975 -17.28625,-38.24872 -30.11121,-49.35867c27.15869,-60.815 4.17993,-164.43378 -7.60754,-194.93127l-0.05994,-0.15121c-0.18872,-0.485 -0.375,-0.95749 -0.5575,-1.40373l-0.11621,-0.27756c-0.1626,-0.39124 -0.32251,-0.77873 -0.47876,-1.13869c-0.05774,-0.13252 -0.11377,-0.25002 -0.17004,-0.3788c-0.13501,-0.30373 -0.27002,-0.61127 -0.40125,-0.89249c-0.07373,-0.15747 -0.1427,-0.29503 -0.21521,-0.44501c-0.11023,-0.22874 -0.22107,-0.46623 -0.32898,-0.67619c-0.09021,-0.17754 -0.17517,-0.33005 -0.26233,-0.49377c-0.08374,-0.15747 -0.16992,-0.32875 -0.25244,-0.4725c-0.09253,-0.16624 -0.17981,-0.30379 -0.2688,-0.45128c-0.07141,-0.11871 -0.14624,-0.25246 -0.21521,-0.35995c-0.09973,-0.15381 -0.19226,-0.27878 -0.28784,-0.41252l-0.16248,-0.23003c-0.13989,-0.18127 -0.27246,-0.33372 -0.40002,-0.45998l-0.01355,-0.01625c-0.26465,-0.26001 -0.52881,-0.4525 -0.7959,-0.57755l-0.02661,-0.00999c-0.125,-0.05623 -0.2511,-0.10246 -0.37854,-0.13123l-0.00757,-0.00121c-8.27246,-1.85501 -21.33374,54.69122 -141.26611,54.89494l0,0.00504c-0.21381,0 -0.41748,0.00504 -0.63129,0.00504c-126.5025,0 -134.64381,-62.52129 -143.10748,-54.18504c-8.30377,8.18002 -42.21124,131.40124 -12.63751,201.27119c-24.07501,19.07251 -40.67749,59.3988 -40.67749,106.06628" id="path14"/>
  <path fill="#68431a" fill-rule="nonzero" d="m147.20459,334.41666c0,65.05997 -32.26624,117.80127 -72.06879,117.80127c-39.80249,0 -72.06873,-52.7413 -72.06873,-117.80127c0,-65.05997 32.26624,-117.80127 72.06873,-117.80127c39.80254,0 72.06879,52.7413 72.06879,117.80127" id="path26"/>
  <path fill="#68431a" fill-rule="nonzero" d="m392.76324,334.41666c0,65.05997 -32.26746,117.80127 -72.06995,117.80127c-39.80127,0 -72.0675,-52.7413 -72.0675,-117.80127c0,-65.05997 32.26624,-117.80127 72.0675,-117.80127c39.80249,0 72.06995,52.7413 72.06995,117.80127" id="path28"/>
  <path fill="#934924" fill-rule="nonzero" d="m343.98077,368.80289c0,66.27625 -64.69122,120.00494 -144.49127,120.00494c-79.80121,0 -144.49249,-53.7287 -144.49249,-120.00494c0,-66.27625 0,-120.00502 144.49249,-120.00502c135.61871,0 144.49127,53.72878 144.49127,120.00502" id="path128"/>
  <path fill="#bc942f" fill-rule="nonzero" d="m83.51337,440.3804c26.33624,29.38751 68.47748,48.42749 115.97626,48.42749c48.27997,0 90.99872,-19.68628 117.23743,-49.89874c-12.15247,-53.77121 -59.65125,-93.89877 -116.43872,-93.89877c-57.30621,0 -105.16748,40.85999 -116.77496,95.37003" id="path130"/>
  <path fill="#68431a" fill-rule="nonzero" d="m342.59576,27.07918c-8.46375,-8.33627 -16.6062,54.18504 -143.10614,54.18504c-126.50256,0 -134.64378,-62.52129 -143.10754,-54.18504c-8.46252,8.33626 -43.52374,136.15501 -10.88129,205.22124c32.6438,69.06503 153.98883,53.19626 153.98883,53.19626c0,0 121.34375,15.86877 153.98749,-53.19626c32.64246,-69.06622 -2.41882,-196.88499 -10.88135,-205.22124" id="path242"/>
  <path fill="#934924" fill-rule="nonzero" d="m193.10083,180.24414c0,38.11624 -30.89874,69.01627 -69.0163,69.01627c-38.11621,0 -69.01624,-30.90001 -69.01624,-69.01627c0,-38.11752 30.90002,-69.01748 69.01624,-69.01748c38.11755,0 69.0163,30.89996 69.0163,69.01748" id="path244"/>
  <path fill="#fbc308" fill-rule="nonzero" d="m171.92584,180.24414c0,26.4213 -21.41876,47.83998 -47.84131,47.83998c-26.4212,0 -47.84126,-21.41869 -47.84126,-47.83998c0,-26.4225 21.42004,-47.84125 47.84126,-47.84125c26.42255,0 47.84131,21.41875 47.84131,47.84125" id="path246"/>
  <path fill="#ffff00" fill-rule="nonzero" d="m171.92584,180.24414c0,26.4213 -21.41876,47.83998 -47.84131,47.83998c-26.4212,0 -47.84126,-21.41869 -47.84126,-47.83998c0,-26.4225 21.42004,-47.84125 47.84126,-47.84125c26.42255,0 47.84131,21.41875 47.84131,47.84125" id="path248"/>
  <path fill="#e2e1e1" fill-rule="nonzero" d="m320.6933,452.21793c-1.1637,0 -2.32245,-0.04498 -3.47375,-0.13495c1.14996,0.08875 2.31006,0.13495 3.47375,0.13495c25.93872,0 48.67871,-22.40247 61.37122,-56.01126c0.00134,-0.00244 -0.00122,0.00131 0.00134,-0.00122c-12.69385,33.61502 -35.4314,56.01248 -61.37256,56.01248m-3.47876,-0.13495c-0.02374,-0.0025 -0.04626,-0.00385 -0.06879,-0.00629c0.0238,0.00244 0.04504,0.00378 0.06879,0.00629m-0.13,-0.01007c-0.005,-0.00122 -0.01001,-0.00122 -0.01379,-0.00122c0.00378,0 0.00879,0 0.01379,0.00122" id="path260"/>
  <path fill="#d8d7d8" fill-rule="nonzero" d="m382.06464,396.20667c2.78247,-7.36624 5.07996,-15.26749 6.82495,-23.59253c-1.74377,8.32254 -4.04382,16.22879 -6.82373,23.59131c-0.00244,0.00244 0,-0.00131 -0.00122,0.00122m10.69861,-61.79001c0,-0.05621 0,-0.11252 0,-0.16748c0,0.05496 0,0.11127 0,0.16626l0,0m0,-0.215c0,-0.04752 -0.00122,-0.09378 -0.00122,-0.1413c0,0.04623 0.00122,0.09378 0.00122,0.1413m-0.00122,-0.1738c0,-0.05499 0,-0.11246 0,-0.16748c0,0.05502 0,0.11249 0,0.16748m0,-0.20621c0,-0.04755 0,-0.09378 0,-0.14252c0,0.04752 0,0.09628 0,0.14252m-0.00122,-0.17624c0,-0.05634 0,-0.11749 0,-0.17252c0,0.05731 0,0.11374 0,0.17252m0,-0.19501c0,-0.05624 -0.00122,-0.10257 -0.00122,-0.15756c0,0.05127 0.00122,0.10507 0.00122,0.15756m-0.00122,-0.18756c0,-0.05997 -0.00134,-0.11746 -0.00134,-0.17624c0,0.05756 0.00134,0.11749 0.00134,0.17624m-0.00134,-0.18118c0,-0.06003 -0.00122,-0.11002 -0.00122,-0.16876c0,0.05502 0.00122,0.11374 0.00122,0.16876m-0.00122,-0.20255c-0.00122,-0.06 -0.00122,-0.11377 -0.00122,-0.17261c0,0.05762 0,0.11496 0.00122,0.17261m-0.00122,-0.1738c-0.00134,-0.06015 -0.00134,-0.11743 -0.00256,-0.17749c0.00122,0.06128 0.00122,0.11618 0.00256,0.17749m-0.00256,-0.20636c-0.00116,-0.11859 -0.00238,-0.23508 -0.0036,-0.35376c0.00122,0.11749 0.00244,0.23517 0.0036,0.35376m-0.0036,-0.38132c-0.00134,-0.05124 -0.00134,-0.10251 -0.00256,-0.15378c0.00122,0.05005 0.00122,0.10376 0.00256,0.15378m-0.00256,-0.18256c0,-0.05997 -0.00122,-0.11618 -0.00244,-0.17493c0.00122,0.05743 0.00244,0.11749 0.00244,0.17493m-0.00244,-0.19116c0,-0.05127 -0.00122,-0.10254 -0.00256,-0.15381c0.00134,0.05255 0.00256,0.10254 0.00256,0.15381m-0.00256,-0.19632c-0.00122,-0.05493 -0.00122,-0.11374 -0.00244,-0.16873c0.00122,0.05499 0.00122,0.11502 0.00244,0.16873m-0.00244,-0.18112c-0.00134,-0.0513 -0.00256,-0.10751 -0.00256,-0.15878c0,0.05249 0.00122,0.10748 0.00256,0.15878m-0.00378,-0.20126c-0.00122,-0.05127 -0.00122,-0.10126 -0.00244,-0.15253c0.00122,0.05127 0.00122,0.10126 0.00244,0.15253m-0.00244,-0.17111c-0.00134,-0.05884 -0.00256,-0.1087 -0.00378,-0.16745c0.00122,0.05731 0.00244,0.10999 0.00378,0.16745m-0.00378,-0.21249c-0.00122,-0.04248 -0.00244,-0.08374 -0.00244,-0.12747c0,0.04373 0.00122,0.08377 0.00244,0.12747m-0.00378,-0.17752c-0.00122,-0.05493 -0.00244,-0.10498 -0.00244,-0.16c0,0.05252 0.00122,0.1088 0.00244,0.16m-0.00378,-0.2037c-0.00119,-0.03998 -0.00241,-0.08627 -0.00241,-0.12503c0,0.04126 0.00122,0.08374 0.00241,0.12503m-0.0036,-0.17874c-0.00122,-0.0513 -0.00256,-0.10254 -0.00378,-0.15375c0.00122,0.05121 0.00256,0.10126 0.00378,0.15375m-0.005,-0.22125c-0.00134,-0.03131 -0.00134,-0.05997 -0.00256,-0.09125c0.00122,0.02997 0.00122,0.06125 0.00256,0.09125m-0.00378,-0.17624c-0.00122,-0.02756 -0.00122,-0.05624 -0.00244,-0.08377c0.00122,0.02753 0.00122,0.05621 0.00244,0.08377m-0.00623,-0.23126c0,-0.01999 -0.00134,-0.04007 -0.00134,-0.05875c0,0.01868 0.00134,0.03998 0.00134,0.05875m-0.00378,-0.16626c0,-0.01126 -0.00122,-0.02875 -0.00122,-0.04004c0,0.01382 0.00122,0.02625 0.00122,0.04004m-0.01123,-0.39624c0,-0.00748 0,-0.01505 0,-0.02374c0,0.0087 0,0.01627 0,0.02374" id="path262"/>
  <path fill="#d8d7d8" fill-rule="nonzero" d="m200.12085,81.25413l0,0c118.00378,-0.19997 132.54376,-54.94003 140.86249,-54.94003c0.1001,0 0.19873,0.00755 0.29749,0.0238c-0.09875,-0.01503 -0.19739,-0.0238 -0.29749,-0.0238c-8.31628,0 -22.84247,54.75755 -140.86249,54.95004m143.69635,-52.47871c-0.00134,-0.00252 -0.00391,-0.00626 -0.00513,-0.00877c0.00122,0.00374 0.00256,0.00626 0.00513,0.00877m-0.01257,-0.02007c-0.00256,-0.00496 -0.005,-0.00999 -0.00879,-0.01495c0.00378,0.00496 0.00623,0.00999 0.00879,0.01495m-0.01245,-0.02242c-0.44006,-0.755 -0.84253,-1.315 -1.19641,-1.66383c0.35388,0.35004 0.75513,0.90881 1.19641,1.66383m-1.23755,-1.7038c-0.00256,-0.00252 -0.005,-0.00496 -0.00879,-0.00748c0.00378,0.00252 0.00623,0.00496 0.00879,0.00748" id="path270"/>
  <path fill="#934924" fill-rule="nonzero" d="m272.31329,249.26041c-38.11749,0 -69.01625,-30.89996 -69.01625,-69.01628c0,-38.11746 30.89874,-69.01748 69.01625,-69.01748c38.11621,0 69.01624,30.90003 69.01624,69.01748c0,38.11629 -30.89999,69.01628 -69.01624,69.01628m0,-116.85751c-26.4225,0 -47.84125,21.41875 -47.84125,47.84125c0,26.42131 21.41875,47.84004 47.84125,47.84004c26.42126,0 47.84125,-21.41873 47.84125,-47.84004c0,-26.4225 -21.41998,-47.84125 -47.84125,-47.84125" id="path274"/>
  <path stroke="#000000" d="m90.33331,188.58646c0,0 34.00488,-62.66978 70.18738,0" id="path3187" stroke-miterlimit="4" stroke-width="10" fill="none"/>
  <path fill="#ffff00" fill-rule="nonzero" d="m318.28571,181.22284c0,26.42131 -21.41882,47.83997 -47.84131,47.83997c-26.42125,0 -47.84131,-21.41866 -47.84131,-47.83997c0,-26.42252 21.42004,-47.84125 47.84131,-47.84125c26.42249,0 47.84131,21.41873 47.84131,47.84125" id="svg_14"/>
  <path stroke="#000000" d="m238.83331,188.59329c0,0 34.00488,-62.66982 70.18738,0" stroke-miterlimit="4" stroke-width="10" fill="none" id="svg_1"/>
  <path fill="#e2e1e1" fill-rule="nonzero" d="m1019.35999,521.55127c-1.1637,0 -2.32245,-0.04498 -3.47375,-0.13495c1.14996,0.08875 2.31006,0.13495 3.47375,0.13495c25.93872,0 48.67871,-22.40247 61.37122,-56.01126c0.00134,-0.00244 -0.00122,0.00131 0.00134,-0.00122c-12.69385,33.61502 -35.4314,56.01248 -61.37256,56.01248m-3.47876,-0.13495c-0.02374,-0.0025 -0.04626,-0.00385 -0.06879,-0.00629c0.0238,0.00244 0.04504,0.00378 0.06879,0.00629m-0.13,-0.01007c-0.005,-0.00122 -0.01001,-0.00122 -0.01379,-0.00122c0.00378,0 0.00879,0 0.01379,0.00122" id="path260"/>
  <path fill="#d8d7d8" fill-rule="nonzero" d="m1080.73132,465.54001c2.78247,-7.36624 5.07996,-15.26749 6.82495,-23.59253c-1.74377,8.32254 -4.04382,16.22879 -6.82373,23.59131c-0.00244,0.00244 0,-0.00131 -0.00122,0.00122m10.69861,-61.79001c0,-0.05621 0,-0.11252 0,-0.16748c0,0.05496 0,0.11127 0,0.16626l0,0m0,-0.215c0,-0.04752 -0.00122,-0.09378 -0.00122,-0.1413c0,0.04623 0.00122,0.09378 0.00122,0.1413m-0.00122,-0.1738c0,-0.05499 0,-0.11246 0,-0.16748c0,0.05502 0,0.11249 0,0.16748m0,-0.20621c0,-0.04755 0,-0.09378 0,-0.14252c0,0.04752 0,0.09628 0,0.14252m-0.00122,-0.17624c0,-0.05634 0,-0.11749 0,-0.17252c0,0.05734 0,0.11374 0,0.17252m0,-0.19501c0,-0.05624 -0.00122,-0.10257 -0.00122,-0.15756c0,0.05127 0.00122,0.10507 0.00122,0.15756m-0.00122,-0.18756c0,-0.05997 -0.00134,-0.11746 -0.00134,-0.17624c0,0.05756 0.00134,0.11749 0.00134,0.17624m-0.00134,-0.18118c0,-0.06003 -0.00122,-0.11002 -0.00122,-0.16876c0,0.05502 0.00122,0.11374 0.00122,0.16876m-0.00122,-0.20255c-0.00122,-0.06 -0.00122,-0.11377 -0.00122,-0.17261c0,0.05762 0,0.11502 0.00122,0.17261m-0.00122,-0.1738c-0.00134,-0.06009 -0.00134,-0.11743 -0.00256,-0.17749c0.00122,0.06128 0.00122,0.11618 0.00256,0.17749m-0.00256,-0.2063c-0.00122,-0.11865 -0.00244,-0.23505 -0.00366,-0.35376c0.00122,0.11749 0.00244,0.23511 0.00366,0.35376m-0.00366,-0.38132c-0.00134,-0.05118 -0.00134,-0.10245 -0.00256,-0.15372c0.00122,0.05005 0.00122,0.10376 0.00256,0.15372m-0.00256,-0.1825c0,-0.05997 -0.00122,-0.11618 -0.00244,-0.17493c0.00122,0.05743 0.00244,0.11749 0.00244,0.17493m-0.00244,-0.19116c0,-0.05127 -0.00122,-0.10254 -0.00256,-0.15381c0.00134,0.05255 0.00256,0.10254 0.00256,0.15381m-0.00256,-0.19632c-0.00122,-0.05499 -0.00122,-0.11374 -0.00244,-0.16876c0.00122,0.05502 0.00122,0.11505 0.00244,0.16876m-0.00244,-0.18118c-0.00134,-0.05127 -0.00256,-0.10751 -0.00256,-0.15878c0,0.05249 0.00122,0.10751 0.00256,0.15878m-0.00378,-0.20129c-0.00122,-0.05124 -0.00122,-0.10123 -0.00244,-0.1525c0.00122,0.05127 0.00122,0.10126 0.00244,0.1525m-0.00244,-0.17114c-0.00134,-0.05884 -0.00256,-0.1087 -0.00378,-0.16745c0.00122,0.05731 0.00244,0.10999 0.00378,0.16745m-0.00378,-0.21249c-0.00122,-0.04248 -0.00244,-0.08374 -0.00244,-0.12747c0,0.04373 0.00122,0.08377 0.00244,0.12747m-0.00378,-0.17752c-0.00122,-0.05493 -0.00244,-0.10498 -0.00244,-0.16c0,0.05252 0.00122,0.1088 0.00244,0.16m-0.00378,-0.2037c-0.00122,-0.03998 -0.00244,-0.08627 -0.00244,-0.12503c0,0.04126 0.00122,0.08374 0.00244,0.12503m-0.00366,-0.17874c-0.00122,-0.0513 -0.00256,-0.10254 -0.00378,-0.15375c0.00122,0.05121 0.00256,0.10126 0.00378,0.15375m-0.005,-0.22125c-0.00134,-0.03131 -0.00134,-0.05997 -0.00256,-0.09125c0.00122,0.02997 0.00122,0.06125 0.00256,0.09125m-0.00378,-0.17624c-0.00122,-0.02756 -0.00122,-0.05624 -0.00244,-0.08377c0.00122,0.02753 0.00122,0.05621 0.00244,0.08377m-0.00623,-0.23126c0,-0.01999 -0.00134,-0.04007 -0.00134,-0.05875c0,0.01868 0.00134,0.03998 0.00134,0.05875m-0.00378,-0.16626c0,-0.01126 -0.00122,-0.02875 -0.00122,-0.04004c0,0.01382 0.00122,0.02625 0.00122,0.04004m-0.01123,-0.39624c0,-0.00748 0,-0.01505 0,-0.02374c0,0.0087 0,0.01627 0,0.02374" id="path262"/>
  <path fill="#5b3a16" fill-rule="nonzero" d="m320.6933,452.21793c-1.1637,0 -2.32379,-0.0462 -3.47375,-0.13495c-0.00122,0 -0.00372,0 -0.005,0c-0.02374,-0.0025 -0.04498,-0.00385 -0.06879,-0.00629c-0.01996,-0.00128 -0.0412,-0.0025 -0.06122,-0.00378c-0.005,-0.00122 -0.01001,-0.00122 -0.01379,-0.00122c-3.73743,-0.30371 -7.39874,-1.07379 -10.96497,-2.27124c23.52124,-21.34625 37.875,-49.78122 37.875,-80.9975c0,-39.40375 -3.13379,-74.37128 -34.17877,-96.25c18.44,-8.2337 34.53375,-20.91246 43.67499,-40.25253c0.3125,-0.66248 0.62134,-1.33499 0.92126,-2.00745c21.90002,18.97873 37.10376,55.85745 38.29004,98.71246c0,0.00876 0,0.01627 0,0.02374c0.00378,0.12 0.00745,0.23627 0.01001,0.35629c0,0.0112 0.00122,0.02875 0.00122,0.03995c0.00122,0.03625 0.00122,0.07129 0.00244,0.10751c0,0.01877 0.00134,0.03876 0.00134,0.05875c0.00122,0.04877 0.00244,0.09882 0.00378,0.14755c0.00122,0.02747 0.00122,0.05624 0.00244,0.08371c0,0.03006 0.00122,0.05499 0.00122,0.08499c0.00122,0.03128 0.00122,0.06003 0.00244,0.09125c0,0.02127 0.00134,0.04498 0.00134,0.0675c0.00122,0.05127 0.00256,0.10254 0.00378,0.15375c0,0.01624 0,0.03754 0.00122,0.05377c0,0.03876 0.00122,0.08499 0.00244,0.12497c0,0.01627 0,0.02756 0.00128,0.04379c0,0.05496 0.00122,0.10498 0.00244,0.15994c0,0.0163 0.00134,0.03372 0.00134,0.05002c0,0.04373 0.00122,0.08499 0.00244,0.12744c0,0.01379 0,0.03125 0,0.04501c0.00122,0.05878 0.00244,0.1087 0.00378,0.16754c0,0.00626 0,0.01242 0,0.01868c0.00122,0.05127 0.00122,0.10132 0.00244,0.15256c0,0.01376 0,0.02878 0.00122,0.04251c0,0.05127 0.00122,0.10745 0.00256,0.15872c0,0.00629 0,0.00751 0,0.01248c0.00122,0.05496 0.00122,0.11377 0.00244,0.16873c0,0.0137 0,0.02881 0,0.04248c0.00134,0.05127 0.00256,0.10254 0.00256,0.15381c0,0.00626 0,0.00998 0,0.01627c0.00122,0.05878 0.00244,0.11496 0.00244,0.17505c0,0.0112 0,0.01749 0,0.02878c0.00122,0.05118 0.00122,0.10245 0.00256,0.15372c0,0.0112 0,0.01627 0,0.02747c0.00122,0.11877 0.00244,0.23508 0.00366,0.35376c0,0.00751 0,0.0213 0,0.02878c0.00122,0.05997 0.00122,0.11749 0.0025,0.17746l0,0.00131c0,0.05875 0,0.11246 0.00122,0.17249c0,0.0112 0,0.02252 0,0.03372c0,0.05875 0.00122,0.1088 0.00122,0.16876c0,0.00253 0,0.00122 0,0.00504c0,0.05875 0.00134,0.11618 0.00134,0.17624c0,0.01001 0,0.01871 0,0.03c0,0.05499 0.00122,0.10123 0.00122,0.15747c0,0.00754 0,0.01379 0,0.02249c0,0.05502 0,0.11627 0,0.17252c0.00122,0.00998 0.00122,0.02371 0.00122,0.03378c0,0.04874 0,0.095 0,0.14246c0,0.01379 0,0.02502 0,0.03873c0,0.05502 0,0.11261 0,0.16754c0,0.01123 0,0.02124 0,0.03253c0,0.04742 0.00122,0.09369 0.00122,0.1412c0,0.01624 0,0.03128 0,0.04874c0,0.05502 0,0.11127 0,0.16748c0,13.37006 -1.36255,26.21881 -3.87366,38.19757c-1.745,8.32495 -4.0426,16.2262 -6.82507,23.59244c-12.6925,33.60886 -35.4325,56.01126 -61.37134,56.01126" id="path264"/>
  <path fill="#844221" fill-rule="nonzero" d="m298.42834,456.22293c6.74127,-5.26752 12.87122,-11.065 18.29871,-17.31378c-12.15247,-53.77121 -59.65125,-93.89877 -116.43872,-93.89877c-0.05621,0 -0.11249,0 -0.16748,0l0.1001,-51.90369c0.62714,-0.64398 0.72363,0.85745 0.72363,0.85745c0,0 -4.61212,-11.36414 2.67676,-11.3746c7.28888,-0.01047 16.72198,4.48087 25.39697,4.48087c22.5213,0 54.10376,-2.60498 80.78375,-14.51755c31.04504,21.87881 34.17883,56.84634 34.17883,96.25003c0,31.21628 -14.35388,59.65125 -37.875,80.99756c-0.00385,-0.00122 -0.00757,-0.00256 -0.01129,-0.00378c-2.45245,2.22498 -5.01373,4.36499 -7.66626,6.42627" id="path266"/>
  <path fill="#a58029" fill-rule="nonzero" d="m200.12085,488.79044l0,-143.78c0.05499,0 0.11127,0 0.16748,0c56.78754,0 104.28625,40.1275 116.43872,93.89871c-5.42749,6.24878 -11.55743,12.04626 -18.29871,17.31378c-1.33002,1.03375 -2.6825,2.04749 -4.05621,3.04254c-0.17377,0.12622 -0.34753,0.25 -0.52258,0.37372c-1.93616,1.39001 -3.91492,2.73755 -5.93872,4.04254c-0.14496,0.09125 -0.28748,0.18872 -0.43372,0.28241c-6.47626,4.13507 -13.37994,7.82501 -20.65747,11.01501c-0.43628,0.19 -0.87756,0.37128 -1.31622,0.56c-1.92004,0.82123 -3.86377,1.60632 -5.83386,2.35748c-0.59741,0.22754 -1.19495,0.4563 -1.7962,0.67627c-1.91623,0.70502 -3.85747,1.37122 -5.81621,2.00757c-0.57001,0.18372 -1.13373,0.37872 -1.70758,0.55865c-2.43993,0.76257 -4.90497,1.48254 -7.40619,2.13635l-0.17749,0.04871c-2.59746,0.67871 -5.22748,1.28625 -7.88501,1.84253c-0.61371,0.12872 -1.23622,0.23248 -1.85254,0.3562c-1.98369,0.39124 -3.9787,0.75623 -5.9937,1.08002c-0.89381,0.14252 -1.79376,0.2688 -2.6938,0.40002c-1.79376,0.25745 -3.59747,0.48871 -5.41377,0.69122c-0.95618,0.1087 -1.9099,0.21375 -2.86992,0.30371c-1.87749,0.17871 -3.76874,0.31757 -5.66748,0.43378c-0.86754,0.05505 -1.72754,0.125 -2.59752,0.16376c-2.54126,0.12122 -5.09747,0.18372 -7.67126,0.19501" id="path268"/>
  <path fill="#d8d7d8" fill-rule="nonzero" d="m898.78754,150.58746l0,0c118.00378,-0.19997 132.54376,-54.94003 140.86249,-54.94003c0.1001,0 0.19873,0.00755 0.29749,0.0238c-0.09875,-0.01503 -0.19739,-0.0238 -0.29749,-0.0238c-8.31628,0 -22.84247,54.75755 -140.86249,54.95004m143.69635,-52.47871c-0.00134,-0.00252 -0.00391,-0.00626 -0.00513,-0.00877c0.00122,0.00374 0.00256,0.00626 0.00513,0.00877m-0.01257,-0.02007c-0.00256,-0.00496 -0.005,-0.00999 -0.00879,-0.01495c0.00378,0.00496 0.00623,0.00999 0.00879,0.01495m-0.01245,-0.02242c-0.44006,-0.755 -0.84253,-1.315 -1.19641,-1.66383c0.35388,0.35004 0.75513,0.90881 1.19641,1.66383m-1.23755,-1.7038c-0.00256,-0.00252 -0.005,-0.00496 -0.00879,-0.00748c0.00378,0.00252 0.00623,0.00496 0.00879,0.00748" id="path270"/>
  <path fill="#5b3a16" fill-rule="nonzero" d="m229.01831,287.07065c-8.67499,0 -10.664,1.75 -21.19202,-0.776c-10.52899,-2.52698 -8.099,-67.724 -6.88196,-49.58298c1.21796,18.14099 -0.55304,0.00098 -0.82301,0.004l0,-155.46201c118.02199,-0.18201 132.54195,-54.93951 140.86201,-54.93951c0.09998,0 0.19995,0.0087 0.29993,0.0237c0.43005,0.0713 0.8501,0.29749 1.26001,0.69379c0.01001,0.0025 0.01001,0.005 0.01001,0.0075c0.01001,0.0138 0.03003,0.0275 0.04004,0.04l0,0c0.35999,0.3487 0.76001,0.9087 1.19995,1.6637c0,0.00249 0,0.005 0,0.0075c0.01001,0.0051 0.01001,0.00999 0.01001,0.015c0,0.0038 0.01001,0.0088 0.01001,0.0113c0,0.0025 0,0.0062 0,0.0087c10.01001,17.2553 40.26001,134.96429 10.54004,201.47128c0.02002,0.013 0.03003,0.02402 0.04993,0.03603c-0.29993,0.67299 -0.60999,1.34499 -0.92993,2.00798c-9.13998,19.34001 -25.22998,32.01801 -43.67004,40.25198c-26.68094,11.91302 -58.26398,14.51801 -80.78494,14.51801m43.29498,-175.84399c-38.117,0 -69.01601,30.90002 -69.01601,69.01699c0,38.117 30.899,69.017 69.01601,69.017c38.12,0 69.02002,-30.89999 69.02002,-69.017c0,-38.11697 -30.90002,-69.01699 -69.02002,-69.01699" id="path272"/>
  <g id="svg_3">
   <polygon id="svg_10" fill="#000000" points="198,203.97489166259766 211.2515869140625,218.92731475830078 224.503173828125,233.8797378540039 198,233.8797378540039 171.49676513671875,233.8797378540039 184.74835205078125,218.92731475830078 198,203.97489166259766 211.2515869140625,218.92731475830078 " stroke-width="null"/>
   <polygon fill="#000000" points="198.66668701171875,233.71417999267578 211.91827392578125,262.66663360595703 225.16986083984375,291.61902618408203 198.66668701171875,291.61902618408203 172.16351318359375,291.61902618408203 185.41510009765625,262.66663360595703 198.66668701171875,233.71417999267578 211.91827392578125,262.66663360595703 " stroke-width="null" id="svg_13" transform="rotate(-180 198.66668701171878,262.6665954589844) "/>
  </g>
  <g id="svg_15">
   <rect ry="15" rx="15" id="svg_9" height="60" width="15" y="444.91668" x="119.33341" stroke-linecap="null" stroke-linejoin="null" stroke-dasharray="null" stroke-width="null" fill="#68431a"/>
   <rect id="svg_11" ry="15" rx="15" height="60" width="15" y="444.91668" x="133.20828" stroke-linecap="null" stroke-linejoin="null" stroke-dasharray="null" stroke-width="null" fill="#68431a"/>
   <rect id="svg_12" ry="15" rx="15" height="60" width="15" y="444.91668" x="147.45828" stroke-linecap="null" stroke-linejoin="null" stroke-dasharray="null" stroke-width="null" fill="#68431a"/>
  </g>
  <g id="svg_16">
   <rect id="svg_17" ry="15" rx="15" height="60" width="15" y="444.91668" x="239.14585" stroke-linecap="null" stroke-linejoin="null" stroke-dasharray="null" stroke-width="null" fill="#68431a"/>
   <rect id="svg_18" ry="15" rx="15" height="60" width="15" y="444.91668" x="253.02073" stroke-linecap="null" stroke-linejoin="null" stroke-dasharray="null" stroke-width="null" fill="#68431a"/>
   <rect id="svg_19" ry="15" rx="15" height="60" width="15" y="444.91668" x="267.27073" stroke-linecap="null" stroke-linejoin="null" stroke-dasharray="null" stroke-width="null" fill="#68431a"/>
  </g>
 </g>
</svg>
