<svg width="150" height="150" xmlns="http://www.w3.org/2000/svg" xmlns:svg="http://www.w3.org/2000/svg">
 <g>
  <title>Layer 1</title>
  <g id="svg_15">
   <path id="svg_16" stroke-width="8" stroke="#000" fill="#b2b2b2" d="m127.66629,112.98846l4.28571,-27.14281l12.85718,-21.42859l-17.14287,-21.42861l-10.00001,-8.57141c0,0 -25.71429,-22.85718 -32.85712,-22.85718s-20,8.57142 -25.71429,11.42859s-18.57147,2.85718 -18.57147,10s-15.71423,28.57141 -15.71423,28.57141s-21.42859,20 -21.42859,30s2.85712,27.14288 11.42859,27.14288s44.28571,-1.42865 44.28571,-1.42865l11.42853,14.28589c0,0 21.42859,8.57135 28.57147,1.42847s28.5714,-20 28.5714,-20l-0.00003,0.00001l0.00002,0z"/>
   <path id="svg_17" fill="#999" d="m31.952,67.27417l-17.14288,20.00006l11.42859,22.85706l25.71429,0l25.71429,0l-45.71429,-42.85712z"/>
  </g>
 </g>
</svg>