<?xml version="1.0" encoding="UTF-8" standalone="no"?>
<svg
   xmlns:dc="http://purl.org/dc/elements/1.1/"
   xmlns:cc="http://creativecommons.org/ns#"
   xmlns:rdf="http://www.w3.org/1999/02/22-rdf-syntax-ns#"
   xmlns:svg="http://www.w3.org/2000/svg"
   xmlns="http://www.w3.org/2000/svg"
   viewBox="0 0 540.73334 570.88"
   height="570.88"
   width="540.73334"
   xml:space="preserve"
   id="svg2"
   version="1.1"><metadata
     id="metadata8"><rdf:RDF><cc:Work
         rdf:about=""><dc:format>image/svg+xml</dc:format><dc:type
           rdf:resource="http://purl.org/dc/dcmitype/StillImage" /></cc:Work></rdf:RDF></metadata><defs
     id="defs6"><clipPath
       id="clipPath20"
       clipPathUnits="userSpaceOnUse"><path
         id="path18"
         d="M 0,0 H 4055 V 4281.55 H 0 Z" /></clipPath></defs><g
     transform="matrix(1.3333333,0,0,-1.3333333,0,570.88)"
     id="g10"><g
       transform="scale(0.1)"
       id="g12"><g
         id="g14"><g
           clip-path="url(#clipPath20)"
           id="g16"><path
             id="path22"
             style="fill:#86c627;fill-opacity:1;fill-rule:nonzero;stroke:none"
             d="m 3659.63,1728.38 c 0,0 -25.62,14.26 -69.25,27.79 5.8,3 11.6,6.11 17.4,9.47 0,0 52.22,-17.57 113.44,-26.55 -20.76,-1.12 -42.02,-4.42 -61.59,-10.71 z M 957.734,2842.7 c -11.214,-2.61 -20.808,-5.92 -27.855,-9.78 0,0 -18.203,35.21 -56.789,64.01 -2.992,7.67 -7.043,14.77 -11.41,21.01 31.234,-8.23 78.863,-19.46 122.425,-24.01 -12.589,-12.64 -22.003,-30.54 -26.371,-51.23 z M 495.473,2332.13 c -0.368,-3.8 -0.555,-7.92 -0.805,-12.41 -24.555,-0.87 -66.816,-3.8 -105.598,-12.2 -2.425,7.41 -5.418,14.51 -9.215,20.75 20.629,6.6 41.633,17.69 58.399,36.52 0,0 14.211,-19.44 57.469,-32.66 z m 2880.237,489.75 50.98,12.09 21.01,-11.72 c -15.77,-10.16 -28.17,-21.19 -33.78,-32.59 0,0 -17.83,6.54 -45.08,14.33 2.81,5.61 5.05,11.47 6.87,17.89 z m 671.88,-884.14 c 0,0 -142.23,79.37 -297.51,64.96 l 8.78,39.58 c 21.2,-1.37 44.2,-0.37 68.82,4.8 l -51.61,43.33 c 0,0 116.25,-7.17 155.09,36.14 l -72.43,54.04 c 28.42,4.68 56.78,13.91 72.43,31.6 l -7.8,5.82 c 31.61,21.62 59.4,53.72 46.64,96.23 l -34.05,-1.18 c 25.8,21.19 45.01,49.98 34.05,86.69 l -206.96,-7.16 -12.96,79.42 c 0,0 -155.08,-14.53 -206.94,-50.63 0,0 -63.84,15.9 -117.82,9.49 5.98,4.22 10.97,8.72 14.4,13.34 l -71.05,45.18 c 3.6,1.32 7.22,2.62 10.59,4.06 64.83,-16.52 219.1,-45.63 319.2,15.77 L 3595,2559.77 c 0,0 168.04,-43.44 245.71,14.41 l -100.48,56.02 c 37.27,1.88 74.05,9.79 100.48,29.43 l -19.64,11.1 c 22.26,11.89 41.02,27.67 45.45,47.68 0,0 -45,10.84 -103.22,15.45 39.2,11.17 94.99,33.3 103.22,70.19 0,0 -181.09,43.26 -284.56,-7.17 l 8.79,59.59 c 29.86,0.25 67.7,8.42 94.68,42.46 0,0 -26.42,29.6 -98.03,35.84 -0.82,2.55 -1.62,4.99 -2.44,7.35 30.42,-0.87 71.43,6.11 100.47,42.45 0,0 -26.42,29.42 -98.03,35.78 -10.04,36.34 -35.67,62.59 -66.03,64.07 -3.43,13.21 -12.39,28.12 -30.05,44.51 0,0 -98.84,-11.1 -132.26,-47.61 -10.97,35.34 -37.02,60.33 -67.63,60.33 -8.42,0 -16.4,-1.99 -23.99,-5.55 h -47.63 l -14.83,9.85 c -12.96,24.88 -34.97,41.33 -59.59,41.33 -29.05,0 -54.05,-22.63 -65.83,-55.16 -9.22,2.49 -23.63,5.72 -40.83,7.72 19.58,16.83 32.98,45.82 33.61,79.04 40.01,-1.68 84.27,3 108.64,26.62 l -38.58,21.5 c -16.64,5.48 -26.25,14.59 -26.25,14.59 L 3142.4,3267 c 22.8,-7.48 58.59,-8.29 103.22,29.11 6.98,5.92 10.41,13.28 10.59,21.69 37.84,-12.96 94.88,-20.69 164.06,8.92 l -126.22,59.65 15.58,6.11 c 31.42,-2.31 68.88,1.87 110.64,19.76 l -126.22,59.52 68.01,27.12 c 0,0 -68.64,38.33 -133.28,42.95 -0.99,1 -1.8,2.18 -2.8,3.18 19.26,6.04 60.65,22.31 68.07,51.37 0,0 -32.23,8.9 -76.43,4.48 -0.43,0.81 -0.62,1.37 -0.99,1.99 l -38.84,-8.6 v 1.13 c 21.64,10.77 69.26,41.82 38.84,93.11 l -24.81,-5.6 14.96,12.02 c 0,0 -18.39,2.57 -44.63,3.69 -4.79,12.72 -10.34,23.93 -16.76,32.9 l 61.39,49.07 c 0,0 -144.05,19.88 -197.85,-27.25 9.17,10.22 20.38,34.04 -36.84,61.47 -12.02,20.25 -27.05,32.78 -43.43,33.78 l 25.8,3.43 c 0,0 -31.42,34.9 -89.21,48.62 l -10.84,5.98 c -4.17,6.49 -8.97,11.91 -13.97,16.2 l 114.02,14.72 c 0,0 -47.8,53.1 -133.64,54.04 v 2 c 7.97,7.29 35.21,34.4 26.99,57.59 l -31.16,-8.66 c -9.87,59.9 -37.04,102.85 -68.89,102.85 -21.01,0 -39.76,-18.83 -53.23,-48.87 -16.39,-2.56 -34.15,-5.99 -49.37,-9.17 -11.83,-1.31 -24.25,-3.23 -36.65,-6.04 l 103.47,94.49 c 0,0 -116.5,5.37 -174.72,-37.96 0,0 19.44,86.65 -87.2,102.86 l -6.61,-11.1 c -13.4,29.05 -32.04,47 -52.42,47 -22.64,0 -42.82,-21.57 -56.23,-55.41 -10.03,2.99 -20.45,4.42 -30.42,3.3 l -29.23,-48.69 c 0,0 -19.2,75.8 -58.03,75.8 l -48.43,-65.01 c 0,0 -116.62,43.32 -165.06,32.54 l 38.84,-48.74 c 0,0 -106.91,16.2 -145.68,-16.22 l 29.17,-27.1 c 0,0 -77.6,-10.92 -97,-43.32 l 88.21,-4.12 c -7.79,-2.87 -14.77,-6.49 -20.38,-11.1 l 29.17,-26.99 c 0,0 -77.6,-10.84 -97,-43.45 l 116.46,-5.29 c 0,0 -19.46,-54.11 28.97,-54.11 l 58.22,5.36 v -19.57 c -3.36,-1 -6.79,-2 -9.6,-3.25 l 9.6,-5.35 v -26.06 c 0,0 7.24,-0.25 18.45,-0.25 0,-0.93 0,-1.74 0.19,-2.56 -26.43,-10.16 -70.06,-29.91 -76.86,-52.42 l -1,1 c -9.97,60.78 -37.21,104.47 -69.25,104.47 -34.77,0 -63.82,-51.42 -71.18,-120.05 -26.43,0.99 -55.23,-3 -81.65,-17.84 0,0 -11.23,37.47 -54.86,60.29 -13.22,40.02 -34.97,66.19 -60.02,66.19 -24.63,0 -46.19,-25.43 -59.41,-64.64 -46.01,6.8 -104.23,10.1 -136.07,-7.66 l 29.05,-43.33 c 0,0 -92.26,4.62 -112.89,-38.33 -45.01,8.6 -95.06,13.72 -129.65,4.11 l 25.8,-36.21 c 0,0 -129.47,-28.86 -155.27,-72.18 h 129.47 l 8.97,-17.46 c -35.78,-9.59 -118.24,-34.47 -138.44,-68.06 h 129.47 l 24.43,-47.5 c -58.47,13.78 -143.49,27.62 -205.51,10.29 0,0 51.61,-64.96 194.1,-79.42 0,0 -9.03,-3.3 -20.63,-9.53 -54.85,10.72 -122.23,17.7 -173.47,3.43 0,0 32.6,-40.96 117.06,-65.08 -0.25,-2.68 -0.81,-5.37 -0.81,-8.17 l 27.79,1.5 c 15.21,-3.18 31.8,-5.8 50.06,-7.61 0,0 -55.03,-20.63 -72.49,-57.4 -1.74,-0.45 -3.55,-0.94 -5.36,-1.44 l 3.19,-3.8 c -2,-5.37 -3.19,-10.97 -3.19,-16.76 l 15.77,0.74 36.22,-45.2 c 0,0 -194.3,65.02 -258.866,14.41 0,0 -64.649,14.39 -116.508,-36.03 0,0 47.625,-39.71 142.863,-36.59 -10.152,-3 -19.007,-7.23 -26.355,-12.91 0,0 -64.649,14.46 -116.508,-36.15 0,0 38.836,-32.22 116.258,-36.21 0.617,-9.29 2.23,-18.21 4.793,-26.62 l -30.418,-23.81 c 0,0 1,-0.56 2.801,-1.37 -47.809,-8.61 -89.012,-23.82 -106.215,-50.24 0,0 68.258,-21.14 135.265,-30.98 -51.05,-6.36 -99.234,-18.77 -124.66,-42.26 -8.609,4.8 -18.023,7.54 -28.242,7.54 -11.785,0 -23.004,-3.93 -32.973,-10.66 -4.617,47.75 -35.035,84.77 -72.246,84.77 -40.461,0 -73.25,-43.44 -73.25,-96.86 0,-15.4 2.996,-29.8 7.614,-42.64 -0.821,-2.56 -1.621,-5.05 -2.426,-7.79 -25.375,0.49 -50.43,-1.31 -68.824,-7.48 -3.176,0.5 -6.172,0.8 -9.223,0.8 -35.41,0 -64.828,-33.34 -71.621,-77.72 -35.399,-7.05 -70.434,-18.45 -99.234,-36.46 l 102.851,-17.77 c 0.809,-2.62 1.621,-5.11 2.43,-7.61 -2.625,-7.41 -4.856,-15.39 -6.047,-23.8 -35.399,-6.92 -70.434,-18.33 -99.234,-36.46 l 14.585,-2.56 -14.585,-5.8 c 0,0 -88.016,16.39 -159.079,-3.24 -9.597,-0.88 -18.636,-4.31 -26.796,-9.66 -12.844,-5.92 -24.622,-13.53 -34.227,-23.13 l 10.602,-1.32 c -10.79,-16.88 -17.207,-38.64 -17.207,-62.44 0,-15.28 2.804,-29.8 7.605,-42.7 -0.375,-0.88 -0.809,-1.81 -1,-2.68 -24.184,-2.31 -77.4102,-11.73 -116.4375,-49.75 0,0 48.9961,-8.09 110.6485,-4.29 1.18,-11.22 3.98,-21.7 7.601,-31.3 -23.253,-2.06 -78.2339,-10.91 -118.2495,-49.86 0,0 79.2265,-13.28 163.2535,1.73 6.231,-2.29 12.778,-3.61 19.633,-3.61 17.578,0 33.785,8.16 46.379,22 1.242,0.5 2.43,1 3.617,1.5 l 7.231,-44.69 c -24.25,-15.83 -41.02,-48.93 -41.02,-87.27 0,-15.33 2.809,-29.73 7.61,-42.69 -2.438,-6.55 -4.426,-13.66 -5.614,-21.08 -47.433,13.53 -114.07,22.25 -188.1247,-0.25 l 30.0508,-26.86 c -8.418,-15.27 -13.5899,-33.96 -14.2149,-54.29 -5.2343,-1.31 -10.4101,-2.81 -15.8359,-4.43 l 3.9961,-3.55 c -16.9609,-11.22 -33.1641,-25.06 -42.7656,-40.82 h 61.3984 c -3.9844,-11.42 -6.6054,-23.95 -6.793,-37.16 -20.8203,-12.41 -43.0078,-28.93 -54.6054,-48.5 h 63.2109 c 12.2149,-30.42 36.5863,-51.05 64.1993,-51.05 15.023,0 29.047,6.04 40.644,16.34 v -22.44 c -69.816,5.6 -148.4761,5.73 -181.0816,-16.08 L 140.742,1872.8 c 0,0 -12.222,-9.48 -26.804,-23 -43.2583,-0.51 -82.0318,-5.5 -102.6646,-19.26 l 64.8243,-21.64 c -5.7969,-7.78 -10.4024,-15.64 -13.0274,-22.68 l 69.4457,-5.55 c -17.582,-14.9 -59.2191,-51.8 -69.4457,-80.04 l 90.4497,-7.17 c 0,0 -8.602,-44.31 46.625,-71.93 13.214,-22.56 33.843,-36.96 57.035,-36.96 29.422,0 54.855,23 66.441,56.35 26.188,-6.11 72.246,-10.8 140.445,1.86 l -90.453,-64.88 c 0,0 49.246,-4.99 103.102,1.05 -0.25,-1.85 -0.43,-3.8 -0.43,-5.79 0,-53.6 32.84,-97.06 73.051,-97.06 40.387,0 73.051,43.46 73.051,97.06 0,4.31 -0.246,8.54 -0.625,12.83 1.183,0.38 3.429,1.32 5.617,2.32 16.762,-26.06 37.836,-49.37 63.387,-68.25 -12.957,-3.8 -24.18,-8.42 -32.59,-14.41 0,0 18.633,-12.02 49.605,-24.31 -42.816,-4.99 -164.867,-23.43 -217.664,-70.55 0,0 65.016,-28.3 157.27,-24.5 -53.242,-10.22 -121.301,-28.93 -157.27,-61.03 0,0 106.403,-46.19 240.113,-12.4 1.372,-5.49 2.993,-11.1 5.352,-17.02 -8.164,-18.89 -14.586,-48.93 0.246,-86.15 l 90.637,36.04 c 0,0 64.64,-64.96 219.915,-72.13 0,0 -9.6,58.54 -69.622,93.31 20.808,-3.8 44.002,-6.6 69.622,-7.79 0,0 -1.19,6.92 -5.24,17.4 43.82,1 92.07,7.35 121.49,27.05 l -77.67,36.03 c 0,0 155.52,7.17 207.13,43.32 0,0 12.97,-64.95 103.67,-86.64 l 12.77,43.32 c 0,0 90.64,-14.34 181.08,28.85 0,0 0,40.96 -16.77,78.18 5.55,2.3 11.16,4.67 16.77,7.41 0,0 0,6.36 -0.99,16.4 25.43,-4.49 62.64,-6.43 117.43,-0.81 l -51.8,43.19 c 0,0 142.24,0 194.11,28.92 0,0 90.63,-36.09 129.47,-50.48 l 25.8,36.09 c 0,0 0,-57.72 142.24,-21.7 0,0 77.67,-14.39 206.95,50.55 0,0 36.96,-28.67 104.84,-49.05 -6.6,-6.8 -11.65,-12.72 -14.21,-17.02 h 89.2 c -9.78,-8.41 -77.23,-65.45 -89.2,-85.51 h 46.82 c 3.6,-5.49 9.41,-10.85 18.01,-15.53 l 8.41,1 c -22.62,-21.31 -54.04,-61.15 -8.41,-86.52 l 64.64,7.17 c 0,0 116.43,-86.71 297.51,-65.01 l -13.02,57.84 c 0,0 129.46,-14.53 181.14,14.4 l -12.84,-64.83 c 0,0 168.29,14.27 219.91,93.63 0,0 103.47,-21.51 155.26,-14.4 0,0 -18.38,51.24 -80.41,87.96 28.37,-3.32 58.79,-5.44 80.41,-2.44 0,0 -12.78,35.53 -52.79,68.63 14.41,7.11 27.99,15.7 39.77,26.3 0,0 129.46,-50.49 310.6,-7.17 L 3595,1563.49 c 0,0 181.07,-7.29 271.52,72.12 0,0 -116.44,36.1 -206.89,7.17 0,0 -5.23,2.93 -14.83,7.24 60.65,3.81 161.31,18.14 221.72,71.11 0,0 -25,7.74 -60.66,13.23 7.42,0.49 14.84,1.18 21.82,2.3 l -103.41,86.65 c 0,0 258.68,-43.21 323.32,28.91 0,0 -46.8,26.13 -116.06,45.7 49.25,4.05 94.06,15.21 116.06,39.82" /><path
             id="path24"
             style="fill:none;stroke:#86c627;stroke-width:10;stroke-linecap:butt;stroke-linejoin:miter;stroke-miterlimit:4;stroke-dasharray:none;stroke-opacity:1"
             d="m 3659.63,1728.38 c 0,0 -25.62,14.26 -69.25,27.79 5.8,3 11.6,6.11 17.4,9.47 0,0 52.22,-17.57 113.44,-26.55 -20.76,-1.12 -42.02,-4.42 -61.59,-10.71 z M 957.734,2842.7 c -11.214,-2.61 -20.808,-5.92 -27.855,-9.78 0,0 -18.203,35.21 -56.789,64.01 -2.992,7.67 -7.043,14.77 -11.41,21.01 31.234,-8.23 78.863,-19.46 122.425,-24.01 -12.589,-12.64 -22.003,-30.54 -26.371,-51.23 z M 495.473,2332.13 c -0.368,-3.8 -0.555,-7.92 -0.805,-12.41 -24.555,-0.87 -66.816,-3.8 -105.598,-12.2 -2.425,7.41 -5.418,14.51 -9.215,20.75 20.629,6.6 41.633,17.69 58.399,36.52 0,0 14.211,-19.44 57.469,-32.66 z m 2880.237,489.75 50.98,12.09 21.01,-11.72 c -15.77,-10.16 -28.17,-21.19 -33.78,-32.59 0,0 -17.83,6.54 -45.08,14.33 2.81,5.61 5.05,11.47 6.87,17.89 z m 671.88,-884.14 c 0,0 -142.23,79.37 -297.51,64.96 l 8.78,39.58 c 21.2,-1.37 44.2,-0.37 68.82,4.8 l -51.61,43.33 c 0,0 116.25,-7.17 155.09,36.14 l -72.43,54.04 c 28.42,4.68 56.78,13.91 72.43,31.6 l -7.8,5.82 c 31.61,21.62 59.4,53.72 46.64,96.23 l -34.05,-1.18 c 25.8,21.19 45.01,49.98 34.05,86.69 l -206.96,-7.16 -12.96,79.42 c 0,0 -155.08,-14.53 -206.94,-50.63 0,0 -63.84,15.9 -117.82,9.49 5.98,4.22 10.97,8.72 14.4,13.34 l -71.05,45.18 c 3.6,1.32 7.22,2.62 10.59,4.06 64.83,-16.52 219.1,-45.63 319.2,15.77 L 3595,2559.77 c 0,0 168.04,-43.44 245.71,14.41 l -100.48,56.02 c 37.27,1.88 74.05,9.79 100.48,29.43 l -19.64,11.1 c 22.26,11.89 41.02,27.67 45.45,47.68 0,0 -45,10.84 -103.22,15.45 39.2,11.17 94.99,33.3 103.22,70.19 0,0 -181.09,43.26 -284.56,-7.17 l 8.79,59.59 c 29.86,0.25 67.7,8.42 94.68,42.46 0,0 -26.42,29.6 -98.03,35.84 -0.82,2.55 -1.62,4.99 -2.44,7.35 30.42,-0.87 71.43,6.11 100.47,42.45 0,0 -26.42,29.42 -98.03,35.78 -10.04,36.34 -35.67,62.59 -66.03,64.07 -3.43,13.21 -12.39,28.12 -30.05,44.51 0,0 -98.84,-11.1 -132.26,-47.61 -10.97,35.34 -37.02,60.33 -67.63,60.33 -8.42,0 -16.4,-1.99 -23.99,-5.55 h -47.63 l -14.83,9.85 c -12.96,24.88 -34.97,41.33 -59.59,41.33 -29.05,0 -54.05,-22.63 -65.83,-55.16 -9.22,2.49 -23.63,5.72 -40.83,7.72 19.58,16.83 32.98,45.82 33.61,79.04 40.01,-1.68 84.27,3 108.64,26.62 l -38.58,21.5 c -16.64,5.48 -26.25,14.59 -26.25,14.59 L 3142.4,3267 c 22.8,-7.48 58.59,-8.29 103.22,29.11 6.98,5.92 10.41,13.28 10.59,21.69 37.84,-12.96 94.88,-20.69 164.06,8.92 l -126.22,59.65 15.58,6.11 c 31.42,-2.31 68.88,1.87 110.64,19.76 l -126.22,59.52 68.01,27.12 c 0,0 -68.64,38.33 -133.28,42.95 -0.99,1 -1.8,2.18 -2.8,3.18 19.26,6.04 60.65,22.31 68.07,51.37 0,0 -32.23,8.9 -76.43,4.48 -0.43,0.81 -0.62,1.37 -0.99,1.99 l -38.84,-8.6 v 1.13 c 21.64,10.77 69.26,41.82 38.84,93.11 l -24.81,-5.6 14.96,12.02 c 0,0 -18.39,2.57 -44.63,3.69 -4.79,12.72 -10.34,23.93 -16.76,32.9 l 61.39,49.07 c 0,0 -144.05,19.88 -197.85,-27.25 9.17,10.22 20.38,34.04 -36.84,61.47 -12.02,20.25 -27.05,32.78 -43.43,33.78 l 25.8,3.43 c 0,0 -31.42,34.9 -89.21,48.62 l -10.84,5.98 c -4.17,6.49 -8.97,11.91 -13.97,16.2 l 114.02,14.72 c 0,0 -47.8,53.1 -133.64,54.04 v 2 c 7.97,7.29 35.21,34.4 26.99,57.59 l -31.16,-8.66 c -9.87,59.9 -37.04,102.85 -68.89,102.85 -21.01,0 -39.76,-18.83 -53.23,-48.87 -16.39,-2.56 -34.15,-5.99 -49.37,-9.17 -11.83,-1.31 -24.25,-3.23 -36.65,-6.04 l 103.47,94.49 c 0,0 -116.5,5.37 -174.72,-37.96 0,0 19.44,86.65 -87.2,102.86 l -6.61,-11.1 c -13.4,29.05 -32.04,47 -52.42,47 -22.64,0 -42.82,-21.57 -56.23,-55.41 -10.03,2.99 -20.45,4.42 -30.42,3.3 l -29.23,-48.69 c 0,0 -19.2,75.8 -58.03,75.8 l -48.43,-65.01 c 0,0 -116.62,43.32 -165.06,32.54 l 38.84,-48.74 c 0,0 -106.91,16.2 -145.68,-16.22 l 29.17,-27.1 c 0,0 -77.6,-10.92 -97,-43.32 l 88.21,-4.12 c -7.79,-2.87 -14.77,-6.49 -20.38,-11.1 l 29.17,-26.99 c 0,0 -77.6,-10.84 -97,-43.45 l 116.46,-5.29 c 0,0 -19.46,-54.11 28.97,-54.11 l 58.22,5.36 v -19.57 c -3.36,-1 -6.79,-2 -9.6,-3.25 l 9.6,-5.35 v -26.06 c 0,0 7.24,-0.25 18.45,-0.25 0,-0.93 0,-1.74 0.19,-2.56 -26.43,-10.16 -70.06,-29.91 -76.86,-52.42 l -1,1 c -9.97,60.78 -37.21,104.47 -69.25,104.47 -34.77,0 -63.82,-51.42 -71.18,-120.05 -26.43,0.99 -55.23,-3 -81.65,-17.84 0,0 -11.23,37.47 -54.86,60.29 -13.22,40.02 -34.97,66.19 -60.02,66.19 -24.63,0 -46.19,-25.43 -59.41,-64.64 -46.01,6.8 -104.23,10.1 -136.07,-7.66 l 29.05,-43.33 c 0,0 -92.26,4.62 -112.89,-38.33 -45.01,8.6 -95.06,13.72 -129.65,4.11 l 25.8,-36.21 c 0,0 -129.47,-28.86 -155.27,-72.18 h 129.47 l 8.97,-17.46 c -35.78,-9.59 -118.24,-34.47 -138.44,-68.06 h 129.47 l 24.43,-47.5 c -58.47,13.78 -143.49,27.62 -205.51,10.29 0,0 51.61,-64.96 194.1,-79.42 0,0 -9.03,-3.3 -20.63,-9.53 -54.85,10.72 -122.23,17.7 -173.47,3.43 0,0 32.6,-40.96 117.06,-65.08 -0.25,-2.68 -0.81,-5.37 -0.81,-8.17 l 27.79,1.5 c 15.21,-3.18 31.8,-5.8 50.06,-7.61 0,0 -55.03,-20.63 -72.49,-57.4 -1.74,-0.45 -3.55,-0.94 -5.36,-1.44 l 3.19,-3.8 c -2,-5.37 -3.19,-10.97 -3.19,-16.76 l 15.77,0.74 36.22,-45.2 c 0,0 -194.3,65.02 -258.866,14.41 0,0 -64.649,14.39 -116.508,-36.03 0,0 47.625,-39.71 142.863,-36.59 -10.152,-3 -19.007,-7.23 -26.355,-12.91 0,0 -64.649,14.46 -116.508,-36.15 0,0 38.836,-32.22 116.258,-36.21 0.617,-9.29 2.23,-18.21 4.793,-26.62 l -30.418,-23.81 c 0,0 1,-0.56 2.801,-1.37 -47.809,-8.61 -89.012,-23.82 -106.215,-50.24 0,0 68.258,-21.14 135.265,-30.98 -51.05,-6.36 -99.234,-18.77 -124.66,-42.26 -8.609,4.8 -18.023,7.54 -28.242,7.54 -11.785,0 -23.004,-3.93 -32.973,-10.66 -4.617,47.75 -35.035,84.77 -72.246,84.77 -40.461,0 -73.25,-43.44 -73.25,-96.86 0,-15.4 2.996,-29.8 7.614,-42.64 -0.821,-2.56 -1.621,-5.05 -2.426,-7.79 -25.375,0.49 -50.43,-1.31 -68.824,-7.48 -3.176,0.5 -6.172,0.8 -9.223,0.8 -35.41,0 -64.828,-33.34 -71.621,-77.72 -35.399,-7.05 -70.434,-18.45 -99.234,-36.46 l 102.851,-17.77 c 0.809,-2.62 1.621,-5.11 2.43,-7.61 -2.625,-7.41 -4.856,-15.39 -6.047,-23.8 -35.399,-6.92 -70.434,-18.33 -99.234,-36.46 l 14.585,-2.56 -14.585,-5.8 c 0,0 -88.016,16.39 -159.079,-3.24 -9.597,-0.88 -18.636,-4.31 -26.796,-9.66 -12.844,-5.92 -24.622,-13.53 -34.227,-23.13 l 10.602,-1.32 c -10.79,-16.88 -17.207,-38.64 -17.207,-62.44 0,-15.28 2.804,-29.8 7.605,-42.7 -0.375,-0.88 -0.809,-1.81 -1,-2.68 -24.184,-2.31 -77.4102,-11.73 -116.4375,-49.75 0,0 48.9961,-8.09 110.6485,-4.29 1.18,-11.22 3.98,-21.7 7.601,-31.3 -23.253,-2.06 -78.2339,-10.91 -118.2495,-49.86 0,0 79.2265,-13.28 163.2535,1.73 6.231,-2.29 12.778,-3.61 19.633,-3.61 17.578,0 33.785,8.16 46.379,22 1.242,0.5 2.43,1 3.617,1.5 l 7.231,-44.69 c -24.25,-15.83 -41.02,-48.93 -41.02,-87.27 0,-15.33 2.809,-29.73 7.61,-42.69 -2.438,-6.55 -4.426,-13.66 -5.614,-21.08 -47.433,13.53 -114.07,22.25 -188.1247,-0.25 l 30.0508,-26.86 c -8.418,-15.27 -13.5899,-33.96 -14.2149,-54.29 -5.2343,-1.31 -10.4101,-2.81 -15.8359,-4.43 l 3.9961,-3.55 c -16.9609,-11.22 -33.1641,-25.06 -42.7656,-40.82 h 61.3984 c -3.9844,-11.42 -6.6054,-23.95 -6.793,-37.16 -20.8203,-12.41 -43.0078,-28.93 -54.6054,-48.5 h 63.2109 c 12.2149,-30.42 36.5863,-51.05 64.1993,-51.05 15.023,0 29.047,6.04 40.644,16.34 v -22.44 c -69.816,5.6 -148.4761,5.73 -181.0816,-16.08 L 140.742,1872.8 c 0,0 -12.222,-9.48 -26.804,-23 -43.2583,-0.51 -82.0318,-5.5 -102.6646,-19.26 l 64.8243,-21.64 c -5.7969,-7.78 -10.4024,-15.64 -13.0274,-22.68 l 69.4457,-5.55 c -17.582,-14.9 -59.2191,-51.8 -69.4457,-80.04 l 90.4497,-7.17 c 0,0 -8.602,-44.31 46.625,-71.93 13.214,-22.56 33.843,-36.96 57.035,-36.96 29.422,0 54.855,23 66.441,56.35 26.188,-6.11 72.246,-10.8 140.445,1.86 l -90.453,-64.88 c 0,0 49.246,-4.99 103.102,1.05 -0.25,-1.85 -0.43,-3.8 -0.43,-5.79 0,-53.6 32.84,-97.06 73.051,-97.06 40.387,0 73.051,43.46 73.051,97.06 0,4.31 -0.246,8.54 -0.625,12.83 1.183,0.38 3.429,1.32 5.617,2.32 16.762,-26.06 37.836,-49.37 63.387,-68.25 -12.957,-3.8 -24.18,-8.42 -32.59,-14.41 0,0 18.633,-12.02 49.605,-24.31 -42.816,-4.99 -164.867,-23.43 -217.664,-70.55 0,0 65.016,-28.3 157.27,-24.5 -53.242,-10.22 -121.301,-28.93 -157.27,-61.03 0,0 106.403,-46.19 240.113,-12.4 1.372,-5.49 2.993,-11.1 5.352,-17.02 -8.164,-18.89 -14.586,-48.93 0.246,-86.15 l 90.637,36.04 c 0,0 64.64,-64.96 219.915,-72.13 0,0 -9.6,58.54 -69.622,93.31 20.808,-3.8 44.002,-6.6 69.622,-7.79 0,0 -1.19,6.92 -5.24,17.4 43.82,1 92.07,7.35 121.49,27.05 l -77.67,36.03 c 0,0 155.52,7.17 207.13,43.32 0,0 12.97,-64.95 103.67,-86.64 l 12.77,43.32 c 0,0 90.64,-14.34 181.08,28.85 0,0 0,40.96 -16.77,78.18 5.55,2.3 11.16,4.67 16.77,7.41 0,0 0,6.36 -0.99,16.4 25.43,-4.49 62.64,-6.43 117.43,-0.81 l -51.8,43.19 c 0,0 142.24,0 194.11,28.92 0,0 90.63,-36.09 129.47,-50.48 l 25.8,36.09 c 0,0 0,-57.72 142.24,-21.7 0,0 77.67,-14.39 206.95,50.55 0,0 36.96,-28.67 104.84,-49.05 -6.6,-6.8 -11.65,-12.72 -14.21,-17.02 h 89.2 c -9.78,-8.41 -77.23,-65.45 -89.2,-85.51 h 46.82 c 3.6,-5.49 9.41,-10.85 18.01,-15.53 l 8.41,1 c -22.62,-21.31 -54.04,-61.15 -8.41,-86.52 l 64.64,7.17 c 0,0 116.43,-86.71 297.51,-65.01 l -13.02,57.84 c 0,0 129.46,-14.53 181.14,14.4 l -12.84,-64.83 c 0,0 168.29,14.27 219.91,93.63 0,0 103.47,-21.51 155.26,-14.4 0,0 -18.38,51.24 -80.41,87.96 28.37,-3.32 58.79,-5.44 80.41,-2.44 0,0 -12.78,35.53 -52.79,68.63 14.41,7.11 27.99,15.7 39.77,26.3 0,0 129.46,-50.49 310.6,-7.17 L 3595,1563.49 c 0,0 181.07,-7.29 271.52,72.12 0,0 -116.44,36.1 -206.89,7.17 0,0 -5.23,2.93 -14.83,7.24 60.65,3.81 161.31,18.14 221.72,71.11 0,0 -25,7.74 -60.66,13.23 7.42,0.49 14.84,1.18 21.82,2.3 l -103.41,86.65 c 0,0 258.68,-43.21 323.32,28.91 0,0 -46.8,26.13 -116.06,45.7 49.25,4.05 94.06,15.21 116.06,39.82 z" /><path
             id="path26"
             style="fill:#56341e;fill-opacity:1;fill-rule:nonzero;stroke:none"
             d="m 3342.05,1855.35 c 0,5.98 1.62,11.65 2.24,17.58 -12.84,0.67 -26.25,1.42 -38.65,1.99 l 31.42,-19.57 c -185.87,16.07 -935.25,-207.2 -1088.34,-245.85 2,117.07 166.3,189.68 188.5,304.56 144.86,86.51 263.55,138.26 481.64,184.38 -221.52,-21.31 -293.77,-83.65 -474.22,-145.3 44.01,217.11 145.67,460.28 487.26,619.53 -616.92,-211.31 -362.6,-617.22 -767.02,-873.54 -13.59,117.75 -157.26,464.95 32.41,547.85 141.06,61.59 170.3,201.85 225.34,285.17 64.2,97.06 125.04,196.29 201.91,291.72 -1.82,-0.37 -3.63,-0.68 -5.42,-0.99 -82.04,-89.46 -157.09,-180.27 -225.9,-272.15 -72.26,-96.61 -85.03,-241.66 -283.13,-303.99 13.6,158.76 27.18,317.52 40.82,476.28 10.42,122.04 26,243.04 77.42,363.22 6.43,15.21 14.21,30.6 21.83,46 6.17,35.77 19.39,70.61 40.01,101.66 4.18,54.79 24,108.46 61.84,152.03 2,27.05 0.38,54.05 -9.22,81.28 -64.03,-192.91 -246.35,-394.43 -246.35,-589.41 -56.22,161.99 0.81,319.58 -13.96,481.95 -70.87,-176.28 -2,-353.18 -56.04,-529.4 -64.01,43.58 -213.49,110.21 -229.7,162.21 -23.43,74.04 -53.85,209.99 -201.9,253.99 79.23,-67.38 117.06,-142.55 134.84,-218.78 -91.63,33.35 -120.87,98.55 -234.69,116.87 233.32,-133.27 508.45,-295.34 503.4,-469.81 -4.99,-178.2 -42.57,-383.4 -42.57,-548.95 0,2.54 -1,5.16 -2.62,7.66 0.18,-85.53 -238.3,112.57 -266.1,137.69 32.97,-29.74 45.81,-79.05 74.43,-110.14 -246.53,32.17 -480.65,127.34 -683.92,197.97 95.62,-44.94 208.25,-82.34 319.7,-117.87 -93.25,11.34 -190.3,24.62 -286.54,27.29 256.37,-7.04 492.86,-89.13 711.97,-152.47 280.57,-81.09 173.48,-388.26 186.49,-534.81 -146.66,77.62 -324.18,115.32 -445.43,200.9 -85.82,60.71 -190.48,121.42 -330.37,155.27 118.25,-64.33 238.13,-132.08 324.77,-207 -137.45,23.38 -282.75,38.58 -428.99,36.89 214.13,-13.08 445.38,-49.73 617.3,-114.44 359.15,-135.38 91.24,-817.371 104.03,-1091.629 9.04,-193.863 59.84,-355.871 -28.18,-544.359 3.8,0.1172 7.17,0.5 10.97,0.5 43.26,0 81.47,-6.4218 115.26,-17.332 33.85,10.9102 72.24,17.332 115.44,17.332 31.04,0 59.29,-3.4922 85.46,-9.29294 12.21,2.30074 24.8,4.30074 37.84,5.67184 29.41,10.918 62.64,18.0196 99.6,20.4493 -0.37,0.6796 0,1.1796 -0.37,1.8593 -82.66,198.5395 -157.27,338.6525 -221.28,538.3125 -36.85,114.949 76.97,957.938 239.3,1009.358 150.09,47.5 818.99,250.65 1007.67,250.83 10.22,0 21.63,-0.13 32.41,-0.13 -0.81,6.93 -2.61,13.72 -2.61,20.96" /></g></g></g></g></svg>