<?xml version="1.0" encoding="UTF-8" standalone="no"?>
<svg id="svg2" xmlns:rdf="http://www.w3.org/1999/02/22-rdf-syntax-ns#" xmlns="http://www.w3.org/2000/svg" height="660" width="600" version="1.0" xmlns:cc="http://creativecommons.org/ns#" xmlns:xlink="http://www.w3.org/1999/xlink" xmlns:dc="http://purl.org/dc/elements/1.1/">
 <desc id="desc4">Flag of Canton of Valais (Wallis)</desc>
 <g id="layer4">
  <text id="text27077" xml:space="preserve" transform="scale(1.0095 .99056)" font-size="3.5809px" y="173.54764" x="756.21094" font-family="Bitstream Vera Sans" fill="#ffffff"><tspan id="tspan27079" x="756.21094" y="173.54764"/></text>
  <path id="path3532" d="m258 93.7c3.39 7.47-2.04 17.45 5.77 31.03 7.83 13.61 19.84 7.23 21.4 3.83 1.86 1.8 3.06 3.9 3.48 6.08 0.01 0.02 0 0.04 0 0.05l-4.12 10.64c4.09 7.11-0.35 14.28 0.17 21.92-1.68-0.95-3.62-1.67-5.13-1.89 4.97-2.17-1.58-13.19-15.38-16.97-6.93-1.89-16.67 1.31-29.42 1.95 7.38 4.84 8.7 15.8 23.52 23.87 14.86 8.08 21.28-2.74 20.58-6.34 2.63 0.69 4.93 1.89 6.6 3.52 1.42 5.2 3.52 7.83 5.07 13.19 1.71 5.95 4.39 15.24 8.84 19.89 10.1 10.53 17.27 10.66 20.99 23.56 3.37 4.65 2.16 14.19-0.77 24.23-1.86-1.66-4.98-3.06-7.19-3.38 4.97-2.17-1.58-13.19-15.39-16.97-6.92-1.89-16.66 1.36-29.41 2 7.37 4.84 8.7 15.8 23.52 23.87 14.86 8.09 21.28-2.78 20.57-6.39 2.85 0.74 5.27 2.15 6.96 3.99-3.78 11.7-9.5 23.49-13.03 28.52-4.13 5.97-11.29 11.07-13.5 14.72-0.98 1.62-7.79 4.9-11.02 4.04-2.18-10.47-0.53-20.7-9.5-34.66-3.03-7.89-12.13-12.69-16.15-17.68-7.23-9.95-14.38-21.41-19.99-32.16-0.66-1.31-1.27-2.67-1.88-4.03 1.15-2.03 3.17-3.67 5.78-4.71-0.12 3.17 6.91 11.85 18.57 3.38 11.62-8.46 11.24-18.04 16.92-22.95-11.05 0.76-19.85-1.01-25.53 1.33-11.34 4.66-15.47 14.8-10.91 16.15-2.01 0.54-4.75 2.33-6.01 4.09-6.05-14.4-9.23-29.98-9.2-33.43 0.37-0.93 3.99-8.12 4.72-9.76 1.45-3.29-1.05-4.36 0.94-8.69 1.99-4.34-4.47-4.65-2.95-8.08 0.77-1.72 7.53-4.82 8.02-6.03 0.25-0.61 7.24-4.2 7.43-4.76 0.19-0.55 0.41-2.49 0.41-5.31-1.46 1.6-2.78 2.77-4.01 3.68-0.49-2.08-0.18-4.32 0.95-6.44 2.29 2.47 14.09 5.09 16.56-7.92 2.47-12.98-4.97-20.01-4.36-26.942-7.8 6.812-15.78 10.402-18.33 15.382-5.11 9.95-0.65 19.96 3.83 18.41-1.45 2-2.39 6.32-0.89 8.07l1.06 0.31c-2.67 1.7-4.96 2.14-7.37 2.96-0.76 0.26-2.09 0.93-3.53 1.74-0.66-2.21-2.43-4.69-4.07-5.93 5.54 0.39 6.57-11.96-2.95-21.42-4.77-4.74-15.02-6.38-26.29-11.6 3.39 7.47-2.09 17.4 5.72 30.98 7.82 13.61 19.83 7.23 21.4 3.83 1.77 1.72 3 3.75 3.48 5.83-2.91 1.95-5.48 4.24-4.78 5.72 4.7 8.62-1.8 12.98-3.24 19.99-1.2-2.25-5.59-4.39-8.43-4.81 4.96-2.17-1.59-13.19-15.39-16.97-6.92-1.89-16.66 1.31-29.42 1.95 7.38 4.84 8.7 15.8 23.52 23.87 14.86 8.08 21.28-2.74 20.58-6.34 3.59 0.94 6.53 2.86 8.14 5.47l0.82-1.54c-0.01 0.14-0.05 0.27-0.06 0.41 0.51 26.37 10.9 44.55 17.75 65.07 0.84 2.53 1.86 4.85 3 7-1.22-0.15-2.41-0.21-3.36-0.1 4.02-3.34-5.98-12.23-20.45-12.32-7.26-0.04-15.44 5.55-27.42 9.41 8.7 2.74 13.64 12.83 30.54 16.76 16.95 3.94 19.41-8.02 17.51-11.29 1.76-0.01 3.45 0.19 5.01 0.66 2.22 3.6 4.65 6.71 6.9 9.51 0.72 0.9 1.49 1.85 2.24 2.81l-0.12-0.05c0.16 2.56-1.06 5.17-3.24 7.26-1.34-2.95-11.72-8.55-18.57 3.22-6.84 11.74-2.15 20.37-5.13 26.83 9.8-4.47 18.71-5.82 22.87-9.91 8.3-8.17 7.47-18.93 2.66-18.61 1.61-1.2 3.37-3.77 3.71-5.83 2.82 3.71 5.69 7.49 8.14 10.33 11.16 12.97 8.75 35.68 10.26 42.22l0.17-0.05c-2.02 4.21-3.26 8.52-4.42 12.42-0.88 2.97-1.56 5.35-2.24 7.56-3.03-1.2-7.93-0.7-11.67-2.3-9.33-3.98-12.71-7.26-15.86-8.53-12.05-4.87-18.82-9.15-24.82-19.37-6-10.23-11.09-19.62-18.93-30.72-5.01-7.1-14.37-15.26-15.97-17.18-1.61-1.91 1.29-7.91 1.29-15.49 0-3.45-0.96-5.82-2.41-7.66l0.35 0.1c-1.03-2.4-0.83-5.21 0.53-7.77 2.3 2.47 14.15 5.09 16.63-7.92 2.47-12.98-4.98-20.01-4.37-26.94-7.8 6.82-15.83 10.45-18.39 15.44-5.1 9.94-0.59 19.95 3.89 18.4-1 1.38-1.82 3.85-1.71 5.82-3.86-2.87-8.6-4.91-9.96-10.83-0.37-1.59-1.56-1.82-1.18-6.24 0.09-1.15 1.82-4.79 3.24-8.02h0.12c1.08-0.91 1.55-2.69 1.59-4.55 0.08-0.42 0.09-0.79 0-0.97-0.08-1.42-0.41-2.79-0.89-3.79 4.76 2.5 12.07-8.14 8.44-20.29-1.83-6.09-10.12-11.51-17.51-20.55-0.82 8-10.83 14.73-10.85 29.91-0.03 15.21 14 14.18 17.15 11.75 0.74 2.34 0.69 4.68-0.06 6.8v0.05l-4.42 4.24c0.8 0.69-3.77 4.63-3 5.06 0.42 1.85 0.78 3.51 1.12 5.12-2.93-0.03-5.86-0.98-8.38-2.71 3.82-1.56 10.42-12.33-5.71-18.3-16.1-5.96-27.23-0.63-36.03-3.12 6.67 9.45 9.18 18.18 14.92 22.03 11.45 7.68 25.66 6.05 24.88 1.28 2.2 1.95 7.47 4.1 10.14 3.12l0.53-0.72c0.63 2.63 1.42 5.19 3.18 8.02 2.4 3.85 8.08 8.61 8.08 13.09 0 4.96-1.74 9.14-2.89 12.63-1.6-2.01-5.45-3.82-8.02-4.2 4.97-2.17-1.58-13.19-15.38-16.97-6.93-1.89-16.67 1.31-29.42 1.95 7.38 4.84 8.7 15.8 23.52 23.87 14.86 8.09 21.28-2.73 20.58-6.34 3.38 0.89 6.18 2.67 7.84 5.06-0.21 1.62 0.01 3.04 1.06 4.29 3.69 4.4 12.96 9.81 16.68 15.08 6.22 8.81 8.15 16.95 15.04 28.68 1.51 2.57 2.98 5.13 4.54 7.66-2.55-0.97-6.66-0.94-9.02-0.25 3.21-3.94-8.53-11.03-22.76-8.74-7.14 1.14-13.96 7.94-24.88 13.7 9.14 1.27 16.21 10.41 33.66 11.5 17.5 1.09 17.32-11.11 14.74-14.01 3.68-0.63 7.32-0.11 10.14 1.54l-0.06-0.92c5.23 7.93 11.74 15.2 23.59 19.98 0.65 0.26 9.13 5.01 18.69 9.1 4.78 2.04 10.51 7.69 14.32 9.15 5.67 3.93 1.38 15.54 1.24 22.18-0.63 20.31-0.25 38.94-0.18 59.96 0.03 8.08 2.57 19.03 3.31 29.24 0.36 5.1 0.22 9.89-0.48 13.03-0.69 3.15-1.69 3.89-1.59 3.84-1.55 0.78-3.79 2.62-4.54 5.11-0.02 0.07 0.02 0.13 0 0.2-2.51 7.8-6.09 14.1-12.26 19.22-4.83 4-5.24 8.4-9.32 13.55-3.61 4.57-10.74 10.02-16.92 12.21l-15.21 10.33-22.7 5.26c0.96 1.94 11.72 3.81 22.88 0.41 5.67-1.73 11.47-8.16 16.15-9.76 9.17-3.14 17.38-7.07 24-10.79 6.46-3.62 11.37-7.05 14.21-9.4 1.87-1.56 3.46-3.22 5.01-4.91 1.62 1.48 3.52 3.18 3.71 3.53 0.29 0.51 3.95 3.85 3.95 8.99 0 3.77 7.35 7.1 7.14 13.09 0.51 1.78-2.04 5.79-1.77 7.56 0.51 3.34 1.1 6.69 3.42 10.02-1.22 1.82 19.84 8.87 22.46 7.21 0.67-0.43-10.82-7.31-12.56-7.97-0.75-0.29-6.24-6.8-6.19-7.88 0.11-2.14 2.66-3.6 2.77-6.64 0.12-3.19 0.22-8.57 0.3-11.71 0.07-2.85-6.38-6.66-7.02-8.58-2.79-8.46 3.71-3.69 3.42-4.4 0.28 0.31 8.07 2.96 8.37 3.27 2.52 2.67 7.08 5.66 19.46 8.13 5.59 1.12 12.11 3.6 17.8 4.19 6.78 0.7 12.44-0.71 13.98-2.61l-11.32-1.53-15.39-6.59c-12.04-0.88-11.31-7.59-14.03-10.48-7.29-12.18-13.18-9.18-9.2-20.19-2.02-4.46-5.81-6.65-2.48-10.53 1.22-5.51-0.46-8.97-0.88-14.77-0.83-11.61-2.17-26.19-2.18-30.62-0.07-20.16-1.42-34.48-0.77-55.36 0.31-10.1-0.5-15.84-0.53-25.56 3.14-5.01 3.98-9.09 7.9-9.5 9.47-0.83 19.7-0.41 23.88-0.41 27 0 42.92-10.16 56.07-25.35 12.26-14.18 23.53-26.08 34.72-40.64 2.59-3.36 4.32-6.6 5.9-9.71l0.06 0.61c2.56-1.94 6.1-2.89 9.84-2.66-2.14 3.16-0.58 15.29 16.63 12.32 17.16-2.96 22.89-12.78 31.77-15.03-11.65-4.53-19.4-10.51-26.64-10.88-14.46-0.74-25.16 7.53-21.41 11.09-2.28-0.4-6-0.09-8.43 0.97 1.96-3.94 3.98-7.8 7.43-11.65 18.34-20.51 13.33-8.77 31.49-30.16 1.28-1.52 6.14-6.35 10.08-10.58 2.16 1.12 3.88 2.93 4.89 5.16-3.65-0.27-13.96 5.34-4.83 15.9 9.1 10.52 20.05 10.71 25.41 15.89-0.28-9.6 2.26-17.13-0.12-22.18-4.75-10.07-16.18-14.15-17.98-10.27-0.65-2.23-3.4-5.68-5.84-6.14 1.49-1.66 2.75-3.16 3.36-4.14 0.02-0.03 0.04-0.07 0.06-0.1l0.65 1.58c1.79-2.51 4.84-4.27 8.49-5.01-0.98 3.56 4.6 14.74 20.04 7.52 15.4-7.21 17.56-18.03 25.29-22.44-12.68-1.36-22.13-5.13-29.18-3.63-14.06 2.98-21.42 13.6-16.62 16.05-2.5 0.22-6.29 1.67-8.14 3.48 0.06-4.67-3.12-12.37-0.94-16.05 12.79-12.73 8.93-4.32 17.74-11.25 0.08-0.15 0.11-0.23 0.18-0.36l1.36 1.43c0.75-2.88 3.01-5.43 6.19-7.15 0.41 3.64 9.94 12.63 21.81 1.43 11.84-11.17 9.74-22.06 15.39-28.42-12.5 2.3-22.85 1.45-28.95 4.86-12.17 6.8-15.12 18.92-9.67 19.88-2.01 0.8-4.58 2.81-5.9 4.8-3.22 0.69-5.7 1.2-7.72 1.59-1.65-1.7-2.56-4.01-2.65-6.44 3.33 1.32 15.27-0.9 10.79-13.5-4.48-12.57-14.78-15.94-17.81-22.38-3.47 9.12-8.77 15.45-8.49 20.9 0.56 10.87 9.77 18.05 12.97 14.93-0.22 2.06 0.72 5.55 2.48 7.05-6.87 1.4-6.6 2.07-16.57 11.14-2.6 4.41 0.58 12.05-1.59 15.54-3.79 12.36-16.09 22.5-29.18 31.18-2.95 1.96-8.07 1.98-10.73 4.04 0.62-3.48 1.18-7 1.18-10.48 0-16.77-8.72-30.66-13.15-43.96 2.18-1.43 5.02-2.12 8.02-1.94-1.86 2.73-0.54 13.26 14.38 10.68 14.89-2.56 19.89-11.09 27.59-13.03-10.1-3.93-16.82-9.14-23.11-9.46-12.53-0.63-21.76 6.52-18.51 9.61-2.68-0.46-7.66 0.26-9.02 2.1-0.05-0.19-0.12-0.38-0.18-0.56l-16.44-23.62c0.62-2.43-1.97-6.57-4.25-8.28 5.55 0.39 6.57-11.96-2.95-21.42-4.77-4.74-14.96-6.38-26.23-11.6 3.39 7.47-2.09 17.45 5.72 31.03 7.82 13.61 19.83 7.23 21.4 3.83 2.5 2.42 3.85 5.38 3.65 8.33l0.65-0.36c-0.85 5.51 4.89 12.96 7.08 20.55 1.93 6.72 6.47 13.28 9.31 19.73 3.71 8.42 5.54 16.65 5.54 24.69 0 5.1-1.05 19.94-2.89 26.79-3 7.9-8.24 17.42-13.32 23.71-10.57 13.74-16.28 19.38-28.83 33.89-11.79 13.63-24.83 20.19-47.34 20.19-10.11-0.27-20.17-0.31-30.19 1.02 2.05-6.3 2.52-11.79 4.96-13.9 5.68-4.93 14.48-10.1 17.15-14.52 2.68-4.41 8.35-6.54 11.85-11.6 11.15-16.11 13.68-37.93 17.45-57.55 1.57-8.16-0.57-17.91-0.94-27.5 1.68-0.57 3.54-0.84 5.48-0.72-1.85 2.73-0.53 13.26 14.39 10.68 14.88-2.56 19.89-11.08 27.59-13.03-10.11-3.93-16.83-9.14-23.11-9.46-12.53-0.63-21.77 6.53-18.51 9.61-1.57-0.27-3.94-0.11-5.9 0.41 0-2.94 0.18-5.86 0.77-8.69 0.5-2.44 12.99-9.7 14.62-12.06-2.61-0.65-6.03-1.16-9.61-0.51 0.12-2.46-2.26-6.09-4.36-7.67 5.54 0.39 6.56-11.96-2.95-21.42-4.77-4.74-15.02-6.38-26.3-11.6 3.39 7.47-2.03 17.4 5.78 30.98 7.83 13.61 19.84 7.28 21.4 3.88 1.99 1.93 3.21 4.2 3.54 6.54-4.66 1.75-9.26 6.01-12.5 15.08 0 3.4-0.41 13.62-0.94 16.97-4.33-2.91-25.39-20.71-23.05-32.91-1.06-4.77-5.17-9.7-6.84-14.78-2.24-6.8-1.9-13.85-1.12-20.95-1.11-3.41 0.39-7.2 0.41-10.02l0.65 0.71c0.75-2.88 3.01-5.43 6.19-7.15 0.42 3.64 9.88 12.63 21.75 1.43 11.84-11.18 9.8-22.06 15.45-28.42-12.5 2.3-22.85 1.44-28.95 4.85-12.16 6.81-15.12 18.93-9.67 19.89-2.36 0.94-5.54 3.53-6.48 5.83-0.27-0.26-0.59-0.48-1-0.67-0.65-2.21-2.42-4.74-4.07-5.98 5.54 0.39 6.57-11.96-2.95-21.42-4.77-4.74-15.02-6.384-26.29-11.6zm181.05 42.17c-12.5 2.3-22.85 1.39-28.95 4.8-12.16 6.81-15.12 18.93-9.67 19.89-2.86 1.14-6.95 4.75-6.78 7.26l2.01 2.14c0.75-2.88 3.01-5.43 6.19-7.15 0.42 3.64 9.88 12.63 21.75 1.43 11.85-11.18 9.81-22.01 15.45-28.37zm-76.53 91.49c-8.09-0.17-14.01 2.83-12.67 5.93-2.64-1.49-8.37-2.58-10.73-1.12l-1 2.61c3.21-0.98 6.88-0.71 10.26 0.71-3.34 2.24-7.11 14.02 10.14 16.82 17.2 2.79 26.75-4.52 35.96-3.73-8.88-7.97-13.54-16.03-20.11-18.71-4.09-1.67-8.17-2.42-11.85-2.51zm-7.25 34c-13.06 0.31-22.2 7.8-18.69 11.14-3.09-0.54-8.86 0.23-10.43 2.35l0.18 2.76c2.56-1.94 6.1-2.84 9.84-2.61-2.14 3.16-0.58 15.29 16.63 12.32 17.16-2.96 22.89-12.78 31.77-15.03-11.65-4.53-19.4-10.57-26.64-10.93-0.91-0.05-1.79-0.03-2.66 0zm-190.66 5.21c-0.51 2.52-2.35 4.78-5.01 6.39-0.54-3.14-9.2-10.55-18.93-0.41-9.7 10.11-7.39 19.43-11.97 25.15 10.71-2.46 19.71-2.09 24.82-5.27 10.21-6.34 12.2-16.95 7.43-17.58 2.42-1.1 5.76-4.32 5.49-6.49l-1.83-1.79zm221.14 56.28c-6.96 0.33-11.71 3.05-10.49 5.87-2.64-1.49-8.37-2.58-10.73-1.12l-1 2.61c3.21-0.98 6.89-0.66 10.26 0.76-3.34 2.24-7.11 13.97 10.14 16.77 17.2 2.79 26.75-4.46 35.96-3.68-8.88-7.97-13.54-16.08-20.11-18.76-4.91-2-9.85-2.65-14.03-2.45z" fill-rule="evenodd" stroke="#000" stroke-width="2.387" fill="#008000"/>
  <path id="path2387" d="m288.65 134.64c0.01 0.02 0 0.04 0 0.05l-4.12 10.64c4.09 7.11-0.35 14.28 0.17 21.92-1.68-0.95-0.9 2.51 0.77 4.14 1.42 5.2 3.52 7.83 5.07 13.19 1.71 5.95 4.39 15.24 8.84 19.89 10.1 10.53 17.27 10.66 20.99 23.56 3.37 4.65 2.16 14.19-0.77 24.23-1.86-1.66-2.63 1.28-0.94 3.12-3.78 11.7-9.5 23.49-13.03 28.52-4.13 5.97-11.29 11.07-13.5 14.72-0.98 1.62-7.79 4.9-11.02 4.04-2.18-10.47-0.53-20.7-9.5-34.66-3.03-7.89-12.13-12.69-16.15-17.68-7.23-9.95-21.26-34.83-21.87-36.19 1.15-2.03 0.08-4.47-1.18-2.71-6.05-14.4-9.23-29.98-9.2-33.43 0.37-0.93 3.99-8.12 4.72-9.76 1.45-3.29-1.05-4.36 0.94-8.69 1.99-4.34-4.47-4.65-2.95-8.08 0.77-1.72 7.53-4.82 8.02-6.03 0.25-0.61 7.24-4.2 7.43-4.76 0.19-0.55 0.41-2.49 0.41-5.31-1.46 1.6-2.78 2.77-4.01 3.68-0.49-2.08-3.74-1.19-2.24 0.56l1.06 0.31c-2.67 1.7-4.96 2.14-7.37 2.96-0.76 0.26-2.09 0.93-3.53 1.74-0.66-2.21-3.19-0.39-2.71 1.69-2.91 1.95-5.48 4.24-4.78 5.72 4.7 8.62-1.8 12.98-3.24 19.99-1.2-2.25-2.61 0.56-1 3.17l0.82-1.54c-0.01 0.14-0.05 0.27-0.06 0.41 0.51 26.37 10.9 44.55 17.75 65.07 0.84 2.53 1.86 4.85 3 7-1.22-0.15-2.41-0.21-3.36-0.1 4.02-3.34 2.08 5.83 0.18 2.56 1.76-0.01 3.45 0.19 5.01 0.66 2.22 3.6 4.65 6.71 6.9 9.51 0.72 0.9 1.49 1.85 2.24 2.81l-0.12-0.05c0.16 2.56 1.96 5.02 2.3 2.96 2.82 3.71 5.69 7.49 8.14 10.33 11.16 12.97 8.75 35.68 10.26 42.22l0.17-0.05c-2.02 4.21-3.26 8.52-4.42 12.42-0.88 2.97-1.56 5.35-2.24 7.56-3.03-1.2-7.93-0.7-11.67-2.3-9.33-3.98-12.71-7.26-15.86-8.53-12.05-4.87-18.82-9.15-24.82-19.37-6-10.23-11.09-19.62-18.93-30.72-5.01-7.1-14.37-15.26-15.97-17.18-1.61-1.91 1.29-7.91 1.29-15.49 0-3.45-0.96-5.82-2.41-7.66l0.35 0.1c-1.03-2.4-3.53-4.94-3.42-2.97-3.86-2.87-8.6-4.91-9.96-10.83-0.37-1.59-1.56-1.82-1.18-6.24 0.09-1.15 1.82-4.79 3.24-8.02h0.12c1.08-0.91 1.55-2.69 1.59-4.55 0.08-0.42 0.09-0.79 0-0.97-0.08-1.42-0.41-2.79-0.89-3.79 4.76 2.5-5.92 3.25-2.77 0.82 0.74 2.34 0.69 4.68-0.06 6.8v0.05l-4.42 4.24c0.8 0.69-3.77 4.63-3 5.06 0.42 1.85 0.78 3.51 1.12 5.12-2.93-0.03-2.85 3.28-0.18 2.3l0.53-0.72c0.63 2.63 1.42 5.19 3.18 8.02 2.4 3.85 8.08 8.61 8.08 13.09 0 4.96-1.74 9.14-2.89 12.63-1.6-2.01-2.54 0.98-0.88 3.37-0.21 1.62 0.01 3.04 1.06 4.29 3.69 4.4 12.96 9.81 16.68 15.08 6.22 8.81 8.15 16.95 15.04 28.68 1.51 2.57 2.98 5.13 4.54 7.66-2.55-0.97-0.94 2.09 1.88 3.74l-0.06-0.92c5.23 7.93 11.74 15.2 23.59 19.98 0.65 0.26 9.13 5.01 18.69 9.1 4.78 2.04 10.51 7.69 14.32 9.15 5.67 3.93 1.38 15.54 1.24 22.18-0.63 20.31-0.25 38.94-0.18 59.96 0.03 8.08 2.57 19.03 3.31 29.24 0.36 5.1 0.22 9.89-0.48 13.03-0.69 3.15-1.69 3.89-1.59 3.84-1.55 0.78-3.79 2.62-4.54 5.11-0.02 0.07 0.02 0.13 0 0.2-2.51 7.8-6.09 14.1-12.26 19.22-4.83 4-5.24 8.4-9.32 13.55-3.61 4.57-10.74 10.02-16.92 12.21l-15.21 10.33-22.7 5.26c0.96 1.94 11.72 3.81 22.88 0.41 5.67-1.73 11.47-8.16 16.15-9.76 9.17-3.14 17.38-7.07 24-10.79 6.46-3.62 11.37-7.05 14.21-9.4 1.87-1.56 3.46-3.22 5.01-4.91 1.62 1.48 3.52 3.18 3.71 3.53 0.29 0.51 3.95 3.85 3.95 8.99 0 3.77 7.35 7.1 7.14 13.09 0.51 1.78-2.04 5.79-1.77 7.56 0.51 3.34 1.1 6.69 3.42 10.02-1.22 1.82 19.84 8.87 22.46 7.21 0.67-0.43-10.82-7.31-12.56-7.97-0.75-0.29-6.24-6.8-6.19-7.88 0.11-2.14 2.66-3.6 2.77-6.64 0.12-3.19 0.22-8.57 0.3-11.71 0.07-2.85-6.38-6.66-7.02-8.58-2.79-8.46 3.71-3.69 3.42-4.4 0.28 0.31 8.07 2.96 8.37 3.27 2.52 2.67 7.08 5.66 19.46 8.13 5.59 1.12 12.11 3.6 17.8 4.19 6.78 0.7 12.44-0.71 13.98-2.61l-11.32-1.53-15.39-6.59c-12.04-0.88-11.31-7.59-14.03-10.48-7.29-12.18-13.18-9.18-9.2-20.19-2.02-4.46-5.81-6.65-2.48-10.53 1.22-5.51-0.46-8.97-0.88-14.77-0.83-11.61-2.17-26.19-2.18-30.62-0.07-20.16-1.42-34.48-0.77-55.36 0.31-10.1-0.5-15.84-0.53-25.56 3.14-5.01 3.98-9.09 7.9-9.5 9.47-0.83 19.7-0.41 23.88-0.41 27 0 42.92-10.16 56.07-25.35 12.26-14.18 23.53-26.08 34.72-40.64 2.59-3.36 11.7-21.09 15.15-24.94 18.34-20.51 13.33-8.77 31.49-30.16 1.28-1.52 14.36-15.38 14.97-16.36 0.02-0.03 0.04-0.07 0.06-0.1l0.65 1.58c1.79-2.51 1.73-5.84-0.12-4.03 0.06-4.67-3.12-12.37-0.94-16.05 12.79-12.73 8.93-4.32 17.74-11.25 0.08-0.15 0.11-0.23 0.18-0.36l1.36 1.43c0.75-2.88 0.19-6.59-1.13-4.6-3.22 0.69-5.7 1.2-7.72 1.59-1.65-1.7-4.47-0.94-2.71 0.56-6.87 1.4-6.6 2.07-16.57 11.14-2.6 4.41 0.58 12.05-1.59 15.54-3.79 12.36-16.09 22.5-29.18 31.18-2.95 1.96-8.07 1.98-10.73 4.04 0.62-3.48 1.18-7 1.18-10.48 0-16.77-8.72-30.66-13.15-43.96 2.18-1.43 0.71-3.88-0.65-2.04-0.05-0.19-0.12-0.38-0.18-0.56l-16.44-23.62c0.62-2.43-2.46-1.06-2.66 1.89l0.65-0.36c-0.85 5.51 4.89 12.96 7.08 20.55 1.93 6.72 6.47 13.28 9.31 19.73 3.71 8.42 5.54 16.65 5.54 24.69 0 5.1-1.05 19.94-2.89 26.79-3 7.9-8.24 17.42-13.32 23.71-10.57 13.74-16.28 19.38-28.83 33.89-11.79 13.63-24.83 20.19-47.34 20.19-10.11-0.27-20.17-0.31-30.19 1.02 2.05-6.3 2.52-11.79 4.96-13.9 5.68-4.93 14.48-10.1 17.15-14.52 2.68-4.41 8.35-6.54 11.85-11.6 11.15-16.11 13.68-37.93 17.45-57.55 1.57-8.16-0.57-17.91-0.94-27.5 1.68-0.57 1.9-3.03-0.06-2.51 0-2.94 0.18-5.86 0.77-8.69 0.5-2.44 12.99-9.7 14.62-12.06-2.61-0.65-6.03-1.16-9.61-0.51 0.12-2.46-3.22-1.63-2.89 0.71-4.66 1.75-9.26 6.01-12.5 15.08 0 3.4-0.41 13.62-0.94 16.97-4.33-2.91-25.39-20.71-23.05-32.91-1.06-4.77-5.17-9.7-6.84-14.78-2.24-6.8-1.9-13.85-1.12-20.95-1.11-3.41 0.39-7.2 0.41-10.02l0.65 0.71c0.75-2.88-0.77-5.87-1.71-3.57-0.27-0.26-0.59-0.48-1-0.67-0.65-2.21-3.08-0.24-2.66 1.94zm105 33.18l2.01 2.14c0.75-2.88-2.18-4.65-2.01-2.14zm-67.5 107.03l0.18 2.76c2.56-1.94 1.39-4.88-0.18-2.76zm-161.54-8.28c-0.51 2.52 2.1 3.96 1.83 1.79l-1.83-1.79z" fill-rule="evenodd" stroke="#000" stroke-width="2.387" fill="#803300"/>
 </g>
</svg>
