<svg width="370" height="370" xmlns="http://www.w3.org/2000/svg" xmlns:svg="http://www.w3.org/2000/svg">
 <metadata id="metadata8">image/svg+xml</metadata>
 <g>
  <title>Layer 1</title>
  <path id="path260" d="m1019.359985,521.55127c-1.163696,0 -2.322449,-0.044983 -3.473755,-0.134949c1.149963,0.088745 2.310059,0.134949 3.473755,0.134949c25.938721,0 48.678711,-22.402466 61.371216,-56.011261c0.001343,-0.002441 -0.001221,0.001312 0.001343,-0.001221c-12.693848,33.615021 -35.431396,56.012482 -61.372559,56.012482m-3.47876,-0.134949c-0.023743,-0.002502 -0.046265,-0.003845 -0.068787,-0.006287c0.023804,0.002441 0.045044,0.003784 0.068787,0.006287m-0.130005,-0.010071c-0.005005,-0.001221 -0.01001,-0.001221 -0.013794,-0.001221c0.003784,0 0.008789,0 0.013794,0.001221" fill-rule="nonzero" fill="#e2e1e1"/>
  <path id="path262" d="m1080.731323,465.540009c2.782471,-7.366241 5.079956,-15.267487 6.824951,-23.592529c-1.743774,8.32254 -4.043823,16.22879 -6.82373,23.591309c-0.002441,0.002441 0,-0.001312 -0.001221,0.001221m10.698608,-61.790009c0,-0.056213 0,-0.112518 0,-0.16748c0,0.054962 0,0.111267 0,0.16626l0,0m0,-0.214996c0,-0.047516 -0.001221,-0.093781 -0.001221,-0.141296c0,0.046234 0.001221,0.093781 0.001221,0.141296m-0.001221,-0.173798c0,-0.054993 0,-0.112457 0,-0.16748c0,0.055023 0,0.112488 0,0.16748m0,-0.206207c0,-0.047546 0,-0.093781 0,-0.142517c0,0.047516 0,0.096283 0,0.142517m-0.001221,-0.176239c0,-0.056335 0,-0.117493 0,-0.172516c0,0.057312 0,0.113739 0,0.172516m0,-0.195007c0,-0.056244 -0.001221,-0.10257 -0.001221,-0.157562c0,0.05127 0.001221,0.105072 0.001221,0.157562m-0.001221,-0.187561c0,-0.059967 -0.001343,-0.117462 -0.001343,-0.176239c0,0.057556 0.001343,0.117493 0.001343,0.176239m-0.001343,-0.181183c0,-0.060028 -0.001221,-0.110016 -0.001221,-0.168762c0,0.055023 0.001221,0.113739 0.001221,0.168762m-0.001221,-0.202545c-0.001221,-0.059998 -0.001221,-0.11377 -0.001221,-0.172607c0,0.057617 0,0.11496 0.001221,0.172607m-0.001221,-0.173798c-0.001343,-0.06015 -0.001343,-0.117432 -0.002563,-0.17749c0.001221,0.061279 0.001221,0.11618 0.002563,0.17749m-0.002563,-0.20636c-0.001221,-0.118591 -0.002441,-0.235077 -0.003662,-0.35379c0.001221,0.117493 0.002441,0.235199 0.003662,0.35379m-0.003662,-0.381348c-0.001343,-0.051178 -0.001343,-0.102448 -0.002563,-0.153717c0.001221,0.050049 0.001221,0.10376 0.002563,0.153717m-0.002563,-0.182495c0,-0.059967 -0.001221,-0.11618 -0.002441,-0.174927c0.001221,0.057434 0.002441,0.117493 0.002441,0.174927m-0.002441,-0.191162c0,-0.05127 -0.001221,-0.102539 -0.002563,-0.153809c0.001343,0.052551 0.002563,0.102539 0.002563,0.153809m-0.002563,-0.19632c-0.001221,-0.054993 -0.001221,-0.113739 -0.002441,-0.168762c0.001221,0.055023 0.001221,0.115051 0.002441,0.168762m-0.002441,-0.181183c-0.001343,-0.05127 -0.002563,-0.107483 -0.002563,-0.158783c0,0.05249 0.001221,0.107513 0.002563,0.158783m-0.003784,-0.201233c-0.001221,-0.0513 -0.001221,-0.101288 -0.002441,-0.152557c0.001221,0.05127 0.001221,0.101257 0.002441,0.152557m-0.002441,-0.171112c-0.001343,-0.058838 -0.002563,-0.108704 -0.003784,-0.16745c0.001221,0.057312 0.002441,0.109985 0.003784,0.16745m-0.003784,-0.212494c-0.001221,-0.04248 -0.002441,-0.08374 -0.002441,-0.127472c0,0.043732 0.001221,0.083771 0.002441,0.127472m-0.003784,-0.177521c-0.001221,-0.054932 -0.002441,-0.10498 -0.002441,-0.160004c0,0.052521 0.001221,0.108795 0.002441,0.160004m-0.003784,-0.203705c-0.001221,-0.039978 -0.002441,-0.086273 -0.002441,-0.125031c0,0.04126 0.001221,0.08374 0.002441,0.125031m-0.003662,-0.178741c-0.001221,-0.0513 -0.002563,-0.102539 -0.003784,-0.153748c0.001221,0.051208 0.002563,0.101257 0.003784,0.153748m-0.005005,-0.221252c-0.001343,-0.031311 -0.001343,-0.059967 -0.002563,-0.091248c0.001221,0.029968 0.001221,0.061249 0.002563,0.091248m-0.003784,-0.176239c-0.001221,-0.027557 -0.001221,-0.056244 -0.002441,-0.083771c0.001221,0.027527 0.001221,0.056213 0.002441,0.083771m-0.006226,-0.231262c0,-0.019989 -0.001343,-0.04007 -0.001343,-0.058746c0,0.018677 0.001343,0.039978 0.001343,0.058746m-0.003784,-0.16626c0,-0.011261 -0.001221,-0.028748 -0.001221,-0.040039c0,0.013824 0.001221,0.026245 0.001221,0.040039m-0.01123,-0.39624c0,-0.007477 0,-0.015045 0,-0.023743c0,0.008698 0,0.016266 0,0.023743" fill-rule="nonzero" fill="#d8d7d8"/>
  <path id="path270" d="m898.787537,150.587463l0,0c118.003784,-0.199966 132.543762,-54.940033 140.862488,-54.940033c0.100098,0 0.19873,0.007553 0.297485,0.023796c-0.098755,-0.01503 -0.197388,-0.023796 -0.297485,-0.023796c-8.316284,0 -22.842468,54.757553 -140.862488,54.950043m143.69635,-52.478714c-0.001343,-0.002518 -0.003906,-0.006256 -0.005127,-0.008766c0.001221,0.003738 0.002563,0.006256 0.005127,0.008766m-0.012573,-0.020073c-0.002563,-0.004959 -0.005005,-0.009987 -0.008789,-0.014946c0.003784,0.004959 0.006226,0.009987 0.008789,0.014946m-0.012451,-0.022415c-0.440063,-0.754997 -0.842529,-1.315002 -1.196411,-1.663834c0.353882,0.350044 0.755127,0.908813 1.196411,1.663834m-1.237549,-1.703804c-0.002563,-0.002518 -0.005005,-0.004959 -0.008789,-0.007477c0.003784,0.002518 0.006226,0.004959 0.008789,0.007477" fill-rule="nonzero" fill="#d8d7d8"/>
  <g id="svg_2">
   <path id="path242" d="m329.737427,48.336269c-8.463745,-8.336269 -16.606201,54.185047 -143.10614,54.185047c-126.502567,0 -134.643787,-62.521275 -143.107548,-54.185047c-8.462521,8.336262 -43.523739,136.155018 -10.88129,205.221226c32.643806,69.065033 153.988838,53.196259 153.988838,53.196259c0,0 121.34375,15.868774 153.987488,-53.196259c32.642456,-69.066208 -2.418823,-196.884979 -10.881348,-205.221226" fill-rule="nonzero" fill="#68431a"/>
   <path id="path244" d="m180.242493,201.501236c0,38.116241 -30.898743,69.016251 -69.016296,69.016251c-38.116211,0 -69.016247,-30.899979 -69.016247,-69.016251c0,-38.117523 30.900021,-69.017487 69.016247,-69.017487c38.117554,0 69.016296,30.899963 69.016296,69.017487" fill-rule="nonzero" fill="#934924"/>
   <path id="path246" d="m159.067505,201.501236c0,26.421295 -21.418762,47.839981 -47.841309,47.839981c-26.421211,0 -47.841267,-21.418686 -47.841267,-47.839981c0,-26.422501 21.420033,-47.841248 47.841267,-47.841248c26.422546,0 47.841309,21.418747 47.841309,47.841248" fill-rule="nonzero" fill="#fbc308"/>
   <path id="path248" d="m159.067505,201.501236c0,26.421295 -21.418762,47.839981 -47.841309,47.839981c-26.421211,0 -47.841267,-21.418686 -47.841267,-47.839981c0,-26.422501 21.420033,-47.841248 47.841267,-47.841248c26.422546,0 47.841309,21.418747 47.841309,47.841248" fill-rule="nonzero" fill="#ffff00"/>
   <path id="path270" d="m187.262512,102.511215l0,0c118.003784,-0.199966 132.543762,-54.940022 140.862488,-54.940022c0.100098,0 0.19873,0.007553 0.297485,0.023804c-0.098755,-0.01503 -0.197388,-0.023804 -0.297485,-0.023804c-8.316284,0 -22.842468,54.757542 -140.862488,54.950031m143.69635,-52.478703c-0.001343,-0.002525 -0.003906,-0.006264 -0.005127,-0.008774c0.001221,0.003738 0.002563,0.006264 0.005127,0.008774m-0.012573,-0.020073c-0.002563,-0.004959 -0.005005,-0.009987 -0.008789,-0.014946c0.003784,0.004959 0.006226,0.009987 0.008789,0.014946m-0.012451,-0.022423c-0.440063,-0.754997 -0.842529,-1.314995 -1.196411,-1.663826c0.353882,0.350037 0.755127,0.908813 1.196411,1.663826m-1.237549,-1.703796c-0.002563,-0.002518 -0.005005,-0.004959 -0.008789,-0.007477c0.003784,0.002518 0.006226,0.004959 0.008789,0.007477" fill-rule="nonzero" fill="#d8d7d8"/>
   <path id="path274" d="m259.454956,270.517487c-38.117493,0 -69.016251,-30.899948 -69.016251,-69.016266c0,-38.117462 30.898743,-69.017487 69.016251,-69.017487c38.116211,0 69.016235,30.90004 69.016235,69.017487c0,38.116287 -30.899994,69.016266 -69.016235,69.016266m0,-116.857498c-26.422501,0 -47.841248,21.418747 -47.841248,47.841248c0,26.42131 21.418747,47.840012 47.841248,47.840012c26.421265,0 47.841248,-21.418701 47.841248,-47.840012c0,-26.422501 -21.419983,-47.841248 -47.841248,-47.841248" fill-rule="nonzero" fill="#934924"/>
   <path fill="none" stroke-width="10" stroke-miterlimit="4" id="path3187" d="m77.474976,209.843552c0,0 34.004875,-62.669785 70.187378,0" stroke="#000000"/>
   <path id="svg_14" d="m305.427368,202.479935c0,26.42131 -21.418823,47.839951 -47.841309,47.839951c-26.421249,0 -47.841309,-21.41864 -47.841309,-47.839951c0,-26.422516 21.420044,-47.841248 47.841309,-47.841248c26.422485,0 47.841309,21.418732 47.841309,47.841248" fill-rule="nonzero" fill="#ffff00"/>
   <path id="svg_1" fill="none" stroke-width="10" stroke-miterlimit="4" d="m225.974976,209.850388c0,0 34.004883,-62.669815 70.187378,0" stroke="#000000"/>
   <path id="path272" d="m216.159973,308.327728c-8.674988,0 -10.664001,1.75 -21.192017,-0.776001c-10.528992,-2.526978 -8.098999,-67.723984 -6.881958,-49.582977c1.217957,18.140991 -0.55304,0.000977 -0.823013,0.003998l0,-155.46199c118.021988,-0.182022 132.541946,-54.939518 140.862015,-54.939518c0.099976,0 0.199951,0.008705 0.299927,0.023712c0.430054,0.071297 0.850098,0.297478 1.26001,0.693787c0.01001,0.002502 0.01001,0.004997 0.01001,0.007507c0.01001,0.013794 0.030029,0.027489 0.040039,0.039993l0,0c0.359985,0.348701 0.76001,0.908707 1.199951,1.663696c0,0.002487 0,0.005005 0,0.007507c0.01001,0.005096 0.01001,0.009987 0.01001,0.014992c0,0.003799 0.01001,0.008804 0.01001,0.011299c0,0.002502 0,0.00621 0,0.008698c10.01001,17.255306 40.26001,134.964298 10.540039,201.471302c0.02002,0.01297 0.030029,0.023987 0.049927,0.036011c-0.299927,0.672974 -0.609985,1.344971 -0.929932,2.007965c-9.139984,19.339996 -25.22998,32.018005 -43.670044,40.251984c-26.680939,11.913025 -58.263977,14.518005 -80.784897,14.518005m43.294968,-175.843979c-38.116989,0 -69.016022,30.900009 -69.016022,69.016998c0,38.117004 30.899033,69.016983 69.016022,69.016983c38.119995,0 69.02002,-30.899979 69.02002,-69.016983c0,-38.116989 -30.900024,-69.016998 -69.02002,-69.016998" fill-rule="nonzero" fill="#5b3a16"/>
   <g id="svg_3">
    <polygon stroke-width="null" points="185.14166259765625,225.23199462890625 198.39324951171875,240.18443298339844 211.64483642578125,255.13681030273438 185.14166259765625,255.13681030273438 158.638427734375,255.13681030273438 171.8900146484375,240.18443298339844 185.14166259765625,225.23199462890625 198.39324951171875,240.18443298339844 " fill="#000000" id="svg_10"/>
    <polygon transform="rotate(-180 185.80834960937503,283.9236755371094) " id="svg_13" stroke-width="null" points="185.808349609375,254.97125244140625 199.0599365234375,283.9237060546875 212.3115234375,312.8760986328125 185.808349609375,312.8760986328125 159.30517578125,312.8760986328125 172.5567626953125,283.9237060546875 185.808349609375,254.97125244140625 199.0599365234375,283.9237060546875 " fill="#000000"/>
   </g>
  </g>
 </g>
</svg>