<svg width="450" height="220" xmlns="http://www.w3.org/2000/svg" xmlns:svg="http://www.w3.org/2000/svg">
 <g stroke="null">
  <title>Layer 1</title>
  <path d="m236.38223,81.72887c1,56.98933 -20.81769,158.78704 -62.24154,158.78704c-42.58485,0 -123.24154,-101.79771 -123.24154,-158.78704c0,-56.98933 61.25221,-104.24154 100.24154,-104.24154c38.98933,0 84.24154,47.25221 85.24154,104.24154z" id="path2383" stroke-miterlimit="4" stroke-linecap="round" stroke-width="4" fill-rule="nonzero" fill="#cccccc" transform="rotate(90 143.65713500976565,109.00161743164064) " stroke="#000000"/>
  <g id="svg_1">
   <path d="m26.32187,129.04152c0,6.12719 -7.33449,13.46167 -11.09997,13.46167c-4.23782,0 -11.09996,-7.33448 -11.09996,-13.46167c0,-6.12717 4.97278,-5.43189 11.09996,-5.43189c6.12718,0 11.09997,-0.69528 11.09997,5.43189z" id="path2390" stroke-miterlimit="4" stroke-linecap="round" stroke-width="2" fill-rule="nonzero" fill="#000000"/>
   <path d="m36.49004,127.08408c45.55878,-21.23986 66.58592,-1.76999 66.58592,-1.76999" id="path2445" stroke-miterlimit="4" stroke-linecap="round" stroke-width="2.85967" fill-rule="evenodd" fill-opacity="0.75" fill="none" stroke="#000000"/>
   <path d="m32.1094,135.04905c33.29294,-21.23988 62.20525,13.27492 62.20525,13.27492" id="path2447" stroke-miterlimit="4" stroke-linecap="round" stroke-width="2.85967" fill-rule="evenodd" fill-opacity="0.75" fill="none" stroke="#000000"/>
   <path d="m32.1094,139.47401c35.04522,-17.69989 41.17813,25.66485 41.17813,25.66485" id="path2449" stroke-miterlimit="4" stroke-linecap="round" stroke-width="2.85967" fill-rule="evenodd" fill-opacity="0.75" fill="none" stroke="#000000"/>
   <g id="svg_3">
    <path d="m55.53084,100.79958c0.00191,5.73842 -3.52173,10.39166 -7.86903,10.39166c-4.34729,0 -7.87092,-4.65324 -7.86901,-10.39166c-0.00191,-5.73842 3.52172,-10.39166 7.86901,-10.39166c4.3473,0 7.87094,4.65324 7.86903,10.39166z" id="path2399" stroke-miterlimit="4" stroke-linecap="round" stroke-width="2" fill-rule="nonzero" fill="#000000" stroke="#000000"/>
    <path d="m49.23562,99.32848c0.00082,1.96986 -0.98588,3.56746 -2.20332,3.56746c-1.21745,0 -2.20415,-1.5976 -2.20333,-3.56746c-0.00082,-1.96986 0.98588,-3.56746 2.20333,-3.56746c1.21744,0 2.20414,1.5976 2.20332,3.56746l0,0z" id="path2403" stroke-miterlimit="4" stroke-linecap="round" stroke-width="2" fill-rule="nonzero" fill="#ffffff"/>
   </g>
  </g>
  <g id="svg_2">
   <path d="m122.41697,101.79476c24.03021,-2.36465 42.81251,-22.63283 42.8125,-47.28125c0,-26.23594 -21.29531,-47.53128 -47.53125,-47.53125c-26.23594,0 -47.53126,21.29529 -47.53125,47.53125c0,1.84402 0.1078,3.67925 0.3125,5.46875" id="path2386" stroke-miterlimit="4" stroke-linecap="round" stroke-width="4" fill-rule="nonzero" fill="#cccccc" stroke="#000000"/>
   <path d="m116.82322,13.73226c-17.8296,0.25116 -34.35759,14.09505 -38.625,31.25c8.38071,-5.51319 18.89809,-8.8125 30.3125,-8.8125c22.94049,-0.00002 42.24104,13.27117 47.875,31.25c8.97223,-23.95691 -11.56161,-53.86142 -37.5,-53.65625c-0.69023,-0.03128 -1.37547,-0.04093 -2.0625,-0.03125z" id="path2427" stroke-miterlimit="4" stroke-linecap="round" stroke-width="2" fill-rule="nonzero" fill-opacity="0.31373" fill="#000000"/>
  </g>
  <g id="svg_7">
   <path d="m285.48845,98.55759c24.3201,-16.12042 50.31601,-60.01239 100.1002,-7.65984c49.78419,52.35255 53.05596,39.45546 64.11802,34.62368c11.06206,-4.83178 -5.10548,14.89338 -19.49187,12.59043c-35.39315,-5.66569 -58.98858,-59.80455 -91.81701,-59.17503c-33.07987,0.63434 -54.49924,44.47846 -68.28928,51.70307l-2.11864,-9.88443l0.0435,-6.53577l17.45508,-15.66211z" id="path3264" stroke-miterlimit="4" stroke-width="4" fill-rule="evenodd" fill="#cccccc" stroke="#000000"/>
   <path fill="#000000" stroke-width="4" stroke-dasharray="null" stroke-linejoin="null" stroke-linecap="null" fill-opacity="0.31373" d="m285.09181,112.86499c0,0 25.27295,-39.8672 54.28344,-39.8672c29.0105,0 75.28492,55.35132 73.57543,57.0713c-1.70949,1.71998 -53.64183,-50.66406 -74.99925,-51.02003c-21.35742,-0.35596 -50.90186,33.28199 -51.00954,33.22218" id="svg_6"/>
  </g>
 </g>
</svg>
