<svg width="450" height="250" xmlns="http://www.w3.org/2000/svg" xmlns:svg="http://www.w3.org/2000/svg">
 <g stroke="null">
  <title>Layer 1</title>
  <path d="m244.89868,104.21242c0,56.98933 -61.81769,161.78704 -103.24154,161.78704c-42.58485,0 -103.24154,-104.79771 -103.24154,-161.78704c0,-56.98933 46.25221,-103.24154 103.24154,-103.24154c56.98933,0 103.24154,46.25221 103.24154,103.24154z" id="path2383" stroke-miterlimit="4" stroke-linecap="round" stroke-width="4" fill-rule="nonzero" fill="#cccccc" transform="rotate(90 141.65713500976562,133.48516845703128) " stroke="#000000"/>
  <path d="m119.41697,109.79476c24.03021,-2.36465 42.81251,-22.63283 42.8125,-47.28125c0,-26.23594 -21.29531,-47.53128 -47.53125,-47.53125c-26.23594,0 -47.53126,21.29529 -47.53125,47.53125c0,1.84402 0.1078,3.67925 0.3125,5.46875" id="path2386" stroke-miterlimit="4" stroke-linecap="round" stroke-width="4" fill-rule="nonzero" fill="#cccccc" stroke="#000000"/>
  <path d="m24.07187,131.10402c0,6.12719 -7.33449,13.46167 -11.09997,13.46167c-4.23782,0 -11.09996,-7.33448 -11.09996,-13.46167c0,-6.12717 4.97278,-5.43189 11.09996,-5.43189c6.12718,0 11.09997,-0.69528 11.09997,5.43189z" id="path2390" stroke-miterlimit="4" stroke-linecap="round" stroke-width="2" fill-rule="nonzero" fill="#000000"/>
  <path d="m114.82322,21.73226c-17.8296,0.25116 -34.35759,14.09505 -38.625,31.25c8.38071,-5.51319 18.89809,-8.8125 30.3125,-8.8125c22.94049,-0.00002 42.24104,13.27117 47.875,31.25c8.97223,-23.95691 -11.56161,-53.86142 -37.5,-53.65625c-0.69023,-0.03128 -1.37547,-0.04093 -2.0625,-0.03125z" id="path2427" stroke-miterlimit="4" stroke-linecap="round" stroke-width="2" fill-rule="nonzero" fill-opacity="0.31373" fill="#000000"/>
  <path d="m34.24004,129.14658c45.55878,-21.23986 66.58592,-1.76999 66.58592,-1.76999" id="path2445" stroke-miterlimit="4" stroke-linecap="round" stroke-width="2.85967" fill-rule="evenodd" fill-opacity="0.75" fill="none" stroke="#000000"/>
  <path d="m29.8594,137.11155c33.29294,-21.23988 62.20525,13.27492 62.20525,13.27492" id="path2447" stroke-miterlimit="4" stroke-linecap="round" stroke-width="2.85967" fill-rule="evenodd" fill-opacity="0.75" fill="none" stroke="#000000"/>
  <path d="m29.8594,141.53651c35.04522,-17.69989 41.17813,25.66485 41.17813,25.66485" id="path2449" stroke-miterlimit="4" stroke-linecap="round" stroke-width="2.85967" fill-rule="evenodd" fill-opacity="0.75" fill="none" stroke="#000000"/>
  <path d="m255.87711,138.74802c1.53884,-23.2923 63.60507,-85.61493 117.97716,-22.66277c54.37208,62.95215 58.98858,33.36464 64.11802,34.62368c5.12945,1.25904 -5.10548,14.89338 -19.49187,12.59043c-35.39315,-5.66569 -58.98858,-59.80455 -91.81701,-59.17503c-33.07987,0.63434 -50.78148,35.88274 -50.78148,35.88274l-20.00482,-1.25905z" id="path3264" stroke-miterlimit="4" stroke-width="4" fill-rule="evenodd" fill="#cccccc" stroke="#000000"/>
  <path d="m326.71688,97.9375c14.71096,0.20866 30.62873,7.31967 45.85886,26.0625c14.02271,17.25694 24.34644,27.16801 32.05791,32.625l0,1.9375c-28.13386,-14.64816 -49.61068,-54.98128 -77.96769,-54.4375c-33.07988,0.63434 -50.77321,35.875 -50.77321,35.875l-7.68982,-0.46875c5.93464,-16.4904 29.97311,-41.99858 58.51397,-41.59375l-0.00002,0z" id="path2407" stroke-miterlimit="4" stroke-width="4" fill-rule="evenodd" fill-opacity="0.31373" fill="#000000"/>
  <g id="svg_3">
   <path d="m53.28084,102.86208c0.00191,5.73842 -3.52173,10.39166 -7.86903,10.39166c-4.34729,0 -7.87092,-4.65324 -7.86901,-10.39166c-0.00191,-5.73842 3.52172,-10.39166 7.86901,-10.39166c4.3473,0 7.87094,4.65324 7.86903,10.39166z" id="path2399" stroke-miterlimit="4" stroke-linecap="round" stroke-width="2" fill-rule="nonzero" fill="#000000" stroke="#000000"/>
   <path d="m46.98562,101.39098c0.00082,1.96986 -0.98588,3.56746 -2.20332,3.56746c-1.21745,0 -2.20415,-1.5976 -2.20333,-3.56746c-0.00082,-1.96986 0.98588,-3.56746 2.20333,-3.56746c1.21744,0 2.20414,1.5976 2.20332,3.56746l0,0z" id="path2403" stroke-miterlimit="4" stroke-linecap="round" stroke-width="2" fill-rule="nonzero" fill="#ffffff"/>
  </g>
 </g>
</svg>