<svg width="330.47946" height="325.95135" xmlns="http://www.w3.org/2000/svg" xmlns:svg="http://www.w3.org/2000/svg">

 <g>
  <title>Layer 1</title>
  <path fill="#6d4d36" fill-rule="evenodd" stroke="#000000" stroke-width="4" stroke-miterlimit="4" id="path3264" d="m227.12711,51.99802c-1.88858,-23.2923 -78.06067,-85.61493 -144.78996,-22.66277c-66.72928,62.95215 -72.39498,33.36464 -78.69019,34.62368c-6.29522,1.25903 6.26581,14.89337 23.92181,12.59042c43.43699,-5.66568 72.39498,-59.80454 112.68435,-59.17502c40.59798,0.63434 62.32265,35.88273 62.32265,35.88273l24.55135,-1.25904z"/>
  <path fill="#000000" fill-opacity="0.31373" fill-rule="evenodd" stroke-width="4" stroke-miterlimit="4" id="path2407" d="m140.1875,11.1875c-18.05434,0.20866 -37.58976,7.31967 -56.28125,26.0625c-17.20966,17.25694 -29.87968,27.16801 -39.34375,32.625l0,1.9375c34.52786,-14.64816 60.88576,-54.98128 95.6875,-54.4375c40.59798,0.63434 62.3125,35.875 62.3125,35.875l9.4375,-0.46875c-7.28342,-16.4904 -36.78513,-41.99858 -71.8125,-41.59375z"/>
  <path fill="#6d4d36" fill-rule="nonzero" stroke="#000000" stroke-width="4" stroke-linecap="round" stroke-miterlimit="4" id="path2383" d="m317.14868,151.46242c0,56.98933 -61.81769,161.78703 -103.24155,161.78703c-42.58484,0 -103.24153,-104.7977 -103.24153,-161.78703c0,-56.98933 46.25221,-103.24155 103.24153,-103.24155c56.98935,0 103.24155,46.25221 103.24155,103.24155z"/>
  <path fill="#000000" fill-opacity="0.31373" fill-rule="nonzero" stroke-width="4" stroke-linecap="round" stroke-miterlimit="4" id="path3397" d="m315.76071,134.60725c0.24832,2.91879 0.375,5.86105 0.375,8.84375c0,56.98933 -61.79489,161.81252 -103.21873,161.81252c-38.83992,-0.00003 -92.73138,-87.17963 -101.90626,-145.75002c5.11104,58.24704 62.25819,153.74998 102.90626,153.75002c41.42384,0 103.21873,-104.82318 103.21873,-161.81252c0,-5.73889 -0.47321,-11.35889 -1.375,-16.84375z"/>
  <path fill="#6d4d36" fill-rule="nonzero" stroke="#000000" stroke-width="4" stroke-linecap="round" stroke-miterlimit="4" id="path2386" d="m285.66696,233.04475c24.03021,-2.36464 42.81253,-22.63283 42.8125,-47.28125c0,-26.23593 -21.29529,-47.53128 -47.53125,-47.53125c-26.23593,0 -47.53125,21.2953 -47.53123,47.53125c0,1.84402 0.10779,3.67926 0.3125,5.46875"/>
  <path fill="#6d4d36" fill-rule="nonzero" stroke="#000000" stroke-width="4" stroke-linecap="round" stroke-miterlimit="4" id="path2388" d="m190.85448,191.7635c0.24701,-1.96181 0.375,-3.97153 0.375,-6c0,-26.23593 -21.26408,-47.53128 -47.5,-47.53125c-26.23595,0 -47.53127,21.2953 -47.53126,47.53125c0,25.2565 19.71447,45.92896 44.59376,47.4375"/>
  <path fill="#000000" fill-rule="nonzero" stroke-width="2" stroke-linecap="round" stroke-miterlimit="4" id="path2390" d="m225.32187,291.60403c0,6.12717 -7.33449,13.46167 -11.09998,13.46167c-4.23781,0 -11.09996,-7.3345 -11.09996,-13.46167c0,-6.1272 4.97279,-5.43192 11.09996,-5.43192c6.12718,0 11.09998,-0.69528 11.09998,5.43192z"/>
  <path fill="#000000" fill-rule="nonzero" stroke="#000000" stroke-width="2" stroke-linecap="round" stroke-miterlimit="4" id="path2397" d="m191.8739,250.61208c0.00191,5.73842 -3.52173,10.39168 -7.86903,10.39168c-4.34727,0 -7.87091,-4.65326 -7.869,-10.39168c-0.00191,-5.73842 3.52173,-10.39166 7.869,-10.39166c4.34731,0 7.87094,4.65324 7.86903,10.39166z"/>
  <path fill="#000000" fill-rule="nonzero" stroke="#000000" stroke-width="2" stroke-linecap="round" stroke-miterlimit="4" id="path2399" d="m248.53084,250.61208c0.00191,5.73842 -3.52173,10.39168 -7.86903,10.39168c-4.34729,0 -7.87091,-4.65326 -7.869,-10.39168c-0.00191,-5.73842 3.52171,-10.39166 7.869,-10.39166c4.34731,0 7.87094,4.65324 7.86903,10.39166z"/>
  <path fill="#ffffff" fill-rule="nonzero" stroke-width="2" stroke-linecap="round" stroke-miterlimit="4" id="path2401" d="m187.1525,248.1967c0.00081,1.96986 -0.98589,3.56746 -2.20332,3.56746c-1.21745,0 -2.20415,-1.5976 -2.20334,-3.56746c-0.00081,-1.96986 0.98589,-3.56746 2.20334,-3.56746c1.21744,0 2.20413,1.5976 2.20332,3.56746l0,0z"/>
  <path fill="#ffffff" fill-rule="nonzero" stroke-width="2" stroke-linecap="round" stroke-miterlimit="4" id="path2403" d="m242.23563,249.14098c0.00081,1.96986 -0.98589,3.56746 -2.20332,3.56746c-1.21745,0 -2.20415,-1.5976 -2.20334,-3.56746c-0.00081,-1.96985 0.98589,-3.56746 2.20334,-3.56746c1.21744,0 2.20413,1.59761 2.20332,3.56746l0,0z"/>
  <path fill="#000000" fill-opacity="0.31373" fill-rule="nonzero" stroke-width="2" stroke-linecap="round" stroke-miterlimit="4" id="path2427" d="m281.07321,144.98225c-17.82959,0.25116 -34.35757,14.09506 -38.62498,31.25c8.38071,-5.51318 18.89809,-8.8125 30.31248,-8.8125c22.94049,-0.00002 42.24106,13.27118 47.875,31.25c8.97223,-23.95691 -11.56161,-53.86142 -37.5,-53.65625c-0.69022,-0.03128 -1.37546,-0.04092 -2.0625,-0.03125z"/>
  <g stroke="#000000" stroke-width="2.85967" stroke-linecap="round" stroke-miterlimit="4" id="g3221" transform="matrix(1.3917402,0,0,1.4058212,-239.24654,-659.88464) ">
   <path fill="none" fill-opacity="0.75" fill-rule="evenodd" stroke="#000000" stroke-width="2.85967" stroke-linecap="round" stroke-miterlimit="4" id="path2445" d="m340.57117,672.76068c32.73511,-15.10852 47.84363,-1.25903 47.84363,-1.25903"/>
   <path fill="none" fill-opacity="0.75" fill-rule="evenodd" stroke="#000000" stroke-width="2.85967" stroke-linecap="round" stroke-miterlimit="4" id="path2447" d="m337.42355,678.42639c23.92181,-15.10852 44.69601,9.44281 44.69601,9.44281"/>
   <path fill="none" fill-opacity="0.75" fill-rule="evenodd" stroke="#000000" stroke-width="2.85967" stroke-linecap="round" stroke-miterlimit="4" id="path2449" d="m337.42355,681.57397c25.18088,-12.59045 29.58752,18.25616 29.58752,18.25616"/>
  </g>
  <g stroke="#000000" stroke-width="2.85967" stroke-linecap="round" stroke-miterlimit="4" id="g3384" transform="matrix(-1.3917402,0,0,1.4058212,667.06082,-659.88464) ">
   <path fill="none" fill-opacity="0.75" fill-rule="evenodd" stroke="#000000" stroke-width="2.85967" stroke-linecap="round" stroke-miterlimit="4" id="path3386" d="m340.57117,672.76068c32.73511,-15.10852 47.84363,-1.25903 47.84363,-1.25903"/>
   <path fill="none" fill-opacity="0.75" fill-rule="evenodd" stroke="#000000" stroke-width="2.85967" stroke-linecap="round" stroke-miterlimit="4" id="path3388" d="m337.42355,678.42639c23.92181,-15.10852 44.69601,9.44281 44.69601,9.44281"/>
   <path fill="none" fill-opacity="0.75" fill-rule="evenodd" stroke="#000000" stroke-width="2.85967" stroke-linecap="round" stroke-miterlimit="4" id="path3390" d="m337.42355,681.57397c25.18088,-12.59045 29.58752,18.25616 29.58752,18.25616"/>
  </g>
  <path fill="#000000" fill-opacity="0.31373" fill-rule="nonzero" stroke-width="2" stroke-linecap="round" stroke-miterlimit="4" id="path3405" d="m145.55775,144.98225c17.82959,0.25116 34.35759,14.09506 38.625,31.25c-8.38072,-5.51318 -18.8981,-8.8125 -30.3125,-8.8125c-22.94049,-0.00002 -42.24104,13.27118 -47.87501,31.25c-8.97223,-23.95691 11.56161,-53.86142 37.50001,-53.65625c0.69023,-0.03128 1.37547,-0.04092 2.0625,-0.03125z"/>
 </g>
</svg>