<svg width="410" height="510" xmlns="http://www.w3.org/2000/svg" xmlns:svg="http://www.w3.org/2000/svg">
 <metadata id="metadata8">image/svg+xml</metadata>
 <g>
  <title>Layer 1</title>
  <path id="path26" d="m147.20459,334.416656c0,65.059967 -32.266243,117.80127 -72.068787,117.80127c-39.802494,0 -72.068733,-52.741302 -72.068733,-117.80127c0,-65.059967 32.266239,-117.80127 72.068733,-117.80127c39.802536,0 72.068787,52.741302 72.068787,117.80127" fill-rule="nonzero" fill="#68431a"/>
  <path id="path28" d="m392.763245,334.416656c0,65.059967 -32.267456,117.80127 -72.069946,117.80127c-39.80127,0 -72.067505,-52.741302 -72.067505,-117.80127c0,-65.059967 32.266235,-117.80127 72.067505,-117.80127c39.80249,0 72.069946,52.741302 72.069946,117.80127" fill-rule="nonzero" fill="#68431a"/>
  <path id="path128" d="m343.980774,368.802887c0,66.276245 -64.691223,120.004944 -144.491272,120.004944c-79.801208,0 -144.492493,-53.728699 -144.492493,-120.004944c0,-66.276245 0,-120.00502 144.492493,-120.00502c135.618713,0 144.491272,53.728775 144.491272,120.00502" fill-rule="nonzero" fill="#934924"/>
  <path id="path130" d="m83.513367,440.380402c26.336243,29.387512 68.477478,48.42749 115.976257,48.42749c48.279968,0 90.998718,-19.686279 117.237427,-49.898743c-12.152466,-53.77121 -59.651245,-93.898773 -116.438721,-93.898773c-57.306213,0 -105.16748,40.859985 -116.774963,95.370026" fill-rule="nonzero" fill="#bc942f"/>
  <path id="path242" d="m342.595764,27.07918c-8.463745,-8.336269 -16.606201,54.185041 -143.10614,54.185041c-126.502563,0 -134.643784,-62.521292 -143.107544,-54.185041c-8.462521,8.33626 -43.52374,136.155012 -10.88129,205.221235c32.643803,69.065033 153.988834,53.196259 153.988834,53.196259c0,0 121.34375,15.868774 153.987488,-53.196259c32.642456,-69.066223 -2.418823,-196.884995 -10.881348,-205.221235" fill-rule="nonzero" fill="#68431a"/>
  <path id="path244" d="m193.10083,180.244141c0,38.116241 -30.898743,69.016266 -69.016296,69.016266c-38.116211,0 -69.016243,-30.900009 -69.016243,-69.016266c0,-38.117523 30.900017,-69.017479 69.016243,-69.017479c38.117554,0 69.016296,30.899956 69.016296,69.017479" fill-rule="nonzero" fill="#934924"/>
  <path id="path246" d="m171.925842,180.244141c0,26.421295 -21.418762,47.839981 -47.841309,47.839981c-26.421204,0 -47.841263,-21.418686 -47.841263,-47.839981c0,-26.422501 21.420036,-47.841248 47.841263,-47.841248c26.422546,0 47.841309,21.418747 47.841309,47.841248" fill-rule="nonzero" fill="#fbc308"/>
  <path id="path248" d="m171.925842,180.244141c0,26.421295 -21.418762,47.839981 -47.841309,47.839981c-26.421204,0 -47.841263,-21.418686 -47.841263,-47.839981c0,-26.422501 21.420036,-47.841248 47.841263,-47.841248c26.422546,0 47.841309,21.418747 47.841309,47.841248" fill-rule="nonzero" fill="#ffff00"/>
  <path id="path260" d="m320.693298,452.217926c-1.163696,0 -2.322449,-0.044983 -3.473755,-0.134949c1.149963,0.088745 2.310059,0.134949 3.473755,0.134949c25.938721,0 48.678711,-22.402466 61.371216,-56.011261c0.001343,-0.002441 -0.001221,0.001312 0.001343,-0.001221c-12.693848,33.615021 -35.431396,56.012482 -61.372559,56.012482m-3.47876,-0.134949c-0.023743,-0.002502 -0.046265,-0.003845 -0.068787,-0.006287c0.023804,0.002441 0.045044,0.003784 0.068787,0.006287m-0.130005,-0.010071c-0.005005,-0.001221 -0.01001,-0.001221 -0.013794,-0.001221c0.003784,0 0.008789,0 0.013794,0.001221" fill-rule="nonzero" fill="#e2e1e1"/>
  <path id="path262" d="m382.064636,396.206665c2.782471,-7.366241 5.079956,-15.267487 6.824951,-23.592529c-1.743774,8.32254 -4.043823,16.22879 -6.82373,23.591309c-0.002441,0.002441 0,-0.001312 -0.001221,0.001221m10.698608,-61.790009c0,-0.056213 0,-0.112518 0,-0.16748c0,0.054962 0,0.111267 0,0.16626l0,0m0,-0.214996c0,-0.047516 -0.001221,-0.093781 -0.001221,-0.141296c0,0.046234 0.001221,0.093781 0.001221,0.141296m-0.001221,-0.173798c0,-0.054993 0,-0.112457 0,-0.16748c0,0.055023 0,0.112488 0,0.16748m0,-0.206207c0,-0.047546 0,-0.093781 0,-0.142517c0,0.047516 0,0.096283 0,0.142517m-0.001221,-0.176239c0,-0.056335 0,-0.117493 0,-0.172516c0,0.057312 0,0.113739 0,0.172516m0,-0.195007c0,-0.056244 -0.001221,-0.10257 -0.001221,-0.157562c0,0.05127 0.001221,0.105072 0.001221,0.157562m-0.001221,-0.187561c0,-0.059967 -0.001343,-0.117462 -0.001343,-0.176239c0,0.057556 0.001343,0.117493 0.001343,0.176239m-0.001343,-0.181183c0,-0.060028 -0.001221,-0.110016 -0.001221,-0.168762c0,0.055023 0.001221,0.113739 0.001221,0.168762m-0.001221,-0.202545c-0.001221,-0.059998 -0.001221,-0.11377 -0.001221,-0.172607c0,0.057617 0,0.11496 0.001221,0.172607m-0.001221,-0.173798c-0.001343,-0.06015 -0.001343,-0.117432 -0.002563,-0.17749c0.001221,0.061279 0.001221,0.11618 0.002563,0.17749m-0.002563,-0.20636c-0.00116,-0.118591 -0.00235,-0.235077 -0.003571,-0.35376c0.001221,0.117493 0.002411,0.235168 0.003571,0.35376m-0.003571,-0.381317c-0.001343,-0.05127 -0.001343,-0.102539 -0.002563,-0.153809c0.001221,0.050049 0.001221,0.10376 0.002563,0.153809m-0.002563,-0.182587c0,-0.059967 -0.001221,-0.11618 -0.002441,-0.174927c0.001221,0.057434 0.002441,0.117493 0.002441,0.174927m-0.002441,-0.191162c0,-0.05127 -0.001221,-0.102539 -0.002563,-0.153809c0.001343,0.052551 0.002563,0.102539 0.002563,0.153809m-0.002563,-0.19632c-0.001221,-0.054901 -0.001221,-0.113739 -0.002441,-0.168701c0.001221,0.054962 0.001221,0.11499 0.002441,0.168701m-0.002441,-0.181091c-0.001343,-0.0513 -0.002563,-0.107513 -0.002563,-0.158783c0,0.05249 0.001221,0.107483 0.002563,0.158783m-0.003784,-0.201263c-0.001221,-0.05127 -0.001221,-0.101257 -0.002441,-0.152527c0.001221,0.05127 0.001221,0.101257 0.002441,0.152527m-0.002441,-0.171112c-0.001343,-0.058838 -0.002563,-0.108704 -0.003784,-0.16745c0.001221,0.057312 0.002441,0.109985 0.003784,0.16745m-0.003784,-0.212494c-0.001221,-0.04248 -0.002441,-0.08374 -0.002441,-0.127472c0,0.043732 0.001221,0.083771 0.002441,0.127472m-0.003784,-0.177521c-0.001221,-0.054932 -0.002441,-0.10498 -0.002441,-0.160004c0,0.052521 0.001221,0.108795 0.002441,0.160004m-0.003784,-0.203705c-0.00119,-0.039978 -0.002411,-0.086273 -0.002411,-0.125031c0,0.04126 0.001221,0.08374 0.002411,0.125031m-0.003601,-0.178741c-0.00119,-0.0513 -0.002533,-0.102539 -0.003754,-0.153748c0.001221,0.051208 0.002563,0.101257 0.003754,0.153748m-0.004974,-0.221252c-0.001343,-0.031311 -0.001343,-0.059967 -0.002563,-0.091248c0.001221,0.029968 0.001221,0.061249 0.002563,0.091248m-0.003784,-0.176239c-0.001221,-0.027557 -0.001221,-0.056244 -0.002441,-0.083771c0.001221,0.027527 0.001221,0.056213 0.002441,0.083771m-0.006226,-0.231262c0,-0.019989 -0.001343,-0.04007 -0.001343,-0.058746c0,0.018677 0.001343,0.039978 0.001343,0.058746m-0.003784,-0.16626c0,-0.011261 -0.001221,-0.028748 -0.001221,-0.040039c0,0.013824 0.001221,0.026245 0.001221,0.040039m-0.01123,-0.39624c0,-0.007477 0,-0.015045 0,-0.023743c0,0.008698 0,0.016266 0,0.023743" fill-rule="nonzero" fill="#d8d7d8"/>
  <path id="path270" d="m200.12085,81.254128l0,0c118.003784,-0.199966 132.543762,-54.940027 140.862488,-54.940027c0.100098,0 0.19873,0.007549 0.297485,0.0238c-0.098755,-0.01503 -0.197388,-0.0238 -0.297485,-0.0238c-8.316284,0 -22.842468,54.757547 -140.862488,54.950037m143.69635,-52.478706c-0.001343,-0.002522 -0.003906,-0.006262 -0.005127,-0.00877c0.001221,0.003738 0.002563,0.00626 0.005127,0.00877m-0.012573,-0.020071c-0.002563,-0.004959 -0.005005,-0.009991 -0.008789,-0.01495c0.003784,0.004959 0.006226,0.009991 0.008789,0.01495m-0.012451,-0.022421c-0.440063,-0.754999 -0.842529,-1.314999 -1.196411,-1.66383c0.353882,0.35004 0.755127,0.908812 1.196411,1.66383m-1.237549,-1.703798c-0.002563,-0.002522 -0.005005,-0.004961 -0.008789,-0.007481c0.003784,0.00252 0.006226,0.004959 0.008789,0.007481" fill-rule="nonzero" fill="#d8d7d8"/>
  <path id="path274" d="m272.313293,249.260406c-38.117493,0 -69.016251,-30.899963 -69.016251,-69.016281c0,-38.117462 30.898743,-69.017479 69.016251,-69.017479c38.116211,0 69.016235,30.900032 69.016235,69.017479c0,38.116287 -30.899994,69.016281 -69.016235,69.016281m0,-116.857513c-26.422501,0 -47.841248,21.418747 -47.841248,47.841248c0,26.42131 21.418747,47.840042 47.841248,47.840042c26.421265,0 47.841248,-21.418732 47.841248,-47.840042c0,-26.422501 -21.419983,-47.841248 -47.841248,-47.841248" fill-rule="nonzero" fill="#934924"/>
  <path fill="none" stroke-width="10" stroke-miterlimit="4" id="path3187" d="m90.333313,188.586456c0,0 34.004875,-62.669777 70.187378,0" stroke="#000000"/>
  <path id="svg_14" d="m318.285706,181.222839c0,26.42131 -21.418823,47.839966 -47.841309,47.839966c-26.421249,0 -47.841309,-21.418655 -47.841309,-47.839966c0,-26.422516 21.420044,-47.841248 47.841309,-47.841248c26.422485,0 47.841309,21.418732 47.841309,47.841248" fill-rule="nonzero" fill="#ffff00"/>
  <path id="svg_1" fill="none" stroke-width="10" stroke-miterlimit="4" d="m238.833313,188.593292c0,0 34.004883,-62.669823 70.187378,0" stroke="#000000"/>
  <path id="path260" d="m1019.359985,521.55127c-1.163696,0 -2.322449,-0.044983 -3.473755,-0.134949c1.149963,0.088745 2.310059,0.134949 3.473755,0.134949c25.938721,0 48.678711,-22.402466 61.371216,-56.011261c0.001343,-0.002441 -0.001221,0.001312 0.001343,-0.001221c-12.693848,33.615021 -35.431396,56.012482 -61.372559,56.012482m-3.47876,-0.134949c-0.023743,-0.002502 -0.046265,-0.003845 -0.068787,-0.006287c0.023804,0.002441 0.045044,0.003784 0.068787,0.006287m-0.130005,-0.010071c-0.005005,-0.001221 -0.01001,-0.001221 -0.013794,-0.001221c0.003784,0 0.008789,0 0.013794,0.001221" fill-rule="nonzero" fill="#e2e1e1"/>
  <path id="path262" d="m1080.731323,465.540009c2.782471,-7.366241 5.079956,-15.267487 6.824951,-23.592529c-1.743774,8.32254 -4.043823,16.22879 -6.82373,23.591309c-0.002441,0.002441 0,-0.001312 -0.001221,0.001221m10.698608,-61.790009c0,-0.056213 0,-0.112518 0,-0.16748c0,0.054962 0,0.111267 0,0.16626l0,0m0,-0.214996c0,-0.047516 -0.001221,-0.093781 -0.001221,-0.141296c0,0.046234 0.001221,0.093781 0.001221,0.141296m-0.001221,-0.173798c0,-0.054993 0,-0.112457 0,-0.16748c0,0.055023 0,0.112488 0,0.16748m0,-0.206207c0,-0.047546 0,-0.093781 0,-0.142517c0,0.047516 0,0.096283 0,0.142517m-0.001221,-0.176239c0,-0.056335 0,-0.117493 0,-0.172516c0,0.057312 0,0.113739 0,0.172516m0,-0.195007c0,-0.056244 -0.001221,-0.10257 -0.001221,-0.157562c0,0.05127 0.001221,0.105072 0.001221,0.157562m-0.001221,-0.187561c0,-0.059967 -0.001343,-0.117462 -0.001343,-0.176239c0,0.057556 0.001343,0.117493 0.001343,0.176239m-0.001343,-0.181183c0,-0.060028 -0.001221,-0.110016 -0.001221,-0.168762c0,0.055023 0.001221,0.113739 0.001221,0.168762m-0.001221,-0.202545c-0.001221,-0.059998 -0.001221,-0.11377 -0.001221,-0.172607c0,0.057617 0,0.11499 0.001221,0.172607m-0.001221,-0.173798c-0.001343,-0.06012 -0.001343,-0.117432 -0.002563,-0.17749c0.001221,0.061279 0.001221,0.11618 0.002563,0.17749m-0.002563,-0.206329c-0.001221,-0.118622 -0.002441,-0.235046 -0.003662,-0.35376c0.001221,0.117493 0.002441,0.235138 0.003662,0.35376m-0.003662,-0.381317c-0.001343,-0.051178 -0.001343,-0.102448 -0.002563,-0.153717c0.001221,0.050049 0.001221,0.10376 0.002563,0.153717m-0.002563,-0.182495c0,-0.059967 -0.001221,-0.11618 -0.002441,-0.174927c0.001221,0.057434 0.002441,0.117493 0.002441,0.174927m-0.002441,-0.191162c0,-0.05127 -0.001221,-0.102539 -0.002563,-0.153809c0.001343,0.052551 0.002563,0.102539 0.002563,0.153809m-0.002563,-0.19632c-0.001221,-0.054993 -0.001221,-0.113739 -0.002441,-0.168762c0.001221,0.055023 0.001221,0.115051 0.002441,0.168762m-0.002441,-0.181183c-0.001343,-0.05127 -0.002563,-0.107513 -0.002563,-0.158783c0,0.05249 0.001221,0.107513 0.002563,0.158783m-0.003784,-0.201294c-0.001221,-0.051239 -0.001221,-0.101227 -0.002441,-0.152496c0.001221,0.05127 0.001221,0.101257 0.002441,0.152496m-0.002441,-0.171112c-0.001343,-0.058838 -0.002563,-0.108704 -0.003784,-0.16745c0.001221,0.057312 0.002441,0.109985 0.003784,0.16745m-0.003784,-0.212494c-0.001221,-0.04248 -0.002441,-0.08374 -0.002441,-0.127472c0,0.043732 0.001221,0.083771 0.002441,0.127472m-0.003784,-0.177521c-0.001221,-0.054932 -0.002441,-0.10498 -0.002441,-0.160004c0,0.052521 0.001221,0.108795 0.002441,0.160004m-0.003784,-0.203705c-0.001221,-0.039978 -0.002441,-0.086273 -0.002441,-0.125031c0,0.04126 0.001221,0.08374 0.002441,0.125031m-0.003662,-0.178741c-0.001221,-0.0513 -0.002563,-0.102539 -0.003784,-0.153748c0.001221,0.051208 0.002563,0.101257 0.003784,0.153748m-0.005005,-0.221252c-0.001343,-0.031311 -0.001343,-0.059967 -0.002563,-0.091248c0.001221,0.029968 0.001221,0.061249 0.002563,0.091248m-0.003784,-0.176239c-0.001221,-0.027557 -0.001221,-0.056244 -0.002441,-0.083771c0.001221,0.027527 0.001221,0.056213 0.002441,0.083771m-0.006226,-0.231262c0,-0.019989 -0.001343,-0.04007 -0.001343,-0.058746c0,0.018677 0.001343,0.039978 0.001343,0.058746m-0.003784,-0.16626c0,-0.011261 -0.001221,-0.028748 -0.001221,-0.040039c0,0.013824 0.001221,0.026245 0.001221,0.040039m-0.01123,-0.39624c0,-0.007477 0,-0.015045 0,-0.023743c0,0.008698 0,0.016266 0,0.023743" fill-rule="nonzero" fill="#d8d7d8"/>
  <path id="path264" d="m320.693298,452.217926c-1.163696,0 -2.323792,-0.046204 -3.473755,-0.134949c-0.001221,0 -0.003723,0 -0.005005,0c-0.023743,-0.002502 -0.044983,-0.003845 -0.068787,-0.006287c-0.019958,-0.001282 -0.041199,-0.002502 -0.061218,-0.003784c-0.005005,-0.001221 -0.01001,-0.001221 -0.013794,-0.001221c-3.737427,-0.303711 -7.398743,-1.073792 -10.964966,-2.27124c23.52124,-21.346252 37.875,-49.781219 37.875,-80.997498c0,-39.403748 -3.133789,-74.371277 -34.178772,-96.25c18.440002,-8.233704 34.533752,-20.91246 43.674988,-40.252533c0.3125,-0.662476 0.621338,-1.334991 0.921265,-2.007446c21.900024,18.978729 37.10376,55.857452 38.290039,98.712463c0,0.008759 0,0.016266 0,0.023743c0.003784,0.119995 0.007446,0.236267 0.01001,0.356293c0,0.0112 0.001221,0.028748 0.001221,0.039948c0.001221,0.036255 0.001221,0.071289 0.002441,0.107513c0,0.018768 0.001343,0.038757 0.001343,0.058746c0.001221,0.048767 0.002441,0.098816 0.003784,0.147552c0.001221,0.027466 0.001221,0.056244 0.002441,0.08371c0,0.03006 0.001221,0.054993 0.001221,0.084991c0.001221,0.031281 0.001221,0.060028 0.002441,0.091248c0,0.021271 0.001343,0.044983 0.001343,0.067505c0.001221,0.05127 0.002563,0.102539 0.003784,0.153748c0,0.016235 0,0.037537 0.001221,0.053772c0,0.038757 0.001221,0.084991 0.002441,0.124969c0,0.016266 0,0.027557 0.001251,0.043793c0,0.054962 0.001221,0.10498 0.002441,0.159943c0,0.016296 0.001343,0.033691 0.001343,0.050018c0,0.043732 0.001221,0.084991 0.002441,0.127441c0,0.013763 0,0.03125 0,0.044983c0.001221,0.058807 0.002441,0.108704 0.003784,0.167542c0,0.006256 0,0.012421 0,0.018677c0.001221,0.05127 0.001221,0.101349 0.002441,0.152588c0,0.013733 0,0.028778 0.001221,0.042511c0,0.05127 0.001221,0.107422 0.002563,0.158691c0,0.006317 0,0.007538 0,0.012482c0.001221,0.054962 0.001221,0.11377 0.002441,0.168732c0,0.013702 0,0.028809 0,0.04248c0.001343,0.05127 0.002563,0.102539 0.002563,0.153809c0,0.006256 0,0.009979 0,0.016296c0.001221,0.058777 0.002441,0.11496 0.002441,0.175049c0,0.0112 0,0.017487 0,0.028778c0.001221,0.051178 0.001221,0.102448 0.002563,0.153717c0,0.0112 0,0.016266 0,0.027466c0.001221,0.118774 0.002441,0.235077 0.003662,0.35376c0,0.007507 0,0.021301 0,0.028778c0.001221,0.059967 0.001221,0.117493 0.002472,0.17746l0,0.001312c0,0.058746 0,0.112457 0.001221,0.172485c0,0.0112 0,0.022522 0,0.033722c0,0.058746 0.001221,0.108795 0.001221,0.168762c0,0.002533 0,0.001221 0,0.005035c0,0.058746 0.001343,0.11618 0.001343,0.176239c0,0.01001 0,0.018707 0,0.029999c0,0.054993 0.001221,0.101227 0.001221,0.157471c0,0.007538 0,0.013794 0,0.022491c0,0.055023 0,0.116272 0,0.172516c0.001221,0.009979 0.001221,0.023712 0.001221,0.033783c0,0.048737 0,0.095001 0,0.142456c0,0.013794 0,0.025024 0,0.038727c0,0.055023 0,0.11261 0,0.167542c0,0.01123 0,0.02124 0,0.032532c0,0.047424 0.001221,0.093689 0.001221,0.141205c0,0.016235 0,0.031281 0,0.048737c0,0.055023 0,0.111267 0,0.16748c0,13.370056 -1.362549,26.218811 -3.873657,38.197571c-1.744995,8.324951 -4.042603,16.226196 -6.825073,23.592438c-12.692505,33.608856 -35.432495,56.011261 -61.371338,56.011261" fill-rule="nonzero" fill="#5b3a16"/>
  <path id="path266" d="m298.428345,456.222931c6.741272,-5.267517 12.871216,-11.065002 18.298706,-17.313782c-12.152466,-53.77121 -59.651245,-93.898773 -116.438721,-93.898773c-0.056213,0 -0.112488,0 -0.16748,0l0.100098,-51.903687c0.627136,-0.643982 0.723633,0.857452 0.723633,0.857452c0,0 -4.612122,-11.364136 2.676758,-11.374603c7.288879,-0.010468 16.721985,4.480865 25.396973,4.480865c22.521301,0 54.10376,-2.60498 80.783752,-14.517548c31.045044,21.878815 34.178833,56.846344 34.178833,96.250031c0,31.216278 -14.353882,59.651245 -37.875,80.997559c-0.003845,-0.001221 -0.007568,-0.002563 -0.011292,-0.003784c-2.452454,2.224976 -5.013733,4.36499 -7.66626,6.42627" fill-rule="nonzero" fill="#844221"/>
  <path id="path268" d="m200.12085,488.790436l0,-143.779999c0.054993,0 0.111267,0 0.16748,0c56.787537,0 104.286255,40.127502 116.438721,93.898712c-5.42749,6.248779 -11.557434,12.046265 -18.298706,17.313782c-1.330017,1.033752 -2.682495,2.047485 -4.056213,3.042542c-0.173767,0.126221 -0.347534,0.25 -0.522583,0.373718c-1.936157,1.390015 -3.914917,2.737549 -5.938721,4.042542c-0.144958,0.091248 -0.287476,0.188721 -0.433716,0.28241c-6.476257,4.135071 -13.379944,7.825012 -20.657471,11.015015c-0.436279,0.190002 -0.877563,0.371277 -1.316223,0.559998c-1.920044,0.821228 -3.86377,1.606323 -5.833862,2.357483c-0.597412,0.227539 -1.194946,0.456299 -1.796204,0.67627c-1.916229,0.705017 -3.857468,1.371216 -5.816208,2.007568c-0.570007,0.183716 -1.133728,0.378723 -1.707581,0.558655c-2.439926,0.762573 -4.904968,1.482544 -7.406189,2.136353l-0.17749,0.048706c-2.597458,0.678711 -5.227478,1.286255 -7.88501,1.842529c-0.613708,0.128723 -1.236221,0.232483 -1.852539,0.356201c-1.983688,0.391235 -3.978699,0.756226 -5.993698,1.080017c-0.893814,0.142517 -1.793762,0.268799 -2.693802,0.400024c-1.793762,0.257446 -3.597473,0.488708 -5.413773,0.691223c-0.956177,0.108673 -1.909897,0.213745 -2.869919,0.303711c-1.877487,0.178711 -3.768738,0.317566 -5.66748,0.433777c-0.867538,0.055054 -1.727539,0.125 -2.597519,0.163757c-2.54126,0.121216 -5.097458,0.183716 -7.671249,0.195007" fill-rule="nonzero" fill="#a58029"/>
  <path id="path270" d="m898.787537,150.587463l0,0c118.003784,-0.199966 132.543762,-54.940033 140.862488,-54.940033c0.100098,0 0.19873,0.007553 0.297485,0.023796c-0.098755,-0.01503 -0.197388,-0.023796 -0.297485,-0.023796c-8.316284,0 -22.842468,54.757553 -140.862488,54.950043m143.69635,-52.478714c-0.001343,-0.002518 -0.003906,-0.006256 -0.005127,-0.008766c0.001221,0.003738 0.002563,0.006256 0.005127,0.008766m-0.012573,-0.020073c-0.002563,-0.004959 -0.005005,-0.009987 -0.008789,-0.014946c0.003784,0.004959 0.006226,0.009987 0.008789,0.014946m-0.012451,-0.022415c-0.440063,-0.754997 -0.842529,-1.315002 -1.196411,-1.663834c0.353882,0.350044 0.755127,0.908813 1.196411,1.663834m-1.237549,-1.703804c-0.002563,-0.002518 -0.005005,-0.004959 -0.008789,-0.007477c0.003784,0.002518 0.006226,0.004959 0.008789,0.007477" fill-rule="nonzero" fill="#d8d7d8"/>
  <path id="path272" d="m229.018311,287.070648c-8.674988,0 -10.664001,1.75 -21.192017,-0.776001c-10.528992,-2.526978 -8.098999,-67.723999 -6.881958,-49.582977c1.217957,18.140991 -0.55304,0.000977 -0.823013,0.003998l0,-155.462006c118.021988,-0.182014 132.541946,-54.939512 140.862015,-54.939512c0.099976,0 0.199951,0.008699 0.299927,0.023701c0.430054,0.071299 0.850098,0.297489 1.26001,0.693789c0.01001,0.002501 0.01001,0.005001 0.01001,0.007502c0.01001,0.0138 0.030029,0.0275 0.040039,0.039999l0,0c0.359985,0.3487 0.76001,0.908701 1.199951,1.6637c0,0.002491 0,0.005001 0,0.0075c0.01001,0.0051 0.01001,0.009991 0.01001,0.015001c0,0.003799 0.01001,0.008799 0.01001,0.011299c0,0.002501 0,0.006201 0,0.008699c10.01001,17.255302 40.26001,134.964294 10.540039,201.471283c0.02002,0.013 0.030029,0.024017 0.049927,0.036026c-0.299927,0.672989 -0.609985,1.344986 -0.929932,2.00798c-9.139984,19.340012 -25.22998,32.018005 -43.670044,40.251984c-26.680939,11.913025 -58.263977,14.518005 -80.784927,14.518005m43.294968,-175.843987c-38.116989,0 -69.016006,30.900017 -69.016006,69.016991c0,38.117004 30.899017,69.016998 69.016006,69.016998c38.119995,0 69.02002,-30.899994 69.02002,-69.016998c0,-38.116974 -30.900024,-69.016991 -69.02002,-69.016991" fill-rule="nonzero" fill="#5b3a16"/>
  <g id="svg_3">
   <polygon stroke-width="null" points="198,203.97489166259766 211.2515869140625,218.92731475830078 224.503173828125,233.8797378540039 198,233.8797378540039 171.49676513671875,233.8797378540039 184.74835205078125,218.92731475830078 198,203.97489166259766 211.2515869140625,218.92731475830078 " fill="#000000" id="svg_10"/>
   <polygon transform="rotate(-180 198.66668701171878,262.6665954589844) " id="svg_13" stroke-width="null" points="198.66668701171875,233.71417999267578 211.91827392578125,262.66663360595703 225.16986083984375,291.61902618408203 198.66668701171875,291.61902618408203 172.16351318359375,291.61902618408203 185.41510009765625,262.66663360595703 198.66668701171875,233.71417999267578 211.91827392578125,262.66663360595703 " fill="#000000"/>
  </g>
  <g id="svg_15">
   <rect fill="#68431a" stroke-width="null" stroke-dasharray="null" stroke-linejoin="null" stroke-linecap="null" x="119.33341" y="444.91668" width="15" height="60" id="svg_9" rx="15" ry="15"/>
   <rect fill="#68431a" stroke-width="null" stroke-dasharray="null" stroke-linejoin="null" stroke-linecap="null" x="133.20828" y="444.91668" width="15" height="60" rx="15" ry="15" id="svg_11"/>
   <rect fill="#68431a" stroke-width="null" stroke-dasharray="null" stroke-linejoin="null" stroke-linecap="null" x="147.45828" y="444.91668" width="15" height="60" rx="15" ry="15" id="svg_12"/>
  </g>
  <g id="svg_16">
   <rect fill="#68431a" stroke-width="null" stroke-dasharray="null" stroke-linejoin="null" stroke-linecap="null" x="239.14585" y="444.91668" width="15" height="60" rx="15" ry="15" id="svg_17"/>
   <rect fill="#68431a" stroke-width="null" stroke-dasharray="null" stroke-linejoin="null" stroke-linecap="null" x="253.02073" y="444.91668" width="15" height="60" rx="15" ry="15" id="svg_18"/>
   <rect fill="#68431a" stroke-width="null" stroke-dasharray="null" stroke-linejoin="null" stroke-linecap="null" x="267.27073" y="444.91668" width="15" height="60" rx="15" ry="15" id="svg_19"/>
  </g>
 </g>
</svg>
