<svg width="450" height="300" xmlns="http://www.w3.org/2000/svg" xmlns:svg="http://www.w3.org/2000/svg">
 <g>
  <title>Layer 1</title>
  <g id="svg_12">
   <path d="m430.3475,217.05685l-8.57141,-88.57141l-34.28571,-55.71429l-64.28571,-34.28571l-51.42859,-20l-68.57143,-7.14288c0,0 -52.85715,-1.42853 -64.28574,0s-57.14294,21.42859 -57.14294,21.42859l-42.85706,48.57142c0,0 -8.57153,30 -14.28577,34.28571s-17.14282,34.28577 -17.14282,34.28577s11.42859,50 11.42859,55.71422s34.28564,52.85724 40,52.85724s107.14284,-2.85724 114.28564,-5.71436s41.42859,-14.28571 41.42859,-14.28571l52.85716,7.14282c0,0 31.42856,-2.85713 37.14282,-2.85713s48.57147,5.71437 48.57147,5.71437l40,-14.28577l37.14279,-17.14288l0.00003,0l0.00003,0l0.00003,0z" fill="#cacaca" stroke="#000" stroke-width="8" id="svg_13"/>
   <path d="m73.62332,68.00125c-28.61914,-2.08868 -36.37231,29.16614 -45.70947,49.37122c-11.30566,19.10529 -23.47107,38.00342 -13.00574,60.48285c6.42114,28.56146 19.65552,61.08081 45.58325,76.39282c51.37389,2.58527 103.55933,-2.69623 152.91175,-16.92004c29.81218,-0.40485 64.25616,11.87103 90.91376,-1.89403c-29.33191,-21.76625 -63.59387,-39.48309 -89.97375,-63.69441c-14.97168,-30.45813 -24.11078,-65.99609 -44.12395,-93.00549c-31.02907,-8.98584 -64.37584,-10.56451 -96.59584,-10.73291l0,-0.00001z" fill="#b2b2b2" id="svg_14"/>
  </g>
 </g>
</svg>